<svg width="43" height="42" viewBox="0 0 43 42" fill="none" xmlns="http://www.w3.org/2000/svg">
<path d="M37.25 17.5H5.75M28.5 3.5V10.5M14.5 3.5V10.5M14.15 38.5H28.85C31.7903 38.5 33.2604 38.5 34.3834 37.9278C35.3713 37.4244 36.1744 36.6213 36.6778 35.6334C37.25 34.5104 37.25 33.0403 37.25 30.1V15.4C37.25 12.4597 37.25 10.9896 36.6778 9.86655C36.1744 8.8787 35.3713 8.07555 34.3834 7.57222C33.2604 7 31.7903 7 28.85 7H14.15C11.2097 7 9.73959 7 8.61655 7.57222C7.6287 8.07555 6.82555 8.8787 6.32222 9.86655C5.75 10.9896 5.75 12.4597 5.75 15.4V30.1C5.75 33.0403 5.75 34.5104 6.32222 35.6334C6.82555 36.6213 7.6287 37.4244 8.61655 37.9278C9.73959 38.5 11.2097 38.5 14.15 38.5Z" stroke="#028588" stroke-width="2.69" stroke-linecap="round" stroke-linejoin="round"/>
</svg>
