<svg width="19" height="19" viewBox="0 0 19 19" fill="none" xmlns="http://www.w3.org/2000/svg">
<path d="M11.9998 4.08089C13.9706 5.01711 15.3332 7.02587 15.3332 9.35286M6.49352 14.3528C4.79949 13.3321 3.6665 11.4748 3.6665 9.35283M17.8332 9.35286C17.8332 13.9552 14.1022 17.6862 9.49984 17.6862C4.89746 17.6862 1.1665 13.9552 1.1665 9.35286C1.1665 4.75049 4.89746 1.01953 9.49984 1.01953C14.1022 1.01953 17.8332 4.75049 17.8332 9.35286ZM11.9998 9.35286C11.9998 10.7336 10.8805 11.8529 9.49984 11.8529C8.11913 11.8529 6.99984 10.7336 6.99984 9.35286C6.99984 7.97215 8.11913 6.85286 9.49984 6.85286C10.8805 6.85286 11.9998 7.97215 11.9998 9.35286Z" stroke="#384250" stroke-width="1.66667" stroke-linecap="round" stroke-linejoin="round"/>
</svg>
