<svg width="61" height="61" viewBox="0 0 61 61" fill="none" xmlns="http://www.w3.org/2000/svg">
<rect x="0.959599" y="9.43488" width="51" height="51" rx="11.5" transform="rotate(-10 0.959599 9.43488)" fill="white"/>
<path d="M31.3106 34.7145C34.2125 34.2028 36.1485 31.4379 35.6368 28.536L34.3634 21.3141C33.8517 18.4122 31.0868 16.4763 28.1849 16.9879C25.283 17.4996 23.3471 20.2645 23.8587 23.1664L25.1322 30.3883C25.6438 33.2902 28.4087 35.2262 31.3106 34.7145Z" stroke="#292D32" stroke-width="2" stroke-linecap="round" stroke-linejoin="round"/>
<path d="M19.9111 28.8047L20.3047 31.0369C21.2818 36.5781 26.5798 40.2878 32.121 39.3107C37.6622 38.3337 41.3719 33.0357 40.3948 27.4945L40.0012 25.2623" stroke="#292D32" stroke-width="2" stroke-linecap="round" stroke-linejoin="round"/>
<path d="M27.3854 23.1267C28.4908 22.4851 29.7776 22.2582 31.0358 22.4831" stroke="#292D32" stroke-width="2" stroke-linecap="round" stroke-linejoin="round"/>
<path d="M28.6508 25.7746C29.3143 25.468 30.0365 25.3407 30.7648 25.4018" stroke="#292D32" stroke-width="2" stroke-linecap="round" stroke-linejoin="round"/>
<path d="M32.1211 39.3105L32.8157 43.2498" stroke="#292D32" stroke-width="2" stroke-linecap="round" stroke-linejoin="round"/>
<rect x="0.959599" y="9.43488" width="51" height="51" rx="11.5" transform="rotate(-10 0.959599 9.43488)" stroke="#E5E7EB"/>
</svg>
