<svg width="156" height="106" viewBox="0 0 156 106" fill="none" xmlns="http://www.w3.org/2000/svg">
<path d="M25.064 25.24C22.952 25.24 21.336 24.736 20.216 23.728C19.112 22.72 18.56 21.256 18.56 19.336V9.544H20.528V19.36C20.528 20.768 20.92 21.824 21.704 22.528C22.504 23.216 23.624 23.56 25.064 23.56C26.488 23.56 27.592 23.216 28.376 22.528C29.176 21.824 29.576 20.768 29.576 19.36V9.544H31.544V19.336C31.544 21.256 30.984 22.72 29.864 23.728C28.76 24.736 27.16 25.24 25.064 25.24ZM37.2536 25.24C36.4856 25.24 35.8776 25.04 35.4296 24.64C34.9976 24.224 34.7816 23.528 34.7816 22.552V8.824H36.7496V22.336C36.7496 22.816 36.8296 23.144 36.9896 23.32C37.1496 23.496 37.3976 23.584 37.7336 23.584C38.1016 23.584 38.4616 23.536 38.8136 23.44V25C38.5576 25.096 38.3016 25.16 38.0456 25.192C37.7896 25.224 37.5256 25.24 37.2536 25.24ZM44.6289 25.24C43.5089 25.24 42.6609 24.944 42.0849 24.352C41.5249 23.744 41.2449 22.904 41.2449 21.832V15.184H39.5169V13.624H41.2449V10.816L43.2129 10.216V13.624H46.3569L46.2369 15.184H43.2129V21.736C43.2129 22.424 43.3649 22.92 43.6689 23.224C43.9889 23.512 44.5329 23.656 45.3009 23.656C45.7169 23.656 46.1729 23.576 46.6689 23.416V24.904C46.0769 25.128 45.3969 25.24 44.6289 25.24ZM49.5491 10.96V9.16H51.7331V10.96H49.5491ZM49.7411 25V15.184H47.9891L48.1811 13.624H51.7091V25H49.7411ZM55.1019 25V13.624H56.8779L56.9979 14.92C57.6059 14.44 58.2459 14.064 58.9179 13.792C59.6059 13.52 60.3419 13.384 61.1259 13.384C61.9739 13.384 62.6299 13.52 63.0939 13.792C63.5739 14.064 63.9259 14.448 64.1499 14.944C64.6939 14.496 65.3179 14.128 66.0219 13.84C66.7259 13.536 67.5659 13.384 68.5419 13.384C69.8379 13.384 70.7979 13.72 71.4219 14.392C72.0619 15.048 72.3819 16.064 72.3819 17.44V25H70.4379V17.632C70.4379 16.624 70.2219 15.928 69.7899 15.544C69.3739 15.16 68.6939 14.968 67.7499 14.968C67.1259 14.968 66.5259 15.072 65.9499 15.28C65.3899 15.488 64.9099 15.808 64.5099 16.24C64.6059 16.64 64.6539 17.104 64.6539 17.632V25H62.8059V17.68C62.8059 16.72 62.6459 16.032 62.3259 15.616C62.0059 15.184 61.3739 14.968 60.4299 14.968C59.7899 14.968 59.1739 15.112 58.5819 15.4C58.0059 15.672 57.4939 16.016 57.0459 16.432V25H55.1019ZM78.8096 25.24C78.0896 25.24 77.4256 25.112 76.8176 24.856C76.2096 24.6 75.7216 24.224 75.3536 23.728C74.9856 23.216 74.8016 22.576 74.8016 21.808C74.8016 20.768 75.1456 19.92 75.8336 19.264C76.5216 18.592 77.6416 18.256 79.1936 18.256H83.1536V17.56C83.1536 16.936 83.0656 16.44 82.8896 16.072C82.7296 15.704 82.4176 15.44 81.9536 15.28C81.4896 15.12 80.8096 15.04 79.9136 15.04C79.2256 15.04 78.5616 15.096 77.9216 15.208C77.2816 15.32 76.6816 15.472 76.1216 15.664V14.032C76.6336 13.84 77.2336 13.688 77.9216 13.576C78.6256 13.448 79.3776 13.384 80.1776 13.384C81.7936 13.384 83.0016 13.712 83.8016 14.368C84.6176 15.024 85.0256 16.088 85.0256 17.56V25H83.3696L83.2256 23.704C82.7296 24.216 82.1296 24.6 81.4256 24.856C80.7216 25.112 79.8496 25.24 78.8096 25.24ZM79.3136 23.632C80.1456 23.632 80.8816 23.488 81.5216 23.2C82.1616 22.896 82.7056 22.488 83.1536 21.976V19.768H79.2416C78.3456 19.768 77.7056 19.936 77.3216 20.272C76.9376 20.608 76.7456 21.12 76.7456 21.808C76.7456 22.496 76.9776 22.976 77.4416 23.248C77.9056 23.504 78.5296 23.632 79.3136 23.632ZM92.4179 25.24C91.2979 25.24 90.4499 24.944 89.8739 24.352C89.3139 23.744 89.0339 22.904 89.0339 21.832V15.184H87.3059V13.624H89.0339V10.816L91.0019 10.216V13.624H94.1459L94.0259 15.184H91.0019V21.736C91.0019 22.424 91.1539 22.92 91.4579 23.224C91.7779 23.512 92.3219 23.656 93.0899 23.656C93.5059 23.656 93.9619 23.576 94.4579 23.416V24.904C93.8659 25.128 93.1859 25.24 92.4179 25.24ZM102.319 25.24C100.287 25.24 98.7669 24.752 97.7589 23.776C96.7509 22.8 96.2469 21.296 96.2469 19.264C96.2469 17.44 96.6789 16.008 97.5429 14.968C98.4229 13.912 99.8069 13.384 101.695 13.384C102.815 13.384 103.735 13.592 104.455 14.008C105.191 14.408 105.735 14.968 106.087 15.688C106.455 16.392 106.639 17.192 106.639 18.088V20.224H98.2149C98.2789 21.088 98.4629 21.768 98.7669 22.264C99.0869 22.76 99.5589 23.12 100.183 23.344C100.823 23.552 101.663 23.656 102.703 23.656C103.871 23.656 104.943 23.456 105.919 23.056V24.592C105.423 24.8 104.863 24.96 104.239 25.072C103.631 25.184 102.991 25.24 102.319 25.24ZM98.2149 18.808H104.887V17.872C104.887 16.944 104.639 16.232 104.143 15.736C103.663 15.224 102.863 14.968 101.743 14.968C100.383 14.968 99.4549 15.288 98.9589 15.928C98.4629 16.568 98.2149 17.528 98.2149 18.808ZM109.044 25V23.344H110.82V25H109.044ZM23.216 59.24C21.296 59.24 19.744 59 18.56 58.52V56.768C19.232 57.024 19.944 57.224 20.696 57.368C21.464 57.496 22.248 57.56 23.048 57.56C24.424 57.56 25.456 57.376 26.144 57.008C26.832 56.624 27.176 55.944 27.176 54.968C27.176 54.36 27.032 53.88 26.744 53.528C26.472 53.16 26.016 52.856 25.376 52.616C24.736 52.36 23.88 52.104 22.808 51.848C21.112 51.432 19.92 50.896 19.232 50.24C18.544 49.568 18.2 48.672 18.2 47.552C18.2 46.24 18.672 45.208 19.616 44.456C20.56 43.688 22 43.304 23.936 43.304C24.832 43.304 25.664 43.368 26.432 43.496C27.2 43.624 27.792 43.76 28.208 43.904V45.632C27.632 45.424 27.008 45.264 26.336 45.152C25.664 45.04 24.968 44.984 24.248 44.984C22.936 44.984 21.928 45.176 21.224 45.56C20.52 45.944 20.168 46.608 20.168 47.552C20.168 48.08 20.288 48.512 20.528 48.848C20.784 49.168 21.208 49.448 21.8 49.688C22.392 49.912 23.216 50.152 24.272 50.408C25.536 50.712 26.52 51.08 27.224 51.512C27.928 51.928 28.424 52.424 28.712 53C29 53.576 29.144 54.232 29.144 54.968C29.144 56.328 28.648 57.384 27.656 58.136C26.664 58.872 25.184 59.24 23.216 59.24ZM37.2239 59.24C35.2399 59.24 33.7919 58.736 32.8799 57.728C31.9839 56.704 31.5359 55.232 31.5359 53.312C31.5359 51.408 31.9919 49.944 32.9039 48.92C33.8159 47.896 35.2559 47.384 37.2239 47.384C39.1919 47.384 40.6319 47.896 41.5439 48.92C42.4559 49.944 42.9119 51.408 42.9119 53.312C42.9119 55.232 42.4639 56.704 41.5679 57.728C40.6719 58.736 39.2239 59.24 37.2239 59.24ZM37.2239 57.56C38.5839 57.56 39.5439 57.224 40.1039 56.552C40.6639 55.864 40.9439 54.784 40.9439 53.312C40.9439 51.84 40.6559 50.768 40.0799 50.096C39.5199 49.408 38.5679 49.064 37.2239 49.064C35.8799 49.064 34.9199 49.408 34.3439 50.096C33.7839 50.768 33.5039 51.84 33.5039 53.312C33.5039 54.784 33.7839 55.864 34.3439 56.552C34.9039 57.224 35.8639 57.56 37.2239 57.56ZM49.8052 59.24C48.4452 59.24 47.4132 58.864 46.7092 58.112C46.0212 57.36 45.6772 56.264 45.6772 54.824V47.624H47.6452V54.896C47.6452 55.84 47.8772 56.536 48.3412 56.984C48.8212 57.432 49.5572 57.656 50.5492 57.656C51.2532 57.656 51.9172 57.528 52.5412 57.272C53.1652 57.016 53.7012 56.664 54.1492 56.216V47.624H56.1172V59H54.3412L54.2212 57.704C53.6772 58.152 53.0292 58.52 52.2772 58.808C51.5252 59.096 50.7012 59.24 49.8052 59.24ZM59.4847 59V47.624H61.2607L61.3807 48.92C61.9247 48.472 62.5567 48.104 63.2767 47.816C64.0127 47.528 64.8527 47.384 65.7967 47.384C67.2367 47.384 68.2847 47.72 68.9407 48.392C69.5967 49.064 69.9247 50.12 69.9247 51.56V59H67.9567V51.632C67.9567 50.64 67.7567 49.952 67.3567 49.568C66.9567 49.168 66.1887 48.968 65.0527 48.968C64.3487 48.968 63.6847 49.096 63.0607 49.352C62.4367 49.608 61.9007 49.96 61.4527 50.408V59H59.4847ZM77.4532 59.24C75.8532 59.24 74.5972 58.8 73.6852 57.92C72.7732 57.024 72.3172 55.544 72.3172 53.48C72.3172 51.432 72.7892 49.904 73.7332 48.896C74.6932 47.888 75.9732 47.384 77.5732 47.384C78.9972 47.384 80.2292 47.744 81.2692 48.464V42.824H83.2372V59H81.5572L81.4132 57.8C80.8852 58.296 80.3012 58.664 79.6612 58.904C79.0372 59.128 78.3012 59.24 77.4532 59.24ZM77.9572 57.656C78.6132 57.656 79.2212 57.544 79.7812 57.32C80.3412 57.096 80.8372 56.752 81.2692 56.288V50.096C80.8692 49.744 80.3972 49.472 79.8532 49.28C79.3092 49.072 78.6932 48.968 78.0052 48.968C76.7412 48.968 75.8052 49.336 75.1972 50.072C74.5892 50.792 74.2852 51.928 74.2852 53.48C74.2852 54.968 74.5652 56.04 75.1252 56.696C75.6852 57.336 76.6292 57.656 77.9572 57.656ZM90.7539 59.24C89.6339 59.24 88.7859 58.944 88.2099 58.352C87.6499 57.744 87.3699 56.904 87.3699 55.832V49.184H85.6419V47.624H87.3699V44.816L89.3379 44.216V47.624H92.4819L92.3619 49.184H89.3379V55.736C89.3379 56.424 89.4899 56.92 89.7939 57.224C90.1139 57.512 90.6579 57.656 91.4259 57.656C91.8419 57.656 92.2979 57.576 92.7939 57.416V58.904C92.2019 59.128 91.5219 59.24 90.7539 59.24ZM95.0628 59V47.624H96.8388L96.9828 49.064C97.5428 48.696 98.1988 48.36 98.9508 48.056C99.7188 47.752 100.471 47.528 101.207 47.384V48.92C100.759 49.016 100.271 49.152 99.7428 49.328C99.2148 49.488 98.7108 49.672 98.2308 49.88C97.7508 50.088 97.3508 50.304 97.0308 50.528V59H95.0628ZM106.161 59.24C105.441 59.24 104.777 59.112 104.169 58.856C103.561 58.6 103.073 58.224 102.705 57.728C102.337 57.216 102.153 56.576 102.153 55.808C102.153 54.768 102.497 53.92 103.185 53.264C103.873 52.592 104.993 52.256 106.545 52.256H110.505V51.56C110.505 50.936 110.417 50.44 110.241 50.072C110.081 49.704 109.769 49.44 109.305 49.28C108.841 49.12 108.161 49.04 107.265 49.04C106.577 49.04 105.913 49.096 105.273 49.208C104.633 49.32 104.033 49.472 103.473 49.664V48.032C103.985 47.84 104.585 47.688 105.273 47.576C105.977 47.448 106.729 47.384 107.529 47.384C109.145 47.384 110.353 47.712 111.153 48.368C111.969 49.024 112.377 50.088 112.377 51.56V59H110.721L110.577 57.704C110.081 58.216 109.481 58.6 108.777 58.856C108.073 59.112 107.201 59.24 106.161 59.24ZM106.665 57.632C107.497 57.632 108.233 57.488 108.873 57.2C109.513 56.896 110.057 56.488 110.505 55.976V53.768H106.593C105.697 53.768 105.057 53.936 104.673 54.272C104.289 54.608 104.097 55.12 104.097 55.808C104.097 56.496 104.329 56.976 104.793 57.248C105.257 57.504 105.881 57.632 106.665 57.632ZM120.993 59.24C119.01 59.24 117.538 58.728 116.578 57.704C115.618 56.664 115.138 55.2 115.138 53.312C115.138 51.312 115.682 49.824 116.77 48.848C117.858 47.872 119.322 47.384 121.162 47.384C121.914 47.384 122.538 47.44 123.034 47.552C123.53 47.648 124.01 47.808 124.474 48.032V49.592C123.61 49.176 122.626 48.968 121.522 48.968C120.114 48.968 119.026 49.304 118.258 49.976C117.49 50.632 117.105 51.744 117.105 53.312C117.105 54.816 117.442 55.92 118.114 56.624C118.786 57.312 119.898 57.656 121.45 57.656C122.554 57.656 123.57 57.448 124.498 57.032V58.616C124.002 58.824 123.466 58.976 122.89 59.072C122.33 59.184 121.698 59.24 120.993 59.24ZM126.703 59V42.824H128.671V52.64L133.999 47.624H136.279L131.623 52.136L136.543 59H134.479L130.375 53.192L128.671 54.8V59H126.703ZM138.575 59V57.344H140.351V59H138.575ZM18.68 93V77.544H29.12V79.104H20.648V84.504H28.256V86.04H20.648V91.464H29.12V93H18.68ZM30.4288 93L34.7488 87.216L30.5728 81.624H32.7088L35.8047 85.872L38.9248 81.624H41.0368L36.9088 87.216L41.2048 93H39.0688L35.8047 88.56L32.5648 93H30.4288ZM43.8519 98.184V81.624H45.5319L45.6759 82.824C46.2039 82.328 46.7799 81.968 47.4039 81.744C48.0439 81.504 48.7879 81.384 49.6359 81.384C51.2359 81.384 52.4919 81.832 53.4039 82.728C54.3159 83.608 54.7719 85.08 54.7719 87.144C54.7719 89.192 54.3159 90.72 53.4039 91.728C52.4919 92.736 51.2279 93.24 49.6119 93.24C48.1239 93.24 46.8599 92.88 45.8199 92.16V98.184H43.8519ZM49.0839 91.656C50.3639 91.656 51.2999 91.296 51.8919 90.576C52.4999 89.84 52.8039 88.696 52.8039 87.144C52.8039 85.656 52.5239 84.592 51.9639 83.952C51.4039 83.296 50.4599 82.968 49.1319 82.968C48.4759 82.968 47.8679 83.08 47.3079 83.304C46.7479 83.528 46.2519 83.872 45.8199 84.336V90.528C46.2199 90.88 46.6919 91.16 47.2359 91.368C47.7799 91.56 48.3959 91.656 49.0839 91.656ZM63.2486 93.24C61.2166 93.24 59.6966 92.752 58.6886 91.776C57.6806 90.8 57.1766 89.296 57.1766 87.264C57.1766 85.44 57.6086 84.008 58.4726 82.968C59.3526 81.912 60.7366 81.384 62.6246 81.384C63.7446 81.384 64.6646 81.592 65.3846 82.008C66.1206 82.408 66.6646 82.968 67.0166 83.688C67.3846 84.392 67.5686 85.192 67.5686 86.088V88.224H59.1446C59.2086 89.088 59.3926 89.768 59.6966 90.264C60.0166 90.76 60.4886 91.12 61.1126 91.344C61.7526 91.552 62.5926 91.656 63.6326 91.656C64.8006 91.656 65.8726 91.456 66.8486 91.056V92.592C66.3526 92.8 65.7926 92.96 65.1686 93.072C64.5606 93.184 63.9206 93.24 63.2486 93.24ZM59.1446 86.808H65.8166V85.872C65.8166 84.944 65.5686 84.232 65.0726 83.736C64.5926 83.224 63.7926 82.968 62.6726 82.968C61.3126 82.968 60.3846 83.288 59.8886 83.928C59.3926 84.568 59.1446 85.528 59.1446 86.808ZM70.4534 93V81.624H72.2294L72.3734 83.064C72.9334 82.696 73.5894 82.36 74.3414 82.056C75.1094 81.752 75.8614 81.528 76.5974 81.384V82.92C76.1494 83.016 75.6614 83.152 75.1334 83.328C74.6054 83.488 74.1014 83.672 73.6214 83.88C73.1414 84.088 72.7414 84.304 72.4214 84.528V93H70.4534ZM79.5959 78.96V77.16H81.7799V78.96H79.5959ZM79.7879 93V83.184H78.0359L78.2279 81.624H81.7559V93H79.7879ZM90.7408 93.24C88.7088 93.24 87.1888 92.752 86.1808 91.776C85.1728 90.8 84.6688 89.296 84.6688 87.264C84.6688 85.44 85.1008 84.008 85.9648 82.968C86.8448 81.912 88.2288 81.384 90.1168 81.384C91.2368 81.384 92.1568 81.592 92.8768 82.008C93.6128 82.408 94.1568 82.968 94.5088 83.688C94.8768 84.392 95.0608 85.192 95.0608 86.088V88.224H86.6367C86.7008 89.088 86.8848 89.768 87.1888 90.264C87.5088 90.76 87.9808 91.12 88.6048 91.344C89.2448 91.552 90.0848 91.656 91.1248 91.656C92.2928 91.656 93.3648 91.456 94.3408 91.056V92.592C93.8448 92.8 93.2848 92.96 92.6608 93.072C92.0528 93.184 91.4128 93.24 90.7408 93.24ZM86.6367 86.808H93.3088V85.872C93.3088 84.944 93.0608 84.232 92.5648 83.736C92.0848 83.224 91.2848 82.968 90.1648 82.968C88.8048 82.968 87.8768 83.288 87.3808 83.928C86.8848 84.568 86.6367 85.528 86.6367 86.808ZM97.9456 93V81.624H99.7216L99.8416 82.92C100.386 82.472 101.018 82.104 101.738 81.816C102.474 81.528 103.314 81.384 104.258 81.384C105.698 81.384 106.746 81.72 107.402 82.392C108.058 83.064 108.386 84.12 108.386 85.56V93H106.418V85.632C106.418 84.64 106.218 83.952 105.818 83.568C105.418 83.168 104.65 82.968 103.514 82.968C102.81 82.968 102.146 83.096 101.522 83.352C100.898 83.608 100.362 83.96 99.9136 84.408V93H97.9456ZM116.634 93.24C114.65 93.24 113.178 92.728 112.218 91.704C111.258 90.664 110.778 89.2 110.778 87.312C110.778 85.312 111.322 83.824 112.41 82.848C113.498 81.872 114.962 81.384 116.802 81.384C117.554 81.384 118.178 81.44 118.674 81.552C119.17 81.648 119.65 81.808 120.114 82.032V83.592C119.25 83.176 118.266 82.968 117.162 82.968C115.754 82.968 114.666 83.304 113.898 83.976C113.13 84.632 112.746 85.744 112.746 87.312C112.746 88.816 113.082 89.92 113.754 90.624C114.426 91.312 115.538 91.656 117.09 91.656C118.194 91.656 119.21 91.448 120.138 91.032V92.616C119.642 92.824 119.106 92.976 118.53 93.072C117.97 93.184 117.338 93.24 116.634 93.24ZM127.936 93.24C125.904 93.24 124.384 92.752 123.376 91.776C122.368 90.8 121.864 89.296 121.864 87.264C121.864 85.44 122.296 84.008 123.16 82.968C124.04 81.912 125.424 81.384 127.312 81.384C128.432 81.384 129.352 81.592 130.072 82.008C130.808 82.408 131.352 82.968 131.704 83.688C132.072 84.392 132.256 85.192 132.256 86.088V88.224H123.832C123.896 89.088 124.08 89.768 124.384 90.264C124.704 90.76 125.176 91.12 125.8 91.344C126.44 91.552 127.28 91.656 128.32 91.656C129.488 91.656 130.56 91.456 131.536 91.056V92.592C131.04 92.8 130.48 92.96 129.856 93.072C129.248 93.184 128.608 93.24 127.936 93.24ZM123.832 86.808H130.504V85.872C130.504 84.944 130.256 84.232 129.76 83.736C129.28 83.224 128.48 82.968 127.36 82.968C126 82.968 125.072 83.288 124.576 83.928C124.08 84.568 123.832 85.528 123.832 86.808ZM134.661 93V91.344H136.437V93H134.661Z" fill="white"/>
<g clip-path="url(#clip0_688_60433)">
<path d="M131 105.846V103.392H153.392V81H155.846V105.846H131Z" fill="url(#paint0_linear_688_60433)"/>
<path d="M0 24.8464V0H24.8208V2.45397H2.42841V24.8464H0Z" fill="url(#paint1_linear_688_60433)"/>
</g>
<defs>
<linearGradient id="paint0_linear_688_60433" x1="131.879" y1="105.846" x2="155.879" y2="89.8464" gradientUnits="userSpaceOnUse">
<stop stop-color="#0F4656"/>
<stop offset="1" stop-color="#D89B00"/>
</linearGradient>
<linearGradient id="paint1_linear_688_60433" x1="1" y1="17" x2="28.5" y2="-2" gradientUnits="userSpaceOnUse">
<stop stop-color="#0F4656"/>
<stop offset="1" stop-color="#D89E00"/>
</linearGradient>
<clipPath id="clip0_688_60433">
<rect width="156" height="106" fill="white"/>
</clipPath>
</defs>
</svg>
