<svg width="375" height="205" viewBox="0 0 375 205" fill="none" xmlns="http://www.w3.org/2000/svg">
<path d="M445.79 94.8145C380.549 71.5688 307.784 84.8845 242.034 106.688C176.284 128.484 112.758 158.639 44.2762 169.517C-25.33 180.564 -98.202 170.699 -162.229 141.557C-219.322 115.566 -268.775 75.0516 -326.377 50.1779C-383.979 25.3042 -456.999 19.2133 -505 59.298" stroke="url(#paint0_linear_688_60591)" stroke-miterlimit="10"/>
<path d="M-503.392 59.5414C-466.96 31.3711 -417.252 28.9251 -370.341 40.1754C-354.973 43.8687 -339.883 49.0282 -325.663 55.2324C-297.092 67.6976 -270.342 83.6214 -243.642 99.1563C-216.482 114.959 -189.61 130.396 -160.883 142.246C-131.524 154.371 -100.384 162.535 -68.3835 167.079C-30.7372 172.417 7.83626 172.846 45.4989 167.557C100.606 159.798 152.645 140.359 205.217 121.462C218.017 116.862 230.826 112.294 243.7 107.993C269.916 99.2292 297.142 91.5832 324.58 87.0394C365.985 80.179 408.095 80.3572 447.366 94.41" stroke="url(#paint1_linear_688_60591)" stroke-miterlimit="10"/>
<path d="M-501.792 59.792C-465.089 33.6385 -416.021 32.7476 -369.464 44.7511C-354.202 48.6956 -339.169 54.0251 -324.949 60.3023C-296.37 72.9133 -269.415 88.5859 -242.494 103.303C-215.112 118.279 -188.215 132.364 -159.537 142.95C-130.26 153.795 -99.2687 160.801 -67.2595 164.811C-29.5722 169.508 9.00947 170.229 46.7296 165.621C101.862 158.841 154.072 141.192 206.808 122.709C219.658 118.206 232.491 113.662 245.374 109.321C271.598 100.484 298.741 92.5304 326.115 87.6463C367.404 80.2919 409.645 79.8951 448.949 94.0126" stroke="url(#paint2_linear_688_60591)" stroke-miterlimit="10"/>
<path d="M-500.192 60.0353C-463.219 35.8986 -414.791 36.5628 -368.594 49.3277C-353.447 53.5233 -338.473 59.0229 -324.253 65.3648C-295.657 78.1135 -268.497 93.5351 -241.362 107.442C-213.751 121.592 -186.829 134.316 -158.217 143.647C-129.014 153.221 -98.178 159.06 -66.1606 162.527C-28.4323 166.577 10.1658 167.589 47.9434 163.669C103.108 157.878 155.483 142.003 208.375 123.941C221.274 119.543 234.132 115.007 247.031 110.633C273.271 101.724 300.333 93.4622 327.632 88.2461C368.798 80.3976 411.179 79.4256 450.516 93.6161" stroke="url(#paint3_linear_688_60591)" stroke-miterlimit="10"/>
<path d="M-498.583 60.2782C-461.339 38.1665 -413.551 40.3776 -367.708 53.8958C-352.667 58.3425 -337.758 64.0202 -323.53 70.4189C-294.926 83.3053 -267.561 98.4757 -240.196 111.581C-212.363 124.913 -185.409 136.268 -156.862 144.343C-127.733 152.637 -97.0533 157.319 -65.0359 160.251C-27.2666 163.661 11.3398 164.965 49.1748 161.725C104.364 156.914 156.903 142.829 209.967 125.18C222.915 120.879 235.806 116.368 248.705 111.953C274.962 102.963 301.933 94.3936 329.167 88.8454C370.21 80.5028 412.73 78.9558 452.092 93.211" stroke="url(#paint4_linear_688_60591)" stroke-miterlimit="10"/>
<path d="M-496.984 60.5294C-459.469 40.4345 -412.321 44.2008 -366.83 58.4722C-351.905 63.1699 -337.053 69.0178 -322.825 75.4893C-294.204 88.5134 -266.642 103.433 -239.056 115.728C-210.994 128.234 -184.023 138.237 -155.525 145.048C-126.47 152.062 -95.9542 155.586 -63.9204 157.975C-26.1101 160.737 12.5045 162.333 50.3969 159.781C105.611 155.958 158.322 143.647 211.551 126.411C224.556 122.208 237.463 117.712 250.378 113.258C276.652 104.194 303.533 95.317 330.701 89.4367C371.629 80.592 414.289 78.4781 453.675 92.7981" stroke="url(#paint5_linear_688_60591)" stroke-miterlimit="10"/>
<path d="M-495.383 60.7735C-457.597 42.6953 -411.089 48.0167 -365.959 63.0495C-351.14 67.9983 -336.354 74.0163 -322.118 80.5526C-293.481 93.7144 -265.722 108.383 -237.914 119.868C-209.631 131.547 -182.627 140.19 -154.195 145.746C-125.214 151.489 -94.8537 153.845 -62.8199 155.692C-24.9767 157.814 13.6624 159.701 51.6123 157.83C106.851 154.988 159.735 144.466 213.119 127.643C226.174 123.545 239.105 119.066 252.029 114.571C278.31 105.434 305.117 96.2496 332.212 90.0291C373.017 80.6903 415.816 77.9932 455.235 92.3942" stroke="url(#paint6_linear_688_60591)" stroke-miterlimit="10"/>
<path d="M-493.775 61.0163C-455.718 44.963 -409.85 51.8314 -365.074 67.6174C-350.369 72.8173 -335.641 79.0054 -321.396 85.6146C-292.751 98.9141 -264.787 113.331 -236.75 124.006C-208.236 134.86 -181.216 142.141 -152.833 146.442C-123.926 150.905 -93.7217 152.104 -61.6797 153.416C-23.7954 154.89 14.8519 157.069 52.8593 155.886C108.131 154.032 161.17 145.284 214.727 128.882C227.831 124.881 240.795 120.427 253.719 115.891C280.017 106.673 306.734 97.1889 333.762 90.6363C374.453 80.8035 417.383 77.5313 456.835 91.9971" stroke="url(#paint7_linear_688_60591)" stroke-miterlimit="10"/>
<path d="M-492.175 61.2665C-453.848 47.23 -408.62 55.6535 -364.196 72.1928C-349.607 77.6438 -334.927 84.0019 -320.691 90.676C-292.03 104.113 -263.869 118.287 -235.61 128.144C-206.874 138.18 -179.821 144.101 -151.504 147.138C-122.679 150.329 -92.6308 150.362 -60.5806 151.131C-22.6553 151.965 16.0084 154.436 54.065 153.933C109.361 153.059 162.573 146.101 216.294 130.113C229.447 126.209 242.436 121.77 255.376 117.202C281.69 107.912 308.317 98.1114 335.28 91.2267C375.847 80.8998 418.917 77.0525 458.393 91.5912" stroke="url(#paint8_linear_688_60591)" stroke-miterlimit="10"/>
<path d="M-490.575 61.5089C-451.977 49.4892 -407.389 59.4678 -363.326 76.7604C-348.844 82.4625 -334.23 88.9907 -319.985 95.7376C-291.316 109.312 -262.95 123.236 -234.469 132.283C-205.504 141.492 -178.434 146.052 -150.175 147.834C-121.423 149.745 -91.5313 148.62 -59.4729 148.855C-21.5066 149.041 17.1654 151.811 55.2876 151.989C110.608 152.102 163.992 146.919 217.869 131.351C231.071 127.545 244.085 123.13 257.033 118.522C283.356 109.159 309.909 99.0504 336.798 91.8337C377.242 81.0127 420.451 76.5903 459.96 91.1938" stroke="url(#paint9_linear_688_60591)" stroke-miterlimit="10"/>
<path d="M-488.967 61.7532C-450.098 51.7583 -406.15 63.284 -362.44 81.3379C-348.072 87.2911 -333.516 93.9894 -319.272 100.801C-290.586 114.514 -262.014 128.186 -233.32 136.431C-204.134 144.814 -177.031 148.021 -148.829 148.532C-120.152 149.172 -90.4154 146.879 -58.3487 146.572C-20.3414 146.118 18.3388 149.172 56.5184 150.038C111.872 151.132 165.412 147.738 219.461 132.576C232.712 128.874 245.759 124.468 258.707 119.827C285.046 110.391 311.509 99.975 338.332 92.4262C378.662 81.1111 422.011 76.1137 461.544 90.782" stroke="url(#paint10_linear_688_60591)" stroke-miterlimit="10"/>
<path d="M-487.367 62.0037C-448.228 54.0257 -404.92 67.1064 -361.571 85.9136C-347.31 92.1179 -332.819 98.9863 -318.566 105.871C-289.864 119.729 -261.096 133.142 -232.172 140.577C-202.755 148.142 -175.637 149.924 -147.492 149.236C-119.348 148.547 -89.3078 145.146 -57.2412 144.295C-19.1929 143.194 19.5037 146.547 57.7325 148.094C113.111 150.175 166.823 148.556 221.036 133.814C234.337 130.21 247.408 125.828 260.373 121.147C286.728 111.63 313.1 100.914 339.858 93.025C380.064 81.2159 423.553 75.6434 463.119 90.3846" stroke="url(#paint11_linear_688_60591)" stroke-miterlimit="10"/>
<path d="M-485.767 62.2473C-446.356 56.286 -403.688 70.9219 -360.692 90.4823C-346.546 96.9377 -332.113 103.984 -317.852 110.926C-289.141 124.922 -260.168 138.083 -231.022 144.709C-201.385 151.448 -174.233 151.869 -146.146 149.925C-118.059 147.981 -88.1997 143.397 -56.1166 142.012C-18.0273 140.27 20.6775 143.907 58.972 146.142C114.375 149.204 168.259 149.374 222.628 135.046C235.987 131.539 249.074 127.173 262.047 122.459C288.419 112.869 314.709 101.838 341.393 93.6249C381.476 81.3136 425.104 75.1742 464.695 89.9801" stroke="url(#paint12_linear_688_60591)" stroke-miterlimit="10"/>
<path d="M-484.167 62.4978C-444.485 58.5614 -402.457 74.7444 -359.814 95.0661C-345.775 101.773 -331.407 108.989 -317.146 116.003C-288.419 130.137 -259.249 143.056 -229.882 148.863C-200.014 154.776 -172.846 153.845 -144.817 150.637C-116.369 147.389 -87.1001 141.679 -55.017 139.743C-16.8866 137.354 21.8346 141.29 60.1783 144.206C115.606 148.256 169.654 150.208 224.196 136.293C237.603 132.891 250.715 128.542 263.705 123.787C290.085 114.124 316.293 102.785 342.911 94.2319C382.879 81.4265 426.639 74.712 466.263 89.5908" stroke="url(#paint13_linear_688_60591)" stroke-miterlimit="10"/>
<path d="M-482.559 62.7402C-442.607 60.8206 -401.219 78.5586 -358.936 99.6337C-345.012 106.599 -330.693 113.978 -316.433 121.057C-287.697 135.328 -258.322 147.996 -228.725 152.994C-198.628 158.08 -171.443 155.788 -143.471 151.325C-115.105 146.797 -85.9844 139.929 -53.8932 137.45C-15.7218 134.421 23.0076 138.641 61.4087 142.245C116.869 147.275 171.082 151.009 225.787 137.515C239.244 134.211 252.389 129.877 265.378 125.082C291.775 115.339 317.892 103.7 344.445 94.8144C384.29 81.515 428.189 74.2173 467.846 89.169" stroke="url(#paint14_linear_688_60591)" stroke-miterlimit="10"/>
<path d="M-480.958 62.9844C-440.735 63.0816 -399.987 82.3747 -358.058 104.203C-344.24 111.42 -329.987 118.968 -315.718 126.12C-286.966 140.529 -257.394 152.946 -227.576 157.142C-197.257 161.41 -170.032 157.806 -142.125 152.031C-113.825 146.288 -84.8679 138.197 -52.7767 135.184C-14.5642 131.507 24.1733 136.026 62.6402 140.303C118.125 146.321 172.51 151.836 227.371 138.748C240.877 135.54 254.047 131.231 267.044 126.396C293.457 116.579 319.493 104.632 345.972 95.4069C385.702 81.6133 429.741 73.7406 469.422 88.7572" stroke="url(#paint15_linear_688_60591)" stroke-miterlimit="10"/>
<path d="M-479.358 63.2354C-438.865 65.3574 -398.757 86.1976 -357.18 108.779C-343.477 116.247 -329.282 123.966 -315.013 131.182C-286.245 145.729 -256.467 157.895 -226.436 161.28C-195.887 164.723 -168.645 159.766 -140.796 152.727C-112.57 145.705 -83.7771 136.455 -51.6695 132.9C-13.416 128.583 25.338 133.394 63.8541 138.351C119.363 145.349 173.913 152.646 228.946 139.979C242.502 136.868 255.696 132.584 268.71 127.708C295.131 117.818 321.085 105.556 347.498 96.0061C387.105 81.7185 431.283 73.2707 470.989 88.3602" stroke="url(#paint16_linear_688_60591)" stroke-miterlimit="10"/>
<path d="M-477.75 63.4775C-436.986 67.6164 -397.518 90.0117 -356.302 113.355C-342.714 121.073 -328.576 128.962 -314.299 136.252C-285.523 150.936 -255.54 162.851 -225.279 165.427C-194.508 168.043 -167.234 161.725 -139.45 153.431C-111.298 145.137 -82.6609 134.721 -50.5451 130.631C-12.2506 125.666 26.5117 130.769 65.0852 136.414C120.627 144.4 175.341 153.48 230.538 141.225C244.143 138.22 257.37 133.944 270.384 129.035C296.821 119.073 322.685 106.502 349.032 96.6128C388.517 81.8311 432.834 72.8082 472.572 87.9625" stroke="url(#paint17_linear_688_60591)" stroke-miterlimit="10"/>
<path d="M-476.15 63.7217C-435.107 69.8773 -396.287 93.8277 -355.424 117.924C-341.943 125.894 -327.87 133.953 -313.593 141.307C-284.8 156.129 -254.621 167.801 -224.138 169.559C-193.138 171.349 -165.847 163.678 -138.113 154.121C-110.034 144.547 -81.5532 132.973 -49.4373 128.34C-11.1018 122.735 27.6768 128.129 66.3077 134.455C121.875 143.421 176.76 154.283 232.114 142.449C245.776 139.542 259.019 135.289 272.049 130.34C298.504 120.297 324.285 107.427 350.558 97.2052C389.928 81.9214 434.376 72.3315 474.148 87.5587" stroke="url(#paint18_linear_688_60591)" stroke-miterlimit="10"/>
<path d="M-474.55 63.9727C-433.236 72.1532 -395.056 97.6506 -354.546 122.5C-341.18 130.721 -327.165 138.958 -312.879 146.369C-284.078 161.337 -253.694 172.75 -222.989 173.697C-191.768 174.669 -164.444 165.63 -136.775 154.817C-108.779 143.972 -80.4454 131.231 -48.3213 126.056C-9.94478 119.803 28.8421 125.489 67.5304 132.503C123.122 142.449 178.172 155.101 233.698 143.68C247.409 140.87 260.677 136.634 273.715 131.652C300.186 121.536 325.877 108.35 352.085 97.8045C391.331 82.0266 435.927 71.8616 475.715 87.1536" stroke="url(#paint19_linear_688_60591)" stroke-miterlimit="10"/>
<path d="M-472.942 64.2148C-431.357 74.4122 -393.818 101.465 -353.669 127.075C-340.409 135.548 -326.452 143.955 -312.166 151.439C-283.349 166.545 -252.767 177.706 -221.841 177.843C-190.39 177.989 -163.041 167.589 -135.43 155.521C-107.507 143.396 -79.3384 129.497 -47.2061 123.787C-8.78857 116.894 30.0065 122.872 68.7523 130.566C124.377 141.501 179.59 155.926 235.272 144.919C249.033 142.205 262.334 137.994 275.372 132.972C301.851 122.783 327.46 109.289 353.602 98.403C392.733 82.131 437.461 71.391 477.282 86.7478" stroke="url(#paint20_linear_688_60591)" stroke-miterlimit="10"/>
<path d="M-471.342 64.458C-429.486 76.6721 -392.595 105.28 -352.79 131.644C-339.645 140.367 -325.746 148.944 -311.46 156.493C-282.635 171.737 -251.848 182.647 -220.692 181.982C-189.019 181.302 -161.646 169.55 -134.093 156.218C-106.243 142.821 -78.2304 127.756 -46.0899 121.503C-7.63131 113.962 31.1801 120.232 69.9834 128.615C125.632 140.529 181.019 156.744 236.864 146.15C250.674 143.542 264 139.338 277.054 134.284C303.549 124.014 329.076 110.22 355.145 99.0026C394.153 82.2365 439.02 70.9214 478.874 86.3511" stroke="url(#paint21_linear_688_60591)" stroke-miterlimit="10"/>
<path d="M-469.741 64.709C-427.615 78.948 -391.364 109.103 -351.92 136.22C-338.882 145.194 -325.048 153.942 -310.754 161.563C-281.912 176.944 -250.92 187.603 -219.551 186.129C-187.649 184.631 -160.251 171.51 -132.763 156.922C-104.988 142.246 -77.1304 126.023 -44.99 119.235C-6.49034 111.055 32.3293 117.615 71.19 126.679C126.864 139.581 182.414 157.57 238.432 147.397C252.291 144.886 265.641 140.707 278.704 135.612C305.216 125.269 330.652 111.168 356.655 99.6099C395.54 82.3498 440.547 70.4516 480.433 85.9541" stroke="url(#paint22_linear_688_60591)" stroke-miterlimit="10"/>
<path d="M-468.133 64.9512C-425.736 81.207 -390.125 112.917 -351.034 140.787C-338.111 150.013 -324.334 158.93 -310.04 166.617C-281.182 182.135 -249.993 192.552 -218.403 190.259C-186.279 187.935 -158.856 173.453 -131.417 157.61C-103.716 141.654 -76.0229 124.272 -43.866 116.942C-5.32536 108.114 33.5107 114.966 72.4206 124.718C128.119 138.6 183.841 158.379 240.015 148.62C253.924 146.206 267.298 142.043 280.37 136.908C306.889 126.492 332.244 112.074 358.181 100.192C396.952 82.4381 442.089 69.9648 482 85.5402" stroke="url(#paint23_linear_688_60591)" stroke-miterlimit="10"/>
<path d="M-466.533 65.1953C-423.865 83.4679 -388.894 116.733 -350.156 145.365C-337.34 154.841 -323.628 163.929 -309.326 171.688C-280.46 187.345 -249.066 197.51 -217.246 194.407C-184.892 191.257 -157.445 175.422 -130.072 158.316C-102.444 141.088 -74.9069 122.54 -42.75 114.667C-4.17655 105.199 34.676 112.343 73.6515 122.775C129.382 137.646 185.269 159.199 241.607 149.86C255.565 147.552 268.972 143.405 282.052 138.229C308.588 127.732 333.86 113.015 359.724 100.793C398.371 82.5446 443.657 69.4962 483.592 85.1364" stroke="url(#paint24_linear_688_60591)" stroke-miterlimit="10"/>
<path d="M-464.933 65.4463C-421.994 85.7438 -387.663 120.556 -349.286 149.941C-336.585 159.668 -322.931 168.926 -308.621 176.75C-279.738 192.544 -248.147 202.458 -216.105 198.546C-183.53 194.569 -156.058 177.374 -128.742 159.012C-101.197 140.505 -73.8073 120.807 -41.6422 112.391C-3.02769 102.275 35.833 109.718 74.866 120.831C130.622 136.682 186.672 160.025 243.183 151.091C257.198 148.88 270.622 144.749 283.709 139.541C310.262 128.971 335.444 113.946 361.242 101.392C399.774 82.6416 445.191 69.0263 485.16 84.7313" stroke="url(#paint25_linear_688_60591)" stroke-miterlimit="10"/>
<path d="M-463.325 65.6885C-420.115 88.0027 -386.424 124.37 -348.4 154.508C-310.376 184.655 -263.187 209.739 -214.956 202.684C-149.083 193.046 -104.61 127.942 -40.5262 110.106C53.3023 83.9935 148.386 166.803 244.767 152.321C287.353 145.923 324.359 121.227 362.768 101.983C401.178 82.738 446.734 68.5476 486.735 84.3256" stroke="url(#paint26_linear_688_60591)" stroke-miterlimit="10"/>
<path d="M-462.496 69.917C-418.203 92.5714 -382.609 126.711 -343.239 154.638C-303.878 182.566 -255.597 205.593 -206.25 198.878C-141.223 190.033 -96.8233 127.804 -33.5845 110.245C58.3322 84.7068 151.02 163.321 245.078 147.997C287.574 141.072 324.966 116.7 363.712 98.1196C402.458 79.5393 448.071 66.1345 488.327 81.5399" stroke="url(#paint27_linear_688_60591)" stroke-miterlimit="10"/>
<path d="M-461.659 74.1445C-416.275 97.1311 -378.785 129.06 -338.078 154.767C-297.371 180.475 -248.016 201.429 -197.553 195.071C-133.37 186.987 -89.0447 127.658 -26.6593 110.382C63.3455 85.4272 153.638 159.805 245.382 143.671C287.804 136.211 325.565 112.172 364.639 94.2476C403.721 76.3233 449.392 63.7042 489.91 78.7451" stroke="url(#paint28_linear_688_60591)" stroke-miterlimit="10"/>
<path d="M-460.83 78.3652C-414.363 101.692 -374.969 131.401 -332.916 154.89C-290.864 178.387 -240.434 197.242 -188.855 191.257C-125.525 183.902 -81.2657 127.513 -19.7336 110.52C68.3594 86.1408 156.264 156.259 245.678 139.347C288.026 131.336 326.148 107.645 365.566 90.3849C404.985 73.1248 450.714 61.2913 491.494 75.9596" stroke="url(#paint29_linear_688_60591)" stroke-miterlimit="10"/>
<path d="M-459.993 82.5926C-412.435 106.259 -371.154 133.741 -327.755 155.019C-284.357 176.296 -232.86 193.062 -180.157 187.449C-117.689 180.8 -73.487 127.375 -12.8001 110.658C73.381 86.853 158.897 152.662 245.981 135.013C288.255 126.452 326.747 103.109 366.502 86.5047C406.257 69.9006 452.043 58.8528 493.086 73.1647" stroke="url(#paint30_linear_688_60591)" stroke-miterlimit="10"/>
<path d="M-459.165 86.8214C-410.524 110.828 -367.339 136.091 -322.595 155.157C-277.851 174.224 -225.287 188.876 -171.452 183.652C-109.854 177.674 -65.6925 127.238 -5.86707 110.804C78.4022 87.5828 161.531 149.034 246.292 130.697C288.501 121.568 327.345 98.582 367.437 82.642C407.528 66.7021 453.372 56.44 494.669 70.3793" stroke="url(#paint31_linear_688_60591)" stroke-miterlimit="10"/>
<path d="M-458.328 91.0481C-408.595 115.387 -363.514 138.439 -317.425 155.286C-271.335 172.133 -217.713 184.663 -162.745 179.843C-102.017 174.522 -57.9052 127.099 1.06689 110.949C83.4161 88.3023 164.157 145.372 246.596 126.378C288.739 116.667 327.945 94.0611 368.372 78.7853C408.8 63.5096 454.701 54.025 496.261 67.5999" stroke="url(#paint32_linear_688_60591)" stroke-miterlimit="10"/>
<path d="M-457.499 95.2688C-406.683 119.948 -359.699 140.772 -312.272 155.408C-264.837 170.036 -210.156 180.428 -154.056 176.029C-94.2059 171.332 -50.1348 126.954 7.98388 111.079C88.4212 89.0079 166.774 141.655 246.892 122.046C288.969 111.751 328.535 89.5262 369.291 74.9066C410.056 60.2869 456.014 51.5961 497.837 64.7983" stroke="url(#paint33_linear_688_60591)" stroke-miterlimit="10"/>
<path d="M-456.661 99.4968C-404.754 124.516 -355.883 143.121 -307.102 155.538C-258.321 167.954 -202.59 176.191 -145.349 172.223C-86.3855 168.132 -42.3472 126.817 14.9264 111.225C93.4519 89.7368 169.409 137.905 247.204 117.729C289.224 106.827 329.135 85.0067 370.236 71.0512C411.336 57.0956 457.352 49.1905 499.438 62.0283" stroke="url(#paint34_linear_688_60591)" stroke-miterlimit="10"/>
<path d="M-455.833 103.725C-402.843 129.084 -352.068 145.47 -301.941 155.667C-251.823 165.864 -195.033 171.939 -136.644 168.416C-78.5661 164.909 -34.5525 126.671 21.8595 111.362C98.4731 90.4494 172.034 134.114 247.507 113.404C289.47 101.886 329.734 80.4789 371.162 67.1794C412.591 53.8799 458.673 46.7604 501.013 59.2337" stroke="url(#paint35_linear_688_60591)" stroke-miterlimit="10"/>
<path d="M-454.997 107.953C-400.915 133.645 -348.245 147.811 -296.781 155.797C-245.317 163.783 -187.485 167.679 -127.947 164.609C-70.7557 161.661 -26.7749 126.533 28.7838 111.501C103.486 91.1627 174.643 130.292 247.81 109.079C289.707 96.9296 330.331 75.9518 372.097 63.3084C413.862 50.6731 460.001 44.3392 502.603 56.44" stroke="url(#paint36_linear_688_60591)" stroke-miterlimit="10"/>
<path d="M-454.16 112.172C-398.995 138.204 -344.421 150.151 -291.611 155.918C-238.801 161.685 -179.92 163.386 -119.241 160.794C-62.9354 158.389 -18.9874 126.387 35.726 111.638C108.516 91.8831 177.261 126.42 248.122 104.745C289.961 91.9479 330.931 71.4155 373.041 59.4363C415.143 47.457 461.339 41.9089 504.204 53.6451" stroke="url(#paint37_linear_688_60591)" stroke-miterlimit="10"/>
<path d="M-453.331 116.401C-397.074 142.773 -340.613 152.501 -286.458 156.048C-232.302 159.596 -172.378 159.086 -110.551 156.988C-55.1317 155.109 -11.2165 126.242 42.6436 111.776C113.522 92.5964 179.846 122.516 248.418 100.421C290.192 86.9591 331.522 66.8803 373.96 55.5652C416.399 44.2502 462.652 39.4876 505.78 50.8513" stroke="url(#paint38_linear_688_60591)" stroke-miterlimit="10"/>
<path d="M-452.494 120.628C-395.154 147.34 -336.79 154.841 -281.288 156.177C-225.787 157.514 -164.641 158.097 -101.837 153.172C-47.468 148.912 -3.4133 126.095 49.5852 111.905C118.551 93.3084 182.455 118.563 248.73 96.0865C290.438 81.9447 332.129 62.3438 374.904 51.6929C417.679 41.0339 463.99 37.057 507.38 48.0643" stroke="url(#paint39_linear_688_60591)" stroke-miterlimit="10"/>
<path d="M-451.665 124.856C-393.243 151.9 -332.974 157.189 -276.127 156.307C-219.281 155.424 -157.125 153.796 -93.1392 149.365C-39.632 145.664 4.36527 125.958 56.5187 112.051C123.573 94.0291 185.039 114.594 249.033 91.7693C290.667 76.9229 332.72 57.8241 375.831 47.8293C418.942 37.8344 465.311 34.6432 508.955 45.2779" stroke="url(#paint40_linear_688_60591)" stroke-miterlimit="10"/>
<path d="M-450.828 129.076C-391.315 156.46 -329.151 159.53 -270.966 156.428C-212.774 153.334 -149.609 149.43 -84.4415 145.55C-31.7958 142.424 12.144 125.804 63.444 112.18C128.587 94.7336 187.608 110.568 249.337 87.4359C290.889 71.8605 333.319 53.2882 376.766 43.9494C420.214 34.6107 466.64 32.2132 510.547 42.4753" stroke="url(#paint41_linear_688_60591)" stroke-miterlimit="10"/>
<path d="M-450 133.305C-389.403 161.029 -325.343 161.872 -265.805 156.558C-206.267 151.245 -142.093 145 -75.744 141.744C-23.9516 139.201 19.9226 125.667 70.3692 112.319C133.6 95.4553 190.16 106.519 249.632 83.1116C291.102 66.791 333.901 48.7614 377.685 40.0868C421.469 31.4122 467.953 29.7923 512.122 39.6899" stroke="url(#paint42_linear_688_60591)" stroke-miterlimit="10"/>
<path d="M-449.163 137.533C-387.475 165.597 -321.52 164.221 -260.636 156.688C-199.76 149.155 -134.568 140.513 -67.0299 137.937C-16.0991 135.994 27.7176 125.529 77.3109 112.464C138.63 96.1762 192.711 102.445 249.952 78.7864C291.315 61.6883 334.517 44.2338 378.637 36.2152C422.757 28.2048 469.306 27.3705 513.73 36.9037" stroke="url(#paint43_linear_688_60591)" stroke-miterlimit="10"/>
<path d="M-448.333 141.76C-385.562 170.157 -317.704 166.569 -255.482 156.817C-193.261 147.074 -127.06 135.953 -58.3401 134.131C-8.27088 132.802 35.4966 125.383 84.2366 112.602C143.643 96.8888 195.231 98.3305 250.248 74.4611C291.504 56.5692 335.108 39.6978 379.565 32.3516C424.021 24.9972 470.628 24.9486 515.306 34.1173" stroke="url(#paint44_linear_688_60591)" stroke-miterlimit="10"/>
<path d="M-447.497 145.979C-383.635 174.717 -313.881 168.901 -250.314 156.946C-186.747 144.983 -119.503 128.403 -49.6347 130.323C-0.443428 131.676 43.283 125.245 91.1696 112.739C148.656 97.6089 197.741 94.1828 250.559 70.1352C291.684 51.4091 335.706 35.1695 380.499 28.4792C425.293 21.789 471.957 22.5261 516.897 31.3222" stroke="url(#paint45_linear_688_60591)" stroke-miterlimit="10"/>
<path d="M-446.668 150.208C-381.722 179.286 -310.073 171.251 -245.152 157.077C-180.239 142.902 -111.946 123.925 -40.9366 126.517C7.36842 128.275 51.0621 125.108 98.0953 112.885C153.67 98.3306 200.228 90.0123 250.855 65.819C291.832 46.2342 336.297 30.6507 381.427 24.6166C426.557 18.5824 473.278 20.1132 518.481 28.5367" stroke="url(#paint46_linear_688_60591)" stroke-miterlimit="10"/>
<path d="M-445.831 154.436C-379.794 183.853 -306.249 173.599 -239.991 157.206C-173.732 140.812 -104.389 119.43 -32.2307 122.71C15.1882 124.864 58.849 124.97 105.037 113.023C158.7 99.043 202.706 85.8083 251.167 61.4935C291.972 41.0178 336.905 26.1227 382.363 20.7527C427.829 15.3827 474.607 17.6911 520.073 25.7502" stroke="url(#paint47_linear_688_60591)" stroke-miterlimit="10"/>
<path d="M-445.002 158.655C-377.882 188.405 -302.434 175.931 -234.83 157.327C-167.226 138.714 -96.8236 114.885 -23.5331 118.894C23.0078 121.438 66.6357 124.815 111.962 113.16C163.714 99.7632 205.134 81.5797 251.47 57.1677C292.087 35.7606 337.495 21.5944 383.298 16.8805C429.1 12.1666 475.937 15.2687 521.657 22.9633" stroke="url(#paint48_linear_688_60591)" stroke-miterlimit="10"/>
<path d="M-444.166 162.883C-375.954 192.973 -298.61 178.281 -229.669 157.457C-160.719 136.633 -89.2501 110.325 -14.8355 115.088C30.8356 118.012 74.4143 124.678 118.887 113.298C168.727 100.476 207.547 77.336 251.765 52.8348C292.152 30.4639 338.086 17.0591 384.217 13.0093C430.355 8.95955 477.249 12.8392 523.232 20.1693" stroke="url(#paint49_linear_688_60591)" stroke-miterlimit="10"/>
<path d="M-443.337 167.111C-374.043 197.541 -294.795 180.629 -224.508 157.586C-154.212 134.543 -81.6767 105.733 -6.13804 111.281C38.6551 114.569 82.1929 124.54 125.821 113.436C173.749 101.189 209.934 73.0593 252.077 48.5096C292.201 25.1343 338.685 12.5314 385.16 9.13764C431.635 5.74393 478.587 10.4174 524.832 17.3749" stroke="url(#paint50_linear_688_60591)" stroke-miterlimit="10"/>
<path d="M-442.5 171.34C-372.114 202.11 -290.979 182.971 -219.338 157.716C-147.705 132.462 -74.0863 101.108 2.57659 107.475C46.5082 111.119 89.9885 124.395 132.763 113.582C178.779 101.918 212.306 68.7831 252.389 44.1929C292.21 19.7647 339.292 8.00411 386.104 5.27456C432.916 2.54501 479.924 7.99601 526.433 14.589" stroke="url(#paint51_linear_688_60591)" stroke-miterlimit="10"/>
<path d="M-441.663 175.56C-370.194 206.662 -287.155 185.312 -214.177 157.838C-141.198 130.364 -66.4962 96.4351 11.2743 103.66C54.3444 107.661 97.7754 124.249 139.689 113.711C183.792 102.623 214.62 64.4743 252.685 39.8598C292.161 14.3381 339.883 3.46846 387.023 1.40308C434.171 -0.662309 481.237 5.57434 528 11.8029" stroke="url(#paint52_linear_688_60591)" stroke-miterlimit="10"/>
<defs>
<linearGradient id="paint0_linear_688_60591" x1="-505.121" y1="102.014" x2="446.17" y2="102.014" gradientUnits="userSpaceOnUse">
<stop offset="0.08" stop-color="#0B3A3C"/>
<stop offset="0.58" stop-color="#155B77"/>
<stop offset="0.94" stop-color="#715100"/>
</linearGradient>
<linearGradient id="paint1_linear_688_60591" x1="-503.513" y1="102.485" x2="447.746" y2="102.485" gradientUnits="userSpaceOnUse">
<stop offset="0.08" stop-color="#0B3A3C"/>
<stop offset="0.58" stop-color="#155B77"/>
<stop offset="0.94" stop-color="#715100"/>
</linearGradient>
<linearGradient id="paint2_linear_688_60591" x1="-501.913" y1="102.907" x2="449.329" y2="102.907" gradientUnits="userSpaceOnUse">
<stop offset="0.08" stop-color="#0B3A3C"/>
<stop offset="0.58" stop-color="#155B77"/>
<stop offset="0.94" stop-color="#715100"/>
</linearGradient>
<linearGradient id="paint3_linear_688_60591" x1="-500.314" y1="103.247" x2="450.896" y2="103.247" gradientUnits="userSpaceOnUse">
<stop offset="0.08" stop-color="#0B3A3C"/>
<stop offset="0.58" stop-color="#155B77"/>
<stop offset="0.94" stop-color="#715100"/>
</linearGradient>
<linearGradient id="paint4_linear_688_60591" x1="-498.705" y1="103.524" x2="452.472" y2="103.524" gradientUnits="userSpaceOnUse">
<stop offset="0.08" stop-color="#0B3A3C"/>
<stop offset="0.58" stop-color="#155B77"/>
<stop offset="0.94" stop-color="#715100"/>
</linearGradient>
<linearGradient id="paint5_linear_688_60591" x1="-497.105" y1="103.73" x2="454.055" y2="103.73" gradientUnits="userSpaceOnUse">
<stop offset="0.08" stop-color="#0B3A3C"/>
<stop offset="0.58" stop-color="#155B77"/>
<stop offset="0.94" stop-color="#715100"/>
</linearGradient>
<linearGradient id="paint6_linear_688_60591" x1="-495.504" y1="103.865" x2="455.615" y2="103.865" gradientUnits="userSpaceOnUse">
<stop offset="0.08" stop-color="#0B3A3C"/>
<stop offset="0.58" stop-color="#155B77"/>
<stop offset="0.94" stop-color="#715100"/>
</linearGradient>
<linearGradient id="paint7_linear_688_60591" x1="-493.896" y1="103.946" x2="457.215" y2="103.946" gradientUnits="userSpaceOnUse">
<stop offset="0.08" stop-color="#0B3A3C"/>
<stop offset="0.58" stop-color="#155B77"/>
<stop offset="0.94" stop-color="#715100"/>
</linearGradient>
<linearGradient id="paint8_linear_688_60591" x1="-492.297" y1="103.992" x2="458.773" y2="103.992" gradientUnits="userSpaceOnUse">
<stop offset="0.08" stop-color="#0B3A3C"/>
<stop offset="0.58" stop-color="#155B77"/>
<stop offset="0.94" stop-color="#715100"/>
</linearGradient>
<linearGradient id="paint9_linear_688_60591" x1="-490.696" y1="104.025" x2="460.34" y2="104.025" gradientUnits="userSpaceOnUse">
<stop offset="0.08" stop-color="#0B3A3C"/>
<stop offset="0.58" stop-color="#155B77"/>
<stop offset="0.94" stop-color="#715100"/>
</linearGradient>
<linearGradient id="paint10_linear_688_60591" x1="-489.088" y1="104.057" x2="461.924" y2="104.057" gradientUnits="userSpaceOnUse">
<stop offset="0.08" stop-color="#0B3A3C"/>
<stop offset="0.58" stop-color="#155B77"/>
<stop offset="0.94" stop-color="#715100"/>
</linearGradient>
<linearGradient id="paint11_linear_688_60591" x1="-487.488" y1="104.414" x2="463.499" y2="104.414" gradientUnits="userSpaceOnUse">
<stop offset="0.08" stop-color="#0B3A3C"/>
<stop offset="0.58" stop-color="#155B77"/>
<stop offset="0.94" stop-color="#715100"/>
</linearGradient>
<linearGradient id="paint12_linear_688_60591" x1="-485.888" y1="105.836" x2="465.075" y2="105.836" gradientUnits="userSpaceOnUse">
<stop offset="0.08" stop-color="#0B3A3C"/>
<stop offset="0.58" stop-color="#155B77"/>
<stop offset="0.94" stop-color="#715100"/>
</linearGradient>
<linearGradient id="paint13_linear_688_60591" x1="-484.288" y1="107.458" x2="466.642" y2="107.458" gradientUnits="userSpaceOnUse">
<stop offset="0.08" stop-color="#0B3A3C"/>
<stop offset="0.58" stop-color="#155B77"/>
<stop offset="0.94" stop-color="#715100"/>
</linearGradient>
<linearGradient id="paint14_linear_688_60591" x1="-482.68" y1="109.158" x2="468.225" y2="109.158" gradientUnits="userSpaceOnUse">
<stop offset="0.08" stop-color="#0B3A3C"/>
<stop offset="0.58" stop-color="#155B77"/>
<stop offset="0.94" stop-color="#715100"/>
</linearGradient>
<linearGradient id="paint15_linear_688_60591" x1="-481.079" y1="110.91" x2="469.802" y2="110.91" gradientUnits="userSpaceOnUse">
<stop offset="0.08" stop-color="#0B3A3C"/>
<stop offset="0.58" stop-color="#155B77"/>
<stop offset="0.94" stop-color="#715100"/>
</linearGradient>
<linearGradient id="paint16_linear_688_60591" x1="-479.48" y1="112.727" x2="471.368" y2="112.727" gradientUnits="userSpaceOnUse">
<stop offset="0.08" stop-color="#0B3A3C"/>
<stop offset="0.58" stop-color="#155B77"/>
<stop offset="0.94" stop-color="#715100"/>
</linearGradient>
<linearGradient id="paint17_linear_688_60591" x1="-477.871" y1="114.658" x2="472.952" y2="114.658" gradientUnits="userSpaceOnUse">
<stop offset="0.08" stop-color="#0B3A3C"/>
<stop offset="0.58" stop-color="#155B77"/>
<stop offset="0.94" stop-color="#715100"/>
</linearGradient>
<linearGradient id="paint18_linear_688_60591" x1="-476.271" y1="116.674" x2="474.528" y2="116.674" gradientUnits="userSpaceOnUse">
<stop offset="0.08" stop-color="#0B3A3C"/>
<stop offset="0.58" stop-color="#155B77"/>
<stop offset="0.94" stop-color="#715100"/>
</linearGradient>
<linearGradient id="paint19_linear_688_60591" x1="-474.671" y1="118.77" x2="476.095" y2="118.77" gradientUnits="userSpaceOnUse">
<stop offset="0.08" stop-color="#0B3A3C"/>
<stop offset="0.58" stop-color="#155B77"/>
<stop offset="0.94" stop-color="#715100"/>
</linearGradient>
<linearGradient id="paint20_linear_688_60591" x1="-473.063" y1="120.926" x2="477.661" y2="120.926" gradientUnits="userSpaceOnUse">
<stop offset="0.08" stop-color="#0B3A3C"/>
<stop offset="0.58" stop-color="#155B77"/>
<stop offset="0.94" stop-color="#715100"/>
</linearGradient>
<linearGradient id="paint21_linear_688_60591" x1="-471.463" y1="123.127" x2="479.254" y2="123.127" gradientUnits="userSpaceOnUse">
<stop offset="0.08" stop-color="#0B3A3C"/>
<stop offset="0.58" stop-color="#155B77"/>
<stop offset="0.94" stop-color="#715100"/>
</linearGradient>
<linearGradient id="paint22_linear_688_60591" x1="-469.863" y1="125.376" x2="480.813" y2="125.376" gradientUnits="userSpaceOnUse">
<stop offset="0.08" stop-color="#0B3A3C"/>
<stop offset="0.58" stop-color="#155B77"/>
<stop offset="0.94" stop-color="#715100"/>
</linearGradient>
<linearGradient id="paint23_linear_688_60591" x1="-468.254" y1="127.648" x2="482.38" y2="127.648" gradientUnits="userSpaceOnUse">
<stop offset="0.08" stop-color="#0B3A3C"/>
<stop offset="0.58" stop-color="#155B77"/>
<stop offset="0.94" stop-color="#715100"/>
</linearGradient>
<linearGradient id="paint24_linear_688_60591" x1="-466.654" y1="129.961" x2="483.972" y2="129.961" gradientUnits="userSpaceOnUse">
<stop offset="0.08" stop-color="#0B3A3C"/>
<stop offset="0.58" stop-color="#155B77"/>
<stop offset="0.94" stop-color="#715100"/>
</linearGradient>
<linearGradient id="paint25_linear_688_60591" x1="-465.054" y1="132.301" x2="485.539" y2="132.301" gradientUnits="userSpaceOnUse">
<stop offset="0.08" stop-color="#0B3A3C"/>
<stop offset="0.58" stop-color="#155B77"/>
<stop offset="0.94" stop-color="#715100"/>
</linearGradient>
<linearGradient id="paint26_linear_688_60591" x1="-463.446" y1="134.66" x2="487.115" y2="134.66" gradientUnits="userSpaceOnUse">
<stop offset="0.08" stop-color="#0B3A3C"/>
<stop offset="0.58" stop-color="#155B77"/>
<stop offset="0.94" stop-color="#715100"/>
</linearGradient>
<linearGradient id="paint27_linear_688_60591" x1="-462.617" y1="134.866" x2="488.707" y2="134.866" gradientUnits="userSpaceOnUse">
<stop offset="0.08" stop-color="#0B3A3C"/>
<stop offset="0.58" stop-color="#155B77"/>
<stop offset="0.94" stop-color="#715100"/>
</linearGradient>
<linearGradient id="paint28_linear_688_60591" x1="-461.781" y1="134.029" x2="490.291" y2="134.029" gradientUnits="userSpaceOnUse">
<stop offset="0.08" stop-color="#0B3A3C"/>
<stop offset="0.58" stop-color="#155B77"/>
<stop offset="0.94" stop-color="#715100"/>
</linearGradient>
<linearGradient id="paint29_linear_688_60591" x1="-460.952" y1="130.74" x2="491.875" y2="130.74" gradientUnits="userSpaceOnUse">
<stop offset="0.08" stop-color="#0B3A3C"/>
<stop offset="0.58" stop-color="#155B77"/>
<stop offset="0.94" stop-color="#715100"/>
</linearGradient>
<linearGradient id="paint30_linear_688_60591" x1="-460.115" y1="127.443" x2="493.467" y2="127.443" gradientUnits="userSpaceOnUse">
<stop offset="0.08" stop-color="#0B3A3C"/>
<stop offset="0.58" stop-color="#155B77"/>
<stop offset="0.94" stop-color="#715100"/>
</linearGradient>
<linearGradient id="paint31_linear_688_60591" x1="-459.287" y1="124.159" x2="495.05" y2="124.159" gradientUnits="userSpaceOnUse">
<stop offset="0.08" stop-color="#0B3A3C"/>
<stop offset="0.58" stop-color="#155B77"/>
<stop offset="0.94" stop-color="#715100"/>
</linearGradient>
<linearGradient id="paint32_linear_688_60591" x1="-458.449" y1="120.869" x2="496.643" y2="120.869" gradientUnits="userSpaceOnUse">
<stop offset="0.08" stop-color="#0B3A3C"/>
<stop offset="0.58" stop-color="#155B77"/>
<stop offset="0.94" stop-color="#715100"/>
</linearGradient>
<linearGradient id="paint33_linear_688_60591" x1="-457.621" y1="117.564" x2="498.219" y2="117.564" gradientUnits="userSpaceOnUse">
<stop offset="0.08" stop-color="#0B3A3C"/>
<stop offset="0.58" stop-color="#155B77"/>
<stop offset="0.94" stop-color="#715100"/>
</linearGradient>
<linearGradient id="paint34_linear_688_60591" x1="-456.783" y1="114.277" x2="499.82" y2="114.277" gradientUnits="userSpaceOnUse">
<stop offset="0.08" stop-color="#0B3A3C"/>
<stop offset="0.58" stop-color="#155B77"/>
<stop offset="0.94" stop-color="#715100"/>
</linearGradient>
<linearGradient id="paint35_linear_688_60591" x1="-455.955" y1="110.982" x2="501.395" y2="110.982" gradientUnits="userSpaceOnUse">
<stop offset="0.08" stop-color="#0B3A3C"/>
<stop offset="0.58" stop-color="#155B77"/>
<stop offset="0.94" stop-color="#715100"/>
</linearGradient>
<linearGradient id="paint36_linear_688_60591" x1="-455.119" y1="107.705" x2="502.986" y2="107.705" gradientUnits="userSpaceOnUse">
<stop offset="0.08" stop-color="#0B3A3C"/>
<stop offset="0.58" stop-color="#155B77"/>
<stop offset="0.94" stop-color="#715100"/>
</linearGradient>
<linearGradient id="paint37_linear_688_60591" x1="-454.282" y1="104.46" x2="504.587" y2="104.46" gradientUnits="userSpaceOnUse">
<stop offset="0.08" stop-color="#0B3A3C"/>
<stop offset="0.58" stop-color="#155B77"/>
<stop offset="0.94" stop-color="#715100"/>
</linearGradient>
<linearGradient id="paint38_linear_688_60591" x1="-453.453" y1="101.386" x2="506.163" y2="101.386" gradientUnits="userSpaceOnUse">
<stop offset="0.08" stop-color="#0B3A3C"/>
<stop offset="0.58" stop-color="#155B77"/>
<stop offset="0.94" stop-color="#715100"/>
</linearGradient>
<linearGradient id="paint39_linear_688_60591" x1="-452.616" y1="99.2063" x2="507.763" y2="99.2063" gradientUnits="userSpaceOnUse">
<stop offset="0.08" stop-color="#0B3A3C"/>
<stop offset="0.58" stop-color="#155B77"/>
<stop offset="0.94" stop-color="#715100"/>
</linearGradient>
<linearGradient id="paint40_linear_688_60591" x1="-451.788" y1="97.4255" x2="509.339" y2="97.4255" gradientUnits="userSpaceOnUse">
<stop offset="0.08" stop-color="#0B3A3C"/>
<stop offset="0.58" stop-color="#155B77"/>
<stop offset="0.94" stop-color="#715100"/>
</linearGradient>
<linearGradient id="paint41_linear_688_60591" x1="-450.951" y1="96.4864" x2="510.931" y2="96.4864" gradientUnits="userSpaceOnUse">
<stop offset="0.08" stop-color="#0B3A3C"/>
<stop offset="0.58" stop-color="#155B77"/>
<stop offset="0.94" stop-color="#715100"/>
</linearGradient>
<linearGradient id="paint42_linear_688_60591" x1="-450.122" y1="95.8975" x2="512.507" y2="95.8975" gradientUnits="userSpaceOnUse">
<stop offset="0.08" stop-color="#0B3A3C"/>
<stop offset="0.58" stop-color="#155B77"/>
<stop offset="0.94" stop-color="#715100"/>
</linearGradient>
<linearGradient id="paint43_linear_688_60591" x1="-449.285" y1="95.5421" x2="514.115" y2="95.5421" gradientUnits="userSpaceOnUse">
<stop offset="0.08" stop-color="#0B3A3C"/>
<stop offset="0.58" stop-color="#155B77"/>
<stop offset="0.94" stop-color="#715100"/>
</linearGradient>
<linearGradient id="paint44_linear_688_60591" x1="-448.456" y1="95.3505" x2="515.691" y2="95.3505" gradientUnits="userSpaceOnUse">
<stop offset="0.08" stop-color="#0B3A3C"/>
<stop offset="0.58" stop-color="#155B77"/>
<stop offset="0.94" stop-color="#715100"/>
</linearGradient>
<linearGradient id="paint45_linear_688_60591" x1="-447.62" y1="95.2696" x2="517.283" y2="95.2696" gradientUnits="userSpaceOnUse">
<stop offset="0.08" stop-color="#0B3A3C"/>
<stop offset="0.58" stop-color="#155B77"/>
<stop offset="0.94" stop-color="#715100"/>
</linearGradient>
<linearGradient id="paint46_linear_688_60591" x1="-446.791" y1="95.2777" x2="518.867" y2="95.2777" gradientUnits="userSpaceOnUse">
<stop offset="0.08" stop-color="#0B3A3C"/>
<stop offset="0.58" stop-color="#155B77"/>
<stop offset="0.94" stop-color="#715100"/>
</linearGradient>
<linearGradient id="paint47_linear_688_60591" x1="-445.954" y1="95.3382" x2="520.459" y2="95.3382" gradientUnits="userSpaceOnUse">
<stop offset="0.08" stop-color="#0B3A3C"/>
<stop offset="0.58" stop-color="#155B77"/>
<stop offset="0.94" stop-color="#715100"/>
</linearGradient>
<linearGradient id="paint48_linear_688_60591" x1="-445.126" y1="95.4178" x2="522.043" y2="95.4178" gradientUnits="userSpaceOnUse">
<stop offset="0.08" stop-color="#0B3A3C"/>
<stop offset="0.58" stop-color="#155B77"/>
<stop offset="0.94" stop-color="#715100"/>
</linearGradient>
<linearGradient id="paint49_linear_688_60591" x1="-444.289" y1="95.5202" x2="523.619" y2="95.5202" gradientUnits="userSpaceOnUse">
<stop offset="0.08" stop-color="#0B3A3C"/>
<stop offset="0.58" stop-color="#155B77"/>
<stop offset="0.94" stop-color="#715100"/>
</linearGradient>
<linearGradient id="paint50_linear_688_60591" x1="-443.46" y1="95.6216" x2="525.219" y2="95.6216" gradientUnits="userSpaceOnUse">
<stop offset="0.08" stop-color="#0B3A3C"/>
<stop offset="0.58" stop-color="#155B77"/>
<stop offset="0.94" stop-color="#715100"/>
</linearGradient>
<linearGradient id="paint51_linear_688_60591" x1="-442.623" y1="95.7183" x2="526.82" y2="95.7183" gradientUnits="userSpaceOnUse">
<stop offset="0.08" stop-color="#0B3A3C"/>
<stop offset="0.58" stop-color="#155B77"/>
<stop offset="0.94" stop-color="#715100"/>
</linearGradient>
<linearGradient id="paint52_linear_688_60591" x1="-441.786" y1="95.79" x2="528.387" y2="95.79" gradientUnits="userSpaceOnUse">
<stop offset="0.08" stop-color="#0B3A3C"/>
<stop offset="0.58" stop-color="#155B77"/>
<stop offset="0.94" stop-color="#715100"/>
</linearGradient>
</defs>
</svg>
