<svg width="67" height="67" viewBox="0 0 67 67" fill="none" xmlns="http://www.w3.org/2000/svg">
<rect x="1.02259" y="10.556" width="56.0706" height="56.0706" rx="11.5" transform="rotate(-10 1.02259 10.556)" fill="white"/>
<path d="M46.8332 39.9635L46.8332 34.6302C46.8332 27.2664 40.8636 21.2969 33.4998 21.2969C26.136 21.2969 20.1665 27.2664 20.1665 34.6302L20.1665 39.9635M27.4998 45.2969C25.6589 45.2969 24.1665 43.8045 24.1665 41.9635L24.1665 37.9635C24.1665 36.1226 25.6589 34.6302 27.4998 34.6302C29.3408 34.6302 30.8332 36.1226 30.8332 37.9635L30.8332 41.9635C30.8332 43.8045 29.3408 45.2969 27.4998 45.2969ZM39.4998 45.2969C37.6589 45.2969 36.1665 43.8045 36.1665 41.9635L36.1665 37.9635C36.1665 36.1226 37.6589 34.6302 39.4998 34.6302C41.3408 34.6302 42.8332 36.1226 42.8332 37.9635L42.8332 41.9635C42.8332 43.8045 41.3408 45.2969 39.4998 45.2969Z" stroke="#061F20" stroke-width="2" stroke-linecap="round" stroke-linejoin="round"/>
<rect x="1.02259" y="10.556" width="56.0706" height="56.0706" rx="11.5" transform="rotate(-10 1.02259 10.556)" stroke="#E5E7EB"/>
</svg>
