<svg width="24" height="25" viewBox="0 0 24 25" fill="none" xmlns="http://www.w3.org/2000/svg">
<path d="M22.2234 0.353516H1.77187C0.792187 0.353516 0 1.12695 0 2.0832V22.6191C0 23.5754 0.792187 24.3535 1.77187 24.3535H22.2234C23.2031 24.3535 24 23.5754 24 22.6238V2.0832C24 1.12695 23.2031 0.353516 22.2234 0.353516ZM7.12031 20.8051H3.55781V9.34883H7.12031V20.8051ZM5.33906 7.78789C4.19531 7.78789 3.27187 6.86445 3.27187 5.72539C3.27187 4.58633 4.19531 3.66289 5.33906 3.66289C6.47812 3.66289 7.40156 4.58633 7.40156 5.72539C7.40156 6.85977 6.47812 7.78789 5.33906 7.78789ZM20.4516 20.8051H16.8937V15.2363C16.8937 13.9098 16.8703 12.1988 15.0422 12.1988C13.1906 12.1988 12.9094 13.6473 12.9094 15.1426V20.8051H9.35625V9.34883H12.7687V10.9145H12.8156C13.2891 10.0145 14.4516 9.06289 16.1813 9.06289C19.7859 9.06289 20.4516 11.4348 20.4516 14.5191V20.8051Z" fill="#FFFDF7"/>
</svg>
