<svg width="134" height="27" viewBox="0 0 134 27" fill="none" xmlns="http://www.w3.org/2000/svg">
<g clip-path="url(#clip0_748_4723)">
<path d="M69.3797 14.1366C69.4014 14.2229 69.4448 14.2876 69.4666 14.3738H74.3346C74.4432 14.3738 74.5519 14.2444 74.6605 14.1797C74.5301 14.0719 74.3998 13.9209 74.2259 13.8778C72.9872 13.5542 72.835 13.4248 72.835 12.217C72.8133 9.02492 72.8133 5.83282 72.835 2.64073C72.835 1.47604 73.1393 1.06625 74.1824 1.00154C74.3128 1.00154 74.4432 0.807431 74.5953 0.721158C74.4215 0.656453 74.2694 0.527044 74.0955 0.527044C72.7047 0.505476 71.3355 0.505476 69.9447 0.527044C69.7708 0.527044 69.597 0.678021 69.4231 0.764294C69.5752 0.850567 69.7056 0.979976 69.8795 1.02311C70.9226 1.28193 71.053 1.38977 71.0748 2.44661C71.1182 3.676 71.0748 4.90539 71.0965 6.13478C71.0965 6.56614 70.9009 6.73869 70.4663 6.73869C68.1627 6.73869 65.8591 6.73869 63.5772 6.73869C63.1208 6.73869 62.9687 6.54457 62.9687 6.11321C62.9904 4.86225 62.947 3.6113 62.9904 2.36034C63.0122 1.41134 63.2077 1.23879 64.1205 1.02311C64.3161 0.979976 64.4899 0.850567 64.6855 0.742726C64.6638 0.656453 64.6421 0.57018 64.5986 0.483908H60.1001C59.9479 0.483908 59.7958 0.462339 59.6654 0.505476C59.535 0.548612 59.4481 0.678021 59.2743 0.807431C59.4916 0.893703 59.5785 0.958408 59.6654 0.958408C60.9911 1.02311 61.1649 1.41134 61.2301 2.77014C61.2953 4.1505 61.2519 5.5093 61.2519 6.88966C61.2519 8.72296 61.2301 10.5778 61.2301 12.4111C61.2301 13.1876 60.9259 13.7268 60.0566 13.8131C59.8827 13.8346 59.7524 14.0287 59.5785 14.1581L59.6654 14.2876H64.9028L64.968 14.0719C64.729 13.9856 64.4899 13.8562 64.2509 13.8346C63.2512 13.6621 63.0339 13.468 62.9904 12.4543C62.947 11.0523 62.9904 9.65039 62.9687 8.27003C62.9687 7.79553 63.1426 7.57985 63.6207 7.60141H70.4445C70.9009 7.60141 71.1182 7.79553 71.1182 8.27003C71.0965 9.67196 71.1182 11.0739 71.0965 12.4543C71.0748 13.4464 70.9009 13.5974 69.923 13.8346C69.7274 13.8562 69.5752 14.0287 69.3797 14.1366ZM33.0219 14.266C32.7829 14.0503 32.7394 13.964 32.6742 13.964C31.3486 13.6621 31.3051 13.5974 31.3051 12.2601C31.3051 10.621 31.3051 8.96021 31.3051 7.32103C31.3051 6.37203 31.3051 5.40146 31.3051 4.45246C31.3051 3.74071 31.479 3.11523 32.3917 3.09366C32.5221 3.09366 32.6525 2.96425 32.8046 2.89955C32.8046 2.83484 32.7829 2.77014 32.7829 2.70543C32.044 2.70543 31.3051 2.6623 30.5879 2.727C29.8708 2.79171 29.0884 2.44661 28.2409 2.89955C28.5017 3.00739 28.6103 3.07209 28.7407 3.09366C29.7404 3.33091 29.8491 3.43875 29.8491 4.47402V7.3426C29.8491 7.75239 29.6752 7.92494 29.284 7.92494C27.3716 7.92494 25.4809 7.92494 23.5685 7.92494C23.1339 7.92494 22.96 7.73082 22.96 7.29946C22.9817 6.28575 22.96 5.29362 22.9817 4.27991C22.9817 3.6113 23.2208 3.1368 24.0031 3.09366C24.1553 3.09366 24.3074 2.96425 24.4812 2.89955C24.4595 2.85641 24.4595 2.81327 24.4378 2.74857H19.9827C20.1131 2.98582 20.2652 3.07209 20.4173 3.09366C21.2432 3.11523 21.4822 3.63287 21.4822 4.30148C21.5039 7.12691 21.4822 9.95235 21.4822 12.7562C21.4822 13.3817 21.178 13.7699 20.5477 13.8993C20.3956 13.9425 20.2652 14.0719 20.1131 14.1581L20.1783 14.266H24.5899L24.6334 14.0719C24.4812 14.0287 24.3508 13.9425 24.1987 13.9209C23.2208 13.7484 23.0252 13.5758 23.0035 12.5837C22.9817 11.4837 23.0035 10.3837 22.9817 9.26217C22.9817 8.78767 23.1773 8.59355 23.6337 8.59355H29.2623C29.6317 8.59355 29.8491 8.74453 29.8491 9.17589C29.8273 10.4053 29.8491 11.6347 29.8491 12.8641C29.8491 13.4033 29.61 13.7484 29.045 13.8562C28.8059 13.8993 28.5886 13.9856 28.3495 14.0719C28.3713 14.1366 28.3713 14.2013 28.393 14.266H33.0219ZM44.127 11.57C43.9314 11.3758 43.7358 11.2249 43.5837 11.0523C41.6278 8.87394 39.6719 6.69555 37.7378 4.49559C37.2162 3.91325 36.8902 3.02896 36.26 2.727C35.6298 2.42505 34.717 2.64073 33.9347 2.64073C33.8043 2.64073 33.6522 2.727 33.3696 2.81327C33.6522 2.96425 33.7608 3.05052 33.8912 3.09366C35.2169 3.43875 35.3907 3.676 35.3907 5.0348V9.73667C35.3907 10.7072 35.369 11.6994 35.3255 12.6699C35.3038 13.3817 35.043 13.8993 34.2172 13.9209C34.0868 13.9209 33.9564 14.0719 33.6739 14.2444H37.8899C37.8247 14.0503 37.7378 13.9425 37.6291 13.9209C36.3035 13.6621 36.26 13.6621 36.2165 12.3464C36.1513 10.2327 36.1296 8.14062 36.0862 6.02694C36.0862 5.70341 36.1513 5.35832 36.1948 4.84068L44.8007 14.6111C44.9746 14.266 45.018 13.9856 45.018 13.7052C45.018 10.8151 45.018 7.92494 45.0398 5.0348C45.0398 4.04266 45.1049 3.07209 46.4741 3.00739C46.5175 3.00739 46.561 2.92111 46.7349 2.727H42.5188C42.6275 2.96425 42.8014 3.09366 42.9535 3.09366C43.8445 3.09366 44.1705 3.58973 44.1705 4.40932V11.57H44.127ZM107.519 14.3091C107.541 14.2229 107.563 14.1581 107.585 14.0719C107.432 14.0072 107.259 13.9856 107.128 13.8993C106.715 13.6836 106.237 13.5542 105.933 13.2307C104.368 11.57 102.869 9.84451 101.326 8.14062C101.022 7.79553 101 7.53671 101.369 7.21319C102.086 6.56614 102.76 5.89753 103.477 5.25048C104.542 4.25834 105.607 3.26621 107.15 3.02896C107.193 3.02896 107.237 2.94268 107.389 2.74857H103.412C103.39 2.81327 103.369 2.87798 103.369 2.92111C103.651 3.05052 103.934 3.17993 104.216 3.33091C103.629 4.47402 100.022 7.8818 99.2395 7.98964C99.196 7.73082 99.1526 7.472 99.1526 7.21319C99.1308 6.43673 99.1308 5.63871 99.1526 4.86225C99.1743 3.46032 99.1743 3.46032 100.478 3.02896C100.543 3.00739 100.565 2.94268 100.739 2.77014H96.2187C96.2187 2.83484 96.197 2.89955 96.197 2.96425C96.3709 3.02896 96.5447 3.11523 96.7186 3.1368C97.4575 3.15836 97.7182 3.6113 97.7182 4.25834V12.8641C97.7182 13.468 97.4357 13.8346 96.8272 13.9425C96.6534 13.964 96.523 14.0934 96.3491 14.1581C96.3709 14.2013 96.3926 14.2444 96.4143 14.2876H100.652C100.652 14.2229 100.674 14.1366 100.674 14.0719C100.478 14.0287 100.283 13.964 100.109 13.9425C99.5003 13.8778 99.1526 13.5542 99.1308 12.9503C99.1091 11.6778 99.1091 10.4053 99.1091 9.13276C99.1091 8.59355 99.4133 8.48571 99.848 8.7661C100.022 8.87394 100.174 9.00335 100.304 9.15433C101.521 10.5131 102.738 11.8719 103.955 13.2307C104.086 13.3817 104.194 13.5758 104.303 13.7484C103.955 13.9209 103.673 14.0503 103.412 14.1797C103.434 14.2444 103.477 14.2876 103.499 14.3523H107.519V14.3091ZM116.408 5.05637C116.473 5.05637 116.538 5.05637 116.603 5.0348C119.429 8.24846 122.232 11.4406 125.144 14.7405C125.231 14.4601 125.296 14.3091 125.296 14.1581C125.296 13.3601 125.253 12.5405 125.253 11.7425C125.274 9.28373 125.318 6.84653 125.34 4.38775C125.34 3.676 125.6 3.2015 126.383 3.1368C126.557 3.11523 126.687 3.00739 126.861 2.92111L126.817 2.74857H122.732C122.84 2.98582 122.993 3.11523 123.123 3.11523C124.101 3.09366 124.427 3.676 124.449 4.51716C124.47 6.82496 124.492 9.13276 124.492 11.419C124.492 11.4406 124.427 11.4837 124.383 11.5053C124.318 11.4621 124.253 11.4406 124.21 11.3974C121.971 8.87394 119.646 6.41516 117.538 3.80541C116.821 2.92111 116.212 2.53289 115.147 2.68386C114.713 2.74857 114.278 2.68386 113.822 2.68386C113.822 2.74857 113.8 2.83484 113.778 2.89955C113.93 2.96425 114.082 3.07209 114.256 3.11523C115.343 3.37405 115.625 3.58973 115.647 4.68971C115.669 7.42887 115.604 10.1896 115.56 12.9288C115.56 13.5327 115.213 13.8562 114.604 13.9209C114.43 13.9425 114.256 14.0719 114.104 14.1366C114.126 14.1797 114.148 14.2013 114.169 14.2444H118.212C118.212 14.1797 118.233 14.0934 118.233 14.0287C117.994 13.9856 117.733 13.9856 117.538 13.8778C117.212 13.7052 116.669 13.468 116.625 13.2091C116.19 10.5131 116.364 7.79553 116.408 5.05637ZM1.9451 0.634885C1.9451 0.721158 1.96683 0.807431 1.96683 0.893703C2.22762 0.93684 2.4884 1.02311 2.72745 1.04468C3.50981 1.08782 3.87925 1.54075 3.94445 2.2525C3.96618 2.51132 3.98791 2.79171 3.98791 3.05052C3.98791 6.22105 4.00964 9.37001 3.96618 12.5405C3.94445 13.7699 3.83579 14.9777 3.6402 16.1856C3.46634 17.3071 2.96651 17.5659 1.85817 17.3071C1.59739 17.2424 1.3366 17.1777 1.05409 17.1561C0.489053 17.1346 0.25 17.5659 0.25 18.062C0.25 18.213 0.728105 18.4934 0.98889 18.4934C2.4884 18.6012 3.6402 17.911 4.55295 16.7679C5.50916 15.5601 5.70474 14.1366 5.70474 12.6699C5.74821 9.3053 5.72648 5.94066 5.74821 2.59759C5.74821 1.51918 5.9438 1.3035 6.92174 1.04468C7.0956 1.00154 7.22599 0.828999 7.37811 0.69959C7.20426 0.634885 7.05213 0.527044 6.87828 0.527044C5.44396 0.505476 4.00964 0.505476 2.57533 0.527044C2.37974 0.505476 2.16242 0.591749 1.9451 0.634885ZM91.9158 14.2876L91.9593 14.0719C91.7854 14.0287 91.6333 13.964 91.4594 13.9425C90.4815 13.7915 90.3076 13.6405 90.2424 12.6268C90.199 11.9582 90.199 11.3111 90.199 10.6425C90.199 8.44257 90.199 6.22105 90.199 4.02109C90.199 3.63286 90.2207 3.28777 90.7205 3.2015C92.4374 2.87798 93.9803 4.04266 94.0673 5.78969C94.1542 7.45044 93.4805 8.39944 91.8723 8.91707C91.6985 8.96021 91.5463 9.06805 91.3942 9.13276C91.4159 9.21903 91.4377 9.3053 91.4811 9.37001C92.0462 9.26217 92.6329 9.21903 93.1762 9.06805C94.8713 8.59355 95.7406 7.49357 95.6972 5.89753C95.6537 4.36618 94.7627 3.1368 93.0459 2.92111C91.2204 2.68386 89.3731 2.81327 87.5259 2.79171C87.439 2.79171 87.3303 2.94268 87.1565 3.11523C87.4824 3.2015 87.678 3.28777 87.8954 3.28777C88.5256 3.33091 88.7864 3.65443 88.7646 4.23677V12.8425C88.7646 13.5111 88.4169 13.8346 87.7867 13.9209C87.6128 13.9425 87.439 14.0287 87.2651 14.0719C87.2869 14.1366 87.2869 14.2013 87.3086 14.2876H91.9158ZM52.972 4.99166C53.4718 3.24464 53.0589 2.61916 51.4507 2.46818C50.9726 2.42505 50.451 2.40348 49.9729 2.46818C48.7125 2.61916 47.6911 3.17993 47.2347 4.40932C46.7566 5.70341 47.126 6.84653 48.1257 7.75239C48.7777 8.33473 49.56 8.78767 50.2554 9.32687C50.7336 9.69353 51.2769 10.0386 51.6463 10.5131C52.2548 11.2896 52.2983 12.1954 51.8419 13.0797C51.4072 13.9209 50.6032 14.1366 49.7121 14.0934C48.343 14.0072 47.5389 13.1876 47.0174 12.0013C46.9304 11.7856 46.7783 11.5915 46.6479 11.3974C46.3002 13.6405 46.7566 14.266 48.8211 14.5679C49.321 14.6326 49.8643 14.6326 50.3641 14.5679C51.7984 14.3954 52.9285 13.7484 53.2979 12.2817C53.6891 10.7935 53.2327 9.49942 51.994 8.55042C51.2986 8.01121 50.4945 7.60141 49.7773 7.08378C49.2992 6.71712 48.7994 6.28575 48.4952 5.78969C47.8867 4.79755 48.3865 3.48189 49.4296 3.09366C50.7553 2.59759 52.0375 3.1368 52.6242 4.40932C52.7546 4.625 52.885 4.79755 52.972 4.99166ZM133.25 4.99166C133.772 3.33091 133.337 2.6623 131.816 2.46818C131.425 2.42505 131.033 2.42505 130.642 2.44661C129.165 2.46818 127.948 3.24464 127.535 4.40932C127.078 5.66028 127.448 6.99751 128.643 7.96807C129.338 8.55042 130.142 8.98178 130.881 9.52098C131.273 9.80137 131.685 10.1249 131.968 10.5131C132.555 11.3111 132.62 12.217 132.142 13.0797C131.685 13.9209 130.881 14.1366 129.99 14.0934C128.643 14.0072 127.861 13.2091 127.317 12.066C127.209 11.8288 127.057 11.6347 126.861 11.268C126.47 13.3386 127.1 14.2876 128.947 14.5464C129.556 14.6326 130.186 14.6326 130.794 14.5679C132.164 14.3954 133.25 13.7268 133.62 12.3249C134.011 10.9014 133.62 9.62883 132.468 8.67982C131.838 8.16219 131.12 7.79553 130.447 7.29946C129.947 6.9328 129.425 6.58771 129.034 6.11321C128.187 5.05637 128.578 3.54659 129.751 3.09366C131.077 2.59759 132.381 3.11523 132.968 4.40932C133.033 4.60343 133.163 4.79755 133.25 4.99166ZM112.865 14.2876C112.909 14.2013 112.952 14.1366 112.996 14.0503C112.909 14.0072 112.822 13.9856 112.713 13.964C111.301 13.5758 111.301 13.5758 111.301 12.1523C111.301 10.7504 111.301 9.34844 111.301 7.96807C111.301 6.67398 111.344 5.37989 111.366 4.0858C111.388 3.50346 111.67 3.17993 112.279 3.1368C112.496 3.11523 112.692 3.02896 112.909 2.96425C112.909 2.89955 112.887 2.81327 112.865 2.74857H108.323L108.28 2.94268C108.476 3.00739 108.693 3.11523 108.889 3.1368C109.54 3.17993 109.801 3.54659 109.801 4.1505V12.8856C109.801 13.5111 109.475 13.8346 108.889 13.9209C108.693 13.964 108.497 14.0503 108.302 14.0934L108.345 14.2876H112.865ZM36.6295 26.3226C36.6512 25.8913 36.6729 25.654 36.6729 25.4167C36.6729 24.1227 36.6729 22.807 36.6729 21.5129C36.6729 20.9521 36.6946 20.3914 37.3466 20.1541H35.5428C35.7602 20.3698 36.1513 20.5639 36.1731 20.758C36.2383 22.009 36.1948 23.2815 36.1948 24.705C34.9995 23.3678 33.8478 22.2031 32.8698 20.8874C32.3048 20.1325 31.718 19.96 31.0878 20.0894C31.2834 20.4561 31.6745 20.8443 31.6963 21.2757C31.7832 22.3756 31.7397 23.4756 31.718 24.5756C31.6963 25.1579 31.7832 25.805 31.0226 26.0422H32.9133C32.6525 25.8265 32.1961 25.654 32.1961 25.4383C32.1309 24.0795 32.1527 22.7207 32.1527 21.2541C33.6739 22.958 35.0865 24.554 36.6295 26.3226ZM66.0329 24.7697C65.9243 24.8775 65.8591 24.9422 65.8156 25.007C65.2506 25.805 64.3161 26.0854 63.3381 25.7618C62.4689 25.4599 62.8818 24.6834 62.7948 24.1227C62.7731 23.9717 62.7948 23.8207 62.7948 23.6913C62.7514 23.2599 62.9687 23.1521 63.3599 23.1521C63.9901 23.1521 64.6421 23.0658 64.8811 23.8638V22.009C64.4247 22.8933 64.1422 23.0011 62.86 22.7423V20.3914C63.8597 20.4776 64.9463 19.96 65.5548 21.2325C65.5113 20.8659 65.4461 20.5208 65.4027 20.1541H61.6648C61.7952 20.4992 62.0125 20.8659 62.0342 21.2325C62.0777 22.3756 62.0342 23.5403 62.056 24.6834C62.056 25.3089 62.1211 25.9344 61.2084 26.0422C62.4471 26.1285 63.6424 26.1285 64.8377 26.1285C65.9025 26.1285 65.9895 26.0207 66.0329 24.7697ZM19.5915 20.1325C20.2652 20.2619 20.1783 20.7796 20.2 21.2541C20.2 22.1815 20.2 23.109 20.2435 24.058C20.3087 25.4599 20.9824 26.1716 22.3298 26.2579C23.8075 26.3657 24.742 25.7618 24.9376 24.3815C25.068 23.3893 25.0245 22.3756 25.068 21.3835C25.0897 20.8659 25.0463 20.3267 25.7417 20.1757H24.0466C24.2205 20.3914 24.5682 20.607 24.5682 20.8443C24.6116 22.0737 24.6768 23.3031 24.5247 24.4893C24.3943 25.503 23.6337 25.956 22.6557 25.8913C21.743 25.8265 21.1562 25.3089 21.0476 24.2952C20.9389 23.3462 20.9824 22.3972 20.9389 21.4482C20.9172 20.909 20.9389 20.3914 21.5691 20.1757C20.9172 20.1325 20.2652 20.1325 19.5915 20.1325ZM108.975 20.1325C109.28 20.3698 109.584 20.4992 109.714 20.7365C110.236 21.6854 110.779 22.6129 111.17 23.605C111.605 24.6834 111.301 25.654 110.475 26.0638H112.8C112.54 25.8481 112.105 25.654 112.083 25.4599C112.061 24.705 111.974 23.8423 112.279 23.1737C112.8 22.0737 113.235 20.8443 114.474 20.1325H112.713C112.931 20.2835 113.083 20.3914 113.278 20.5208C112.8 21.4051 112.322 22.2462 111.779 23.2384C111.366 22.4188 110.997 21.7502 110.692 21.06C110.584 20.8012 110.649 20.4776 110.627 20.1325H108.975ZM50.2772 20.111C50.538 20.4992 50.8639 20.8443 51.0378 21.2541C51.7332 22.8933 52.3852 24.5325 53.1241 26.3226C53.2762 25.9775 53.3849 25.7834 53.4718 25.5677C54.1238 24.1227 54.7323 22.6345 55.4277 21.2109C55.6233 20.8012 55.971 20.4776 56.21 20.1541H54.8192C54.9061 20.3698 55.1452 20.6286 55.08 20.7796C54.5584 22.1168 53.9934 23.4325 53.3414 24.9854C52.7546 23.5403 52.2331 22.2894 51.755 21.0384C51.668 20.7796 51.7984 20.4345 51.8202 20.111H50.2772ZM99.9784 26.0854H102.217C101.999 25.8481 101.587 25.6109 101.565 25.3736C101.5 23.7344 101.543 22.0952 101.543 20.4776C103.021 20.2188 103.369 20.3267 103.934 21.2972C103.977 20.7796 104.021 20.3482 104.042 20.0031C102.195 20.1757 100.391 20.1972 98.5441 19.9816C98.4571 20.3267 98.3485 20.7364 98.2181 21.2972C99.1526 20.3267 99.5655 20.1972 100.782 20.5208V24.8344C100.804 25.4167 100.739 25.956 99.9784 26.0854ZM84.8529 21.2757C84.9181 21.2325 85.005 21.2109 85.0702 21.1894C84.9398 20.8443 84.9398 20.3698 84.679 20.1757C84.114 19.7012 82.571 20.0031 82.0929 20.607C81.5279 21.3188 81.7235 22.2678 82.5493 22.9148C82.9405 23.2168 83.3751 23.454 83.7663 23.756C84.2226 24.1011 84.5704 24.5756 84.353 25.1364C84.2009 25.4815 83.7663 25.9344 83.462 25.9344C82.9839 25.9344 82.4841 25.6324 82.0494 25.3736C81.8321 25.2442 81.7452 24.9207 81.5713 24.6187C81.4192 25.8913 81.8104 26.2795 83.1143 26.2795C84.5486 26.2795 85.4179 25.2873 84.9615 24.0795C84.7877 23.605 84.2878 23.2168 83.8749 22.8501C83.5272 22.5266 83.0056 22.3325 82.7231 21.9658C82.5058 21.6854 82.4406 21.1462 82.571 20.8443C82.6797 20.5855 83.1578 20.3914 83.5055 20.3267C84.2444 20.1325 84.5486 20.7149 84.8529 21.2757ZM43.1056 20.111C43.2577 20.4992 43.4968 20.8659 43.5185 21.2325C43.562 22.3756 43.5402 23.5403 43.5402 24.6834C43.5402 25.2658 43.6272 25.8697 42.8448 26.0422H45.018C44.3661 25.9344 44.3009 25.503 44.3009 24.9854C44.3009 23.756 44.2574 22.5266 44.3226 21.3188C44.3443 20.909 44.6051 20.4776 44.7355 20.111H43.1056ZM92.7851 26.0854C92.0679 25.8912 92.0679 25.3736 92.0896 24.8128C92.1114 23.6697 92.0462 22.505 92.1114 21.3619C92.1331 20.9306 92.3722 20.5208 92.5026 20.1325H90.6119C91.2856 20.4992 91.3508 20.5639 91.3508 21.3619C91.3725 22.3972 91.3508 23.4325 91.3508 24.4462C91.3508 25.0932 91.4594 25.805 90.6119 26.0854H92.7851Z" fill="black"/>
<path d="M69.38 14.1366C69.5538 14.0287 69.7277 13.8778 69.9233 13.8346C70.9012 13.5974 71.0751 13.4464 71.0968 12.4543C71.1185 11.0523 71.0968 9.65039 71.1185 8.27003C71.1185 7.79553 70.9012 7.60141 70.4448 7.60141C68.163 7.60141 65.9028 7.60141 63.621 7.60141C63.1429 7.60141 62.969 7.8171 62.969 8.27003C62.9907 9.67196 62.969 11.0739 62.9907 12.4543C63.0125 13.468 63.2515 13.6621 64.2512 13.8346C64.4903 13.8778 64.7293 14.0072 64.9684 14.0719L64.9032 14.2876H59.6657L59.5788 14.1581C59.7309 14.0503 59.8831 13.8346 60.0569 13.8131C60.9479 13.7268 61.2304 13.166 61.2304 12.4111C61.2522 10.5778 61.2522 8.72296 61.2522 6.88966C61.2522 5.5093 61.2956 4.1505 61.2304 2.77014C61.1652 1.41134 60.9914 1.02311 59.6657 0.958408C59.5788 0.958408 59.4919 0.893703 59.2746 0.807431C59.4484 0.678021 59.5571 0.548612 59.6657 0.505476C59.7961 0.462339 59.97 0.483908 60.1004 0.483908H64.5989C64.6206 0.57018 64.6424 0.656453 64.6858 0.742726C64.4903 0.828999 64.3164 0.958408 64.1208 1.02311C63.2081 1.23879 63.0125 1.41134 62.9907 2.36034C62.969 3.6113 62.9907 4.86225 62.969 6.11321C62.969 6.54457 63.1211 6.73869 63.5775 6.73869H70.4666C70.9012 6.73869 71.0968 6.56614 71.0968 6.13478C71.0751 4.90539 71.0968 3.676 71.0751 2.44661C71.0533 1.38977 70.9229 1.28193 69.8798 1.02311C69.7059 0.979976 69.5756 0.850567 69.4234 0.764294C69.5973 0.678021 69.7711 0.527044 69.945 0.527044C71.3359 0.505476 72.705 0.505476 74.0958 0.527044C74.2697 0.527044 74.4218 0.656453 74.5957 0.721158C74.4653 0.828999 74.3349 1.00154 74.1827 1.00154C73.1613 1.06625 72.8571 1.47604 72.8354 2.64073C72.8136 5.83282 72.8136 9.02492 72.8354 12.217C72.8354 13.4248 72.9875 13.5542 74.2262 13.8778C74.3783 13.9209 74.5087 14.0719 74.6609 14.1797C74.5522 14.2444 74.4435 14.3738 74.3349 14.3738C72.705 14.3954 71.0968 14.3738 69.4669 14.3738C69.4452 14.2876 69.4234 14.2013 69.38 14.1366ZM33.0222 14.266H28.3933C28.3716 14.2013 28.3716 14.1366 28.3499 14.0719C28.5672 14.0072 28.8062 13.8993 29.0453 13.8562C29.6103 13.7484 29.8494 13.4033 29.8494 12.8641C29.8494 11.6347 29.8494 10.4053 29.8494 9.17589C29.8494 8.74453 29.632 8.59355 29.2626 8.59355C27.3936 8.59355 25.503 8.59355 23.634 8.59355C23.1776 8.59355 22.9603 8.78767 22.982 9.26217C23.0038 10.3621 22.982 11.4621 23.0038 12.5837C23.0255 13.5542 23.2211 13.7484 24.199 13.9209C24.3512 13.9425 24.5033 14.0287 24.6337 14.0719L24.5902 14.2876H20.2221L20.1569 14.1797C20.309 14.0934 20.4394 13.964 20.5915 13.9209C21.2217 13.7915 21.526 13.4033 21.526 12.7778C21.526 9.95235 21.526 7.12691 21.526 4.32305C21.526 3.63286 21.2652 3.11523 20.4611 3.11523C20.309 3.11523 20.1569 3.00739 20.0265 2.77014H24.4598C24.4815 2.81327 24.4815 2.85641 24.5033 2.92111C24.3512 2.98582 24.199 3.11523 24.0252 3.11523C23.2428 3.15836 23.0255 3.63287 23.0038 4.30148C23.0038 5.31519 23.0038 6.30732 22.982 7.32103C22.982 7.75239 23.1559 7.94651 23.5905 7.94651H29.3061C29.6972 7.94651 29.8711 7.77396 29.8711 7.36416C29.8494 6.41516 29.8711 5.44459 29.8711 4.49559C29.8711 3.46032 29.7624 3.35248 28.7628 3.11523C28.6541 3.09366 28.5454 3.02896 28.2629 2.92111C29.1105 2.46818 29.8928 2.81327 30.61 2.74857C31.3271 2.68386 32.066 2.727 32.8049 2.727C32.8049 2.79171 32.8267 2.85641 32.8267 2.92111C32.6963 2.98582 32.5659 3.11523 32.4137 3.11523C31.501 3.1368 31.3271 3.74071 31.3271 4.47402V7.3426V12.2817C31.3271 13.6189 31.3923 13.6836 32.6963 13.9856C32.7397 13.9856 32.7832 14.0503 33.0222 14.266ZM13.7242 2.44661C17.3317 2.44661 19.8092 4.88382 19.8309 8.42101C19.8526 11.9366 17.1361 14.6542 13.6155 14.6326C9.98627 14.6111 7.33496 12.066 7.33496 8.59355C7.33496 5.01323 10.008 2.44661 13.7242 2.44661ZM13.4417 2.96425C11.7031 2.92111 10.1819 3.87012 9.57336 5.5093C8.70408 7.83866 8.9214 10.1033 10.2688 12.1954C11.225 13.7052 12.7245 14.3091 14.4848 14.0719C16.2668 13.8131 17.3317 12.6699 17.8098 11.0092C18.3314 9.17589 18.1575 7.36416 17.3752 5.61714C16.6145 3.93482 15.3324 2.98582 13.4417 2.96425Z" fill="black"/>
<path d="M80.8542 2.447C84.5486 2.447 86.9609 4.84107 86.9609 8.44296C86.9609 12.0017 84.3965 14.5683 80.8542 14.5683C77.2032 14.5899 74.4649 12.0664 74.4867 8.57237C74.5084 5.03518 77.2032 2.447 80.8542 2.447ZM85.3527 8.98216C85.2223 7.10573 84.7442 5.57439 83.8532 4.47441C82.006 2.18818 78.3115 2.5117 76.9207 5.09989C75.7254 7.32141 76.16 10.837 77.8334 12.7135C79.8762 14.9997 83.5489 14.4173 84.7225 11.6135C85.0702 10.7723 85.1571 9.86646 85.3527 8.98216ZM44.127 11.5703V4.43127C44.127 3.63325 43.801 3.11561 42.91 3.11561C42.7579 3.11561 42.584 2.9862 42.4754 2.74895H46.6914C46.5175 2.9215 46.4741 3.00777 46.4306 3.02934C45.0615 3.09404 45.018 4.08618 44.9963 5.05675C44.9746 7.94689 44.9746 10.837 44.9746 13.7272C44.9746 14.0076 44.9528 14.2879 44.7572 14.633L36.1513 4.86264C36.1079 5.38027 36.0427 5.72536 36.0427 6.04889C36.0861 8.16257 36.0861 10.2763 36.1731 12.3684C36.2165 13.684 36.26 13.684 37.5857 13.9428C37.6943 13.9644 37.803 14.0723 37.8464 14.2664H33.6304C33.9129 14.0938 34.0433 13.9428 34.1737 13.9428C35.0213 13.9213 35.2821 13.4036 35.2821 12.6919C35.3038 11.7213 35.3255 10.7292 35.3473 9.75862C35.3473 8.18414 35.3473 6.60966 35.3473 5.05675C35.3473 3.69795 35.1734 3.48227 33.8477 3.11561C33.7174 3.07247 33.6087 2.9862 33.3262 2.83522C33.6304 2.74895 33.7608 2.66268 33.8912 2.66268C34.6736 2.66268 35.5863 2.447 36.2165 2.74895C36.8468 3.05091 37.1727 3.9352 37.6943 4.51754C39.6285 6.7175 41.5844 8.89589 43.5402 11.0743C43.7358 11.2468 43.9314 11.3978 44.127 11.5703ZM107.519 14.3095H103.477C103.455 14.2448 103.412 14.2017 103.39 14.137C103.673 14.0076 103.934 13.8781 104.281 13.7056C104.151 13.5331 104.064 13.3389 103.934 13.188C102.717 11.8292 101.5 10.4704 100.283 9.11157C100.152 8.96059 100 8.83119 99.8262 8.72334C99.3916 8.46453 99.1091 8.57237 99.0873 9.09C99.0873 10.3625 99.0873 11.6351 99.1091 12.9076C99.1091 13.5115 99.4568 13.835 100.087 13.8997C100.283 13.9213 100.478 13.986 100.652 14.0291C100.652 14.0938 100.63 14.1801 100.63 14.2448H96.3274C96.3056 14.2017 96.2839 14.1585 96.2622 14.1154C96.4143 14.0291 96.5664 13.9213 96.7403 13.8997C97.3488 13.7919 97.6313 13.4252 97.6313 12.8213C97.6313 9.95273 97.6313 7.08416 97.6313 4.21559C97.6313 3.56854 97.3705 3.11561 96.6316 3.09404C96.4578 3.09404 96.2839 2.9862 96.1101 2.9215C96.1101 2.85679 96.1318 2.79209 96.1318 2.72738H100.652C100.5 2.89993 100.456 2.96463 100.391 2.9862C99.0873 3.41757 99.0656 3.41757 99.0656 4.8195V7.17043C99.0656 7.42925 99.1308 7.68807 99.1525 7.94689C99.9349 7.83905 103.542 4.43127 104.129 3.28816C103.847 3.15875 103.564 3.02934 103.282 2.87836C103.303 2.81366 103.325 2.74895 103.325 2.70582H107.302C107.15 2.87836 107.106 2.96463 107.063 2.9862C105.52 3.22345 104.455 4.21559 103.39 5.20773C102.673 5.85477 101.999 6.52339 101.282 7.17043C100.935 7.49396 100.935 7.75277 101.239 8.09787C102.782 9.80175 104.281 11.5272 105.846 13.188C106.15 13.5115 106.628 13.6409 107.041 13.8566C107.193 13.9428 107.346 13.9644 107.498 14.0291C107.563 14.1585 107.541 14.2448 107.519 14.3095ZM116.408 5.05675C116.364 7.79591 116.19 10.5135 116.625 13.2311C116.669 13.4899 117.19 13.7056 117.538 13.8997C117.733 14.0076 117.994 14.0076 118.233 14.0507C118.233 14.1154 118.212 14.2017 118.212 14.2664H114.169C114.148 14.2232 114.126 14.2017 114.104 14.1585C114.278 14.0723 114.43 13.9428 114.604 13.9428C115.234 13.8781 115.56 13.5546 115.56 12.9507C115.604 10.2115 115.669 7.45082 115.647 4.71166C115.647 3.61168 115.343 3.396 114.256 3.13718C114.082 3.09404 113.93 3.00777 113.778 2.9215C113.778 2.85679 113.8 2.77052 113.822 2.70582C114.256 2.70582 114.713 2.74895 115.147 2.70582C116.212 2.55484 116.842 2.94307 117.538 3.82736C119.646 6.43711 121.971 8.91746 124.21 11.4194C124.253 11.4625 124.318 11.5056 124.383 11.5272C124.427 11.4841 124.492 11.4625 124.492 11.4409C124.492 9.13314 124.47 6.82534 124.449 4.53911C124.449 3.69795 124.101 3.11561 123.123 3.13718C122.993 3.13718 122.84 3.00777 122.732 2.77052H126.817L126.861 2.94307C126.709 3.00777 126.557 3.13718 126.383 3.15875C125.6 3.22345 125.34 3.69795 125.34 4.4097C125.318 6.86848 125.274 9.30569 125.253 11.7645C125.253 12.5625 125.296 13.3821 125.296 14.1801C125.296 14.3311 125.209 14.4821 125.144 14.7624C122.232 11.4625 119.429 8.24884 116.603 5.05675C116.538 5.03518 116.473 5.05675 116.408 5.05675ZM1.9451 0.635269C2.16242 0.592132 2.35801 0.505859 2.57533 0.505859H6.87827C7.05213 0.505859 7.20426 0.6137 7.37811 0.678405C7.22599 0.807814 7.09559 0.98036 6.92174 1.0235C5.9438 1.30388 5.76994 1.51956 5.74821 2.57641C5.72648 5.94105 5.74821 9.30569 5.70474 12.6488C5.68301 14.0938 5.50916 15.5389 4.55295 16.7467C3.6402 17.8898 2.51013 18.58 0.98889 18.4722C0.728105 18.4506 0.25 18.1918 0.25 18.0408C0.25 17.5663 0.489053 17.1349 1.09755 17.1565C1.35833 17.1781 1.61912 17.2428 1.90164 17.3075C3.00997 17.5663 3.50981 17.3075 3.68366 16.1859C3.85752 14.9781 3.98791 13.7487 4.00964 12.5409C4.05311 9.37039 4.03138 6.22143 4.03138 3.05091C4.03138 2.79209 4.00964 2.5117 3.98791 2.25288C3.90098 1.51956 3.55327 1.06663 2.77092 1.04506C2.51013 1.0235 2.24935 0.937223 2.0103 0.894087C1.96683 0.807814 1.96683 0.721541 1.9451 0.635269ZM91.9158 14.2879H87.3086C87.2868 14.2232 87.2868 14.1585 87.2651 14.0723C87.439 14.0291 87.6128 13.9428 87.7867 13.9213C88.4169 13.835 88.7646 13.5115 88.7646 12.8429C88.7646 9.9743 88.7646 7.10573 88.7646 4.23716C88.7646 3.65482 88.5038 3.30973 87.8953 3.28816C87.678 3.28816 87.4824 3.18032 87.1565 3.11561C87.352 2.94307 87.439 2.79209 87.5259 2.79209C89.3731 2.81366 91.2421 2.70582 93.0458 2.9215C94.7409 3.13718 95.6537 4.36657 95.6972 5.89791C95.7406 7.49396 94.8931 8.59393 93.1762 9.06843C92.6329 9.21941 92.0462 9.28412 91.4811 9.37039C91.4594 9.28412 91.4377 9.19784 91.3942 9.13314C91.5681 9.04687 91.7202 8.96059 91.8723 8.91746C93.4805 8.39982 94.1542 7.45082 94.0673 5.79007C93.9803 4.04304 92.4373 2.87836 90.7205 3.20188C90.2207 3.28816 90.1989 3.63325 90.1989 4.02148V10.6213C90.1989 11.29 90.1989 11.937 90.2424 12.6056C90.3076 13.6193 90.4597 13.7703 91.4594 13.9213C91.6333 13.9428 91.8071 14.0076 91.9592 14.0507C91.9592 14.137 91.9375 14.2017 91.9158 14.2879ZM52.9719 4.99204C52.8633 4.79793 52.7546 4.62539 52.6677 4.43127C52.0809 3.15875 50.7987 2.61954 49.4731 3.11561C48.4299 3.50384 47.9301 4.8195 48.5386 5.81164C48.8429 6.30771 49.3427 6.73907 49.8208 7.10573C50.538 7.64493 51.3203 8.03316 52.0375 8.57237C53.2762 9.52137 53.7108 10.8155 53.3414 12.3037C52.9719 13.7703 51.8201 14.4173 50.4076 14.5899C49.9077 14.6546 49.3644 14.6546 48.8646 14.5899C46.7783 14.2879 46.3219 13.6625 46.6914 11.4194C46.8218 11.6135 46.9739 11.8076 47.0608 12.0233C47.5824 13.2095 48.3865 14.0291 49.7556 14.1154C50.6466 14.1585 51.4507 13.9428 51.8853 13.1017C52.3417 12.239 52.2983 11.3115 51.6898 10.5351C51.3203 10.0606 50.777 9.71548 50.2989 9.34882C49.5817 8.80962 48.8211 8.37825 48.1692 7.77434C47.1695 6.86848 46.8218 5.72536 47.2781 4.43127C47.7345 3.20188 48.7559 2.64111 50.0164 2.49013C50.4945 2.42543 51.0161 2.447 51.4942 2.49013C53.0589 2.61954 53.4935 3.24502 52.9719 4.99204ZM133.25 4.99204C133.141 4.79793 133.033 4.60382 132.946 4.4097C132.381 3.13718 131.055 2.59797 129.73 3.09404C128.556 3.54698 128.143 5.05675 129.012 6.11359C129.382 6.58809 129.925 6.93318 130.425 7.29984C131.077 7.77434 131.816 8.16257 132.446 8.68021C133.598 9.62921 133.989 10.9017 133.598 12.3252C133.228 13.7272 132.142 14.3958 130.773 14.5683C130.164 14.6546 129.534 14.633 128.925 14.5468C127.1 14.2879 126.448 13.3389 126.839 11.2684C127.056 11.6351 127.187 11.8507 127.296 12.0664C127.817 13.2095 128.621 14.0291 129.969 14.0938C130.86 14.137 131.664 13.9213 132.12 13.0801C132.598 12.1958 132.511 11.3115 131.946 10.5135C131.664 10.1253 131.251 9.82332 130.86 9.52137C130.121 8.98216 129.317 8.52923 128.621 7.96846C127.448 6.99789 127.078 5.68223 127.513 4.4097C127.926 3.24502 129.165 2.46857 130.621 2.447C131.012 2.447 131.425 2.42543 131.816 2.46857C133.359 2.66268 133.793 3.33129 133.25 4.99204ZM112.865 14.2879H108.389L108.345 14.0938C108.541 14.0291 108.736 13.9428 108.932 13.9213C109.54 13.8134 109.845 13.4899 109.845 12.886C109.845 9.9743 109.845 7.06259 109.845 4.15089C109.845 3.54698 109.562 3.18032 108.932 3.13718C108.715 3.11561 108.519 3.00777 108.323 2.94307L108.367 2.74895H112.909C112.909 2.81366 112.931 2.89993 112.952 2.96463C112.735 3.02934 112.539 3.11561 112.322 3.13718C111.714 3.18032 111.431 3.50384 111.409 4.08618C111.388 5.38027 111.366 6.67437 111.344 7.96846V12.1527C111.344 13.5762 111.344 13.5762 112.757 13.9644C112.844 13.986 112.931 14.0291 113.039 14.0507C112.952 14.137 112.909 14.2017 112.865 14.2879ZM73.4218 26.0857H71.3355C72.1179 25.8701 72.0092 25.2446 72.031 24.6838C72.031 23.5407 72.031 22.376 72.031 21.2329C72.031 20.5427 72.0092 20.5427 71.1834 20.1761C72.5525 20.0898 73.7043 19.8741 74.8344 20.3055C75.7906 20.6721 76.0079 21.8799 75.2908 22.6348C75.0952 22.8505 74.8344 23.0015 74.4649 23.3034C75.2256 24.274 76.0079 25.2446 76.7251 26.1289C76.16 26.2583 75.7037 26.1504 75.1821 25.5034C74.7692 24.9858 74.4649 24.3819 74.0303 23.8858C73.813 23.627 73.7043 23.5191 72.8133 23.3682V24.1877C72.8133 24.425 72.7916 24.6838 72.8133 24.9211C72.8568 25.3956 72.8133 25.9132 73.6174 25.8701C73.5087 25.9779 73.4653 26.021 73.4218 26.0857ZM73.3349 23.1093C74.3345 23.1093 74.7909 22.6995 74.8344 21.8368C74.8561 20.9741 74.3345 20.4133 73.4653 20.3486C72.922 20.3055 72.7046 20.4996 72.7264 21.0604C72.7481 21.5133 72.7481 21.9878 72.7264 22.4623C72.7046 22.9368 72.8568 23.1093 73.3349 23.1093ZM36.6294 26.323C35.0865 24.576 33.6522 22.9799 32.1961 21.2976C32.1961 22.7858 32.1744 24.1446 32.2396 25.4818C32.2396 25.6759 32.6742 25.8701 32.9567 26.0857H31.066C31.8049 25.8269 31.7397 25.1799 31.7615 24.6191C31.7832 23.5191 31.8267 22.3976 31.7397 21.3192C31.6963 20.9094 31.3268 20.5211 31.1312 20.1329C31.7615 19.9819 32.3482 20.1761 32.9133 20.9309C33.8912 22.2466 35.043 23.4113 36.2383 24.7485C36.2383 23.3034 36.26 22.0525 36.2165 20.8015C36.2165 20.5859 35.8254 20.3917 35.5863 20.1976H37.3901C36.7164 20.4349 36.7164 20.9956 36.7164 21.5564V25.4603C36.6729 25.6544 36.6512 25.8916 36.6294 26.323ZM66.0329 24.7701C65.9894 25.9995 65.9025 26.1289 64.8159 26.1289C63.6207 26.1289 62.4254 26.1289 61.1867 26.0426C62.0994 25.9348 62.0559 25.3093 62.0342 24.6838C62.0125 23.5407 62.0559 22.376 62.0125 21.2329C61.9907 20.8662 61.7734 20.5211 61.643 20.1545H65.381C65.4244 20.4996 65.4896 20.8662 65.5331 21.2329C64.9246 19.9819 63.838 20.478 62.8383 20.3917V22.7211C64.1422 22.9799 64.403 22.8937 64.8594 21.9878V23.8427C64.6203 23.0446 63.9684 23.1309 63.3381 23.1309C62.947 23.1309 62.7296 23.2603 62.7731 23.6701C62.7948 23.8211 62.7514 23.9721 62.7731 24.1015C62.86 24.6838 62.4471 25.4387 63.3164 25.7407C64.2726 26.0857 65.2071 25.7838 65.7939 24.9858C65.8591 24.9426 65.9242 24.8995 66.0329 24.7701ZM19.5915 20.1329H21.5691C20.9389 20.3486 20.9172 20.8662 20.9389 21.4054C20.9606 22.3544 20.9389 23.325 21.0476 24.2524C21.1562 25.2662 21.743 25.7838 22.6557 25.8485C23.6119 25.9132 24.3726 25.4603 24.5247 24.4466C24.6768 23.2387 24.6116 22.0094 24.5682 20.8015C24.5682 20.5643 24.2204 20.3486 24.0466 20.1329H25.7417C25.0463 20.2839 25.0897 20.8447 25.068 21.3407C25.0245 22.3544 25.0897 23.3682 24.9376 24.3387C24.742 25.6975 23.7858 26.323 22.3298 26.2152C21.0041 26.1073 20.3304 25.4171 20.2435 24.0152C20.2 23.0878 20.2218 22.1603 20.2 21.2113C20.2 20.78 20.2652 20.2623 19.5915 20.1329ZM108.975 20.1329H110.692C110.714 20.478 110.649 20.8015 110.757 21.0604C111.062 21.7505 111.431 22.4192 111.844 23.2387C112.387 22.2466 112.844 21.4054 113.344 20.5211C113.148 20.3917 112.996 20.2839 112.779 20.1329H114.539C113.3 20.8447 112.865 22.0741 112.344 23.174C112.04 23.8211 112.127 24.6838 112.148 25.4603C112.148 25.6544 112.583 25.8485 112.865 26.0642H110.54C111.366 25.6544 111.692 24.6838 111.236 23.6054C110.823 22.6133 110.301 21.6643 109.78 20.7368C109.562 20.4996 109.28 20.3702 108.975 20.1329ZM50.2772 20.1114H51.8636C51.8419 20.4349 51.6898 20.78 51.7984 21.0388C52.2548 22.2897 52.7764 23.5191 53.3849 24.9858C54.0368 23.4544 54.6018 22.1172 55.1234 20.78C55.1886 20.629 54.9496 20.3702 54.8626 20.1545H56.2535C56.0144 20.478 55.6667 20.8015 55.4711 21.2113C54.7974 22.6564 54.1672 24.123 53.5152 25.5681C53.4283 25.7838 53.3197 25.9779 53.1675 26.323C52.4504 24.5328 51.7984 22.8937 51.0813 21.2545C50.8857 20.8447 50.538 20.4996 50.2772 20.1114ZM99.9784 26.0857C100.739 25.9563 100.804 25.4387 100.804 24.8348C100.804 23.3897 100.804 21.9447 100.804 20.5211C99.5872 20.2192 99.1743 20.327 98.2398 21.2976C98.3702 20.7368 98.4789 20.327 98.5658 19.9819C100.413 20.1761 102.217 20.1545 104.064 20.0035C104.042 20.3486 103.999 20.78 103.955 21.2976C103.369 20.327 103.021 20.2192 101.565 20.478C101.565 22.0956 101.543 23.7348 101.587 25.374C101.587 25.6112 101.999 25.8485 102.238 26.0857C101.5 26.0857 100.739 26.0857 99.9784 26.0857ZM84.8529 21.276C84.5703 20.7153 84.2444 20.1329 83.5055 20.2623C83.1578 20.327 82.6796 20.5211 82.571 20.78C82.4406 21.0819 82.5275 21.6211 82.7231 21.9015C83.0056 22.2682 83.5272 22.4623 83.8749 22.7858C84.2878 23.1525 84.7877 23.5407 84.9615 24.0152C85.4179 25.223 84.5486 26.2152 83.1143 26.2152C81.8104 26.2152 81.4192 25.8269 81.5713 24.5544C81.7452 24.8564 81.8321 25.2014 82.0494 25.3093C82.4841 25.5681 82.9839 25.8701 83.462 25.8701C83.7663 25.8701 84.2226 25.4171 84.353 25.072C84.5703 24.5113 84.2444 24.0368 83.7663 23.6917C83.3751 23.3897 82.9404 23.1525 82.5493 22.8505C81.7017 22.1819 81.5279 21.2545 82.0929 20.5427C82.571 19.9388 84.0922 19.6153 84.679 20.1114C84.9181 20.327 84.9398 20.78 85.0702 21.1251C84.9832 21.2113 84.9181 21.2329 84.8529 21.276ZM43.1056 20.1114H44.7355C44.6051 20.4996 44.3443 20.9094 44.3226 21.3192C44.2574 22.5486 44.3226 23.7564 44.3009 24.9858C44.3009 25.5034 44.3661 25.9348 45.018 26.0426H42.8448C43.6272 25.8701 43.5402 25.2662 43.5402 24.6838C43.5402 23.5407 43.5837 22.376 43.5185 21.2329C43.4968 20.8662 43.236 20.4996 43.1056 20.1114ZM92.7851 26.0857H90.6336C91.4811 25.8269 91.3725 25.1152 91.3725 24.4466C91.3725 23.4113 91.3942 22.376 91.3725 21.3623C91.3507 20.5643 91.3073 20.4996 90.6336 20.1329H92.5243C92.3939 20.4996 92.1331 20.9309 92.1331 21.3623C92.0679 22.5054 92.1331 23.6701 92.1114 24.8132C92.0679 25.3524 92.0679 25.8916 92.7851 26.0857Z" fill="black"/>
</g>
<defs>
<clipPath id="clip0_748_4723">
<rect width="133.5" height="25.8387" fill="white" transform="translate(0.25 0.484375)"/>
</clipPath>
</defs>
</svg>
