<svg width="309" height="296" viewBox="0 0 309 296" fill="none" xmlns="http://www.w3.org/2000/svg">
<path opacity="0.8" d="M308.421 146.081C308.476 143.884 308.476 141.661 308.421 139.438C308.254 132.246 307.502 125.028 306.138 117.81C304.439 108.604 301.738 99.4507 298.008 90.428C297.033 88.1004 296.031 85.8252 294.945 83.576C291.827 77.0902 288.263 70.9182 284.253 65.0862C281.608 61.2156 278.768 57.5019 275.789 53.9452C272.699 50.2838 269.441 46.7794 266.017 43.458C261.005 38.5937 255.659 34.0954 250.007 29.9633C248.058 28.5511 246.054 27.165 244.049 25.8313C236.197 20.6792 227.817 16.2333 219.102 12.572C210.276 8.85837 201.088 5.95546 191.622 3.88946C182.155 1.82344 172.494 0.594332 162.666 0.280538C152.865 -0.0332565 142.925 0.542171 133.041 2.05907C123.129 3.60211 116.781 11.0818 107.036 14.5863C99.7973 17.1754 88.7718 18.9539 80.0014 21.7261C76.7438 22.7461 73.7647 23.923 71.4538 25.3352C65.7461 28.7612 65.05 34.4102 62.9897 39.6669C62.0152 42.2037 60.7066 44.6621 58.4235 46.7282C55.0546 49.788 48.2054 49.1342 41.3004 48.3497C33.421 47.4605 25.4581 46.3883 22.4789 50.4682C21.5045 51.8019 21.6715 53.8418 22.5903 56.3263C25.9871 65.5321 39.6577 81.302 44.4466 93.7768C45.0035 95.189 45.4211 96.549 45.6995 97.8566C45.783 98.3012 45.8666 98.7197 45.9501 99.1381C46.507 102.695 44.7807 106.304 41.3561 107.847C36.9013 109.887 31.3885 109.364 29.885 115.457C28.6878 120.348 19.639 123.931 11.8153 127.723C5.60644 130.705 0.149321 133.843 0.0101306 137.87C0.0101306 138.472 0.0936573 139.047 0.316375 139.596C2.85004 146.082 20.1124 149.822 27.073 155.706C28.2702 156.7 29.1333 157.746 29.6066 158.897C29.7458 159.211 29.8293 159.525 29.885 159.865C31.5277 169.123 6.77582 190.149 10.4789 199.251C14.0148 207.959 27.8804 204.873 37.9593 206.207C38.4883 206.285 39.0173 206.364 39.5464 206.469C49.5975 208.299 57.7831 211.464 59.8156 214C60.1219 214.288 60.3446 214.628 60.5117 215.02C60.985 216.093 61.0129 217.557 60.7066 219.309C59.8435 225.455 55.0546 234.949 50.6833 244.233C45.9223 254.197 41.6624 263.926 43.3329 268.895C43.3886 269.078 43.4443 269.235 43.5278 269.392C47.0638 277.159 73.0686 261.912 88.2984 256.812C92.3634 255.426 95.6488 254.798 97.4864 255.557C106.173 259.14 115.695 270.202 125.468 263.821C127.807 262.304 129.895 260.526 131.844 258.721C138.025 252.941 142.814 246.717 150.136 246.952C157.71 247.188 163.891 253.255 170.963 261.545C174.025 265.128 177.255 268.58 180.652 271.876C188.448 279.355 198.972 297.871 207.353 294.864C213.506 292.641 215.037 275.171 217.292 260.734C218.685 251.607 220.383 243.709 223.724 241.669C227.761 239.211 233.636 238.74 239.399 238.165C245.58 237.563 251.678 236.857 255.297 233.562C260.114 229.168 268.077 229.56 274.342 227.756C277.126 226.971 279.548 225.742 281.246 223.467C286.731 216.092 291.465 208.246 295.363 200.06C298.342 193.809 300.848 187.35 302.824 180.733C303.52 178.432 304.133 176.104 304.718 173.776C305.776 169.383 306.639 164.937 307.251 160.465C307.892 155.705 308.309 150.919 308.448 146.107L308.421 146.081ZM306.778 146.996C306.444 156.019 305.163 165.068 302.964 173.881C300.792 182.616 297.729 191.194 293.803 199.406C289.933 207.513 285.256 215.307 279.826 222.577C278.239 224.722 275.761 225.82 272.922 226.553C271.223 226.971 269.413 227.285 267.548 227.573C262.703 228.357 257.664 229.168 254.072 232.437C250.675 235.523 244.439 236.125 238.397 236.726C232.745 237.275 226.926 237.851 222.749 240.361C219.102 242.584 217.376 249.803 215.928 258.956C215.51 261.493 215.093 264.187 214.703 266.959C213.088 278.074 211.167 291.804 206.74 293.399C201.728 295.204 194.657 286.312 188.921 279.198C186.304 275.955 183.854 272.896 181.543 270.699C178.313 267.56 175.139 264.213 171.909 260.447C165.255 252.653 158.545 245.645 150.081 245.383C143.399 245.174 138.721 249.777 133.793 254.615C133.515 254.877 133.264 255.138 132.986 255.426C130.424 257.937 127.751 260.447 124.605 262.487C118.368 266.541 112.271 262.644 105.783 258.486C103.111 256.76 100.577 255.138 97.9876 254.092C96.2892 253.386 93.8112 253.621 90.7486 254.432C85.7648 255.714 79.3332 258.538 72.3169 261.598C61.9595 266.149 50.2657 271.275 45.9779 269.679C45.3932 269.47 45.0591 269.13 44.8086 268.633C44.7529 268.529 44.725 268.424 44.6972 268.293C43.1937 263.769 47.5371 254.014 52.0198 244.599C52.5488 243.448 53.1056 242.298 53.6346 241.147C57.7553 232.569 61.4584 224.801 62.2658 219.283C62.5999 217.322 62.5442 215.674 61.9873 214.367C61.7646 213.843 61.4583 213.373 61.0686 212.98C58.6184 210.051 50.0429 206.861 40.0197 205.056C36.7343 204.429 32.9756 204.376 29.3282 204.324C21.588 204.272 14.2654 204.193 12.0659 198.754C10.3953 194.622 16.4093 186.436 21.6994 179.191C27.2122 171.686 32.4187 164.572 31.5556 159.682C31.472 159.263 31.3607 158.871 31.1936 158.452C30.7203 157.223 29.8572 156.125 28.7156 155.105C25.7087 152.359 20.7249 150.162 15.574 147.887C9.47653 145.219 3.18414 142.447 1.93124 139.204C1.76419 138.786 1.70849 138.393 1.70849 137.975C1.84772 134.261 8.25146 131.071 14.8223 127.985C15.1842 127.802 15.574 127.618 15.936 127.462C23.3421 124.009 30.3584 120.714 31.5277 115.876C32.4465 112.162 35.0359 111.404 38.3213 110.488C39.6299 110.122 40.9663 109.73 42.2471 109.155C46.0615 107.428 48.2332 103.296 47.5928 99.0858C47.5093 98.5104 47.3701 97.8828 47.2309 97.2551C46.9525 96.0521 46.5348 94.7967 46.0058 93.463C43.3608 86.5848 38.0429 78.6868 33.3932 71.704C29.4117 65.7674 25.653 60.1708 24.1216 56.0648C23.3142 53.868 23.2028 52.2727 23.8154 51.4096C26.182 48.1405 33.3932 48.9774 40.4095 49.7881C41.4675 49.8927 42.5255 50.0234 43.5835 50.1281C49.9594 50.7818 56.1126 51.0172 59.5372 47.905C62.0152 45.6559 63.4073 43.0406 64.4375 40.373C64.883 39.2485 65.2449 38.1239 65.6347 36.9993C66.9711 32.9457 68.2519 29.1274 72.3169 26.669C74.6557 25.2567 77.6905 24.0798 81.0316 23.0599C84.8738 21.883 89.1616 20.863 93.3658 19.8692C98.628 18.64 103.612 17.4893 107.593 16.077C111.937 14.5078 115.612 12.2064 119.148 9.95721C123.658 7.10657 127.918 4.43897 133.236 3.62822C133.431 3.60206 133.654 3.57591 133.849 3.5236C143.315 2.08517 152.976 1.5359 162.554 1.84969C172.16 2.16349 181.793 3.36644 191.176 5.43247C200.476 7.47234 209.608 10.3491 218.35 14.0365C227.093 17.6979 235.473 22.1699 243.297 27.322C251.177 32.5263 258.555 38.4629 265.237 44.9749C272.031 51.6176 278.128 58.9142 283.39 66.6553C288.792 74.6057 293.358 83.1576 296.977 92.0495C300.597 100.941 303.27 110.173 304.885 119.484C306.472 128.559 307.112 137.817 306.75 146.996L306.778 146.996Z" fill="#082828"/>
</svg>
