<svg width="183" height="40" viewBox="0 0 183 40" fill="none" xmlns="http://www.w3.org/2000/svg">
<path d="M16.3822 3.1915V29.15C16.3822 31.325 15.5192 33.4109 13.983 34.9489C12.4469 36.4868 10.3635 37.3509 8.19108 37.3509C6.01867 37.3509 3.93524 36.4868 2.39911 34.9489C0.862986 33.4109 0 31.325 0 29.15L0 26.5171C0.00786544 26.2169 0.130507 25.9311 0.342634 25.7187C0.554761 25.5063 0.8402 25.3835 1.14009 25.3757H3.41844C3.56863 25.3739 3.71766 25.4023 3.85676 25.459C3.99585 25.5158 4.12222 25.5998 4.22843 25.7062C4.33464 25.8125 4.41856 25.939 4.47524 26.0783C4.53193 26.2175 4.56025 26.3667 4.55853 26.5171V29.1555C4.56238 30.119 4.94627 31.042 5.62662 31.7235C6.30697 32.405 7.22869 32.7899 8.19108 32.7942C8.66935 32.7981 9.14362 32.7066 9.58623 32.5251C10.0288 32.3436 10.4309 32.0757 10.769 31.737C11.1072 31.3983 11.3745 30.9956 11.5556 30.5524C11.7367 30.1092 11.8278 29.6343 11.8236 29.1555V3.1915C11.8315 2.89143 11.9542 2.60585 12.1664 2.39377C12.3786 2.18168 12.664 2.05929 12.9637 2.05188H15.2421C15.3922 2.04966 15.5413 2.07761 15.6805 2.13408C15.8197 2.19054 15.9462 2.27437 16.0525 2.38061C16.1588 2.48686 16.2427 2.61336 16.2994 2.75264C16.356 2.89191 16.3841 3.04114 16.3822 3.1915Z" fill="#002122"/>
<path d="M38.7465 3.1915V29.0822C38.7465 33.6462 35.0426 37.3545 30.5554 37.3545C28.3645 37.3531 26.2638 36.4811 24.7146 34.93C23.1654 33.379 22.2944 31.2757 22.293 29.0822V3.1915C22.3009 2.89143 22.4236 2.60585 22.6357 2.39377C22.8479 2.18168 23.1333 2.05929 23.4331 2.05188H25.7114C25.8615 2.04992 26.0105 2.07804 26.1496 2.13459C26.2887 2.19114 26.4151 2.27498 26.5213 2.38118C26.6275 2.48737 26.7115 2.61377 26.7682 2.75293C26.8249 2.8921 26.8532 3.04121 26.8515 3.1915V29.0822C26.8515 30.0562 27.238 30.9904 27.9259 31.6791C28.6138 32.3679 29.5469 32.7548 30.5197 32.7548C31.4926 32.7548 32.4256 32.3679 33.1136 31.6791C33.8015 30.9904 34.188 30.0562 34.188 29.0822V3.1915C34.186 3.04114 34.2142 2.89191 34.2708 2.75264C34.3274 2.61336 34.4113 2.48686 34.5176 2.38061C34.6239 2.27437 34.7504 2.19054 34.8896 2.13408C35.0288 2.07761 35.1779 2.04966 35.3281 2.05188H37.6064C37.7566 2.04966 37.9057 2.07761 38.0449 2.13408C38.1841 2.19054 38.3106 2.27437 38.4169 2.38061C38.5231 2.48686 38.6071 2.61336 38.6637 2.75264C38.7203 2.89191 38.7485 3.04114 38.7465 3.1915Z" fill="#002122"/>
<path d="M61.1114 13.6753C61.1107 14.7951 60.8832 15.9032 60.4429 16.9326C60.0026 17.962 59.3584 18.8914 58.5494 19.6647C59.3573 20.4242 60.0013 21.3413 60.4419 22.3593C60.8826 23.3774 61.1104 24.475 61.1114 25.5845V36.2112C61.1036 36.5115 60.9809 36.7973 60.7688 37.0096C60.5567 37.222 60.2712 37.3448 59.9713 37.3527H57.693C57.3918 37.3462 57.1048 37.2238 56.8914 37.0108C56.6781 36.7979 56.5549 36.5109 56.5474 36.2094V25.5827C56.5438 25.1001 56.4451 24.6229 56.2568 24.1786C56.0685 23.7343 55.7944 23.3317 55.4502 22.9937C55.1061 22.6558 54.6986 22.3893 54.2513 22.2094C53.8039 22.0296 53.3255 21.94 52.8435 21.9458H49.2164V36.2094C49.209 36.5095 49.0868 36.7953 48.875 37.0077C48.6631 37.2201 48.3779 37.343 48.0782 37.3509H45.798C45.4971 37.3444 45.2103 37.2222 44.997 37.0097C44.7837 36.7971 44.6603 36.5106 44.6524 36.2094V3.1915C44.6507 3.04121 44.679 2.8921 44.7357 2.75293C44.7924 2.61377 44.8764 2.48737 44.9826 2.38118C45.0889 2.27498 45.2152 2.19114 45.3543 2.13459C45.4934 2.07804 45.6424 2.04992 45.7925 2.05188H48.0727C48.2227 2.04991 48.3716 2.07804 48.5106 2.13462C48.6496 2.19119 48.7759 2.27506 48.8819 2.38128C48.988 2.4875 49.0718 2.61391 49.1283 2.75307C49.1848 2.89222 49.2129 3.0413 49.2109 3.1915V17.3836H52.8435C53.3309 17.3871 53.814 17.2935 54.265 17.1083C54.7159 16.9232 55.1255 16.6501 55.4702 16.3051C55.8148 15.9601 56.0875 15.5499 56.2724 15.0984C56.4573 14.647 56.5508 14.1632 56.5474 13.6753V3.1915C56.5457 3.04121 56.574 2.8921 56.6307 2.75293C56.6874 2.61377 56.7714 2.48737 56.8776 2.38118C56.9839 2.27498 57.1102 2.19114 57.2493 2.13459C57.3884 2.07804 57.5374 2.04992 57.6875 2.05188H59.9659C60.116 2.04966 60.2651 2.07761 60.4043 2.13408C60.5435 2.19054 60.67 2.27437 60.7763 2.38061C60.8826 2.48686 60.9665 2.61336 61.0231 2.75264C61.0798 2.89191 61.1079 3.04114 61.1059 3.1915L61.1114 13.6753Z" fill="#002122"/>
<path d="M71.5802 6.61585V17.3836H77.7747C77.9249 17.3817 78.074 17.4098 78.2131 17.4665C78.3522 17.5232 78.4785 17.6072 78.5847 17.7137C78.6908 17.8201 78.7745 17.9467 78.8309 18.0861C78.8873 18.2255 78.9152 18.3747 78.913 18.5251V20.8062C78.9152 20.9565 78.8873 21.1058 78.8309 21.2452C78.7745 21.3845 78.6908 21.5112 78.5847 21.6176C78.4785 21.724 78.3522 21.808 78.2131 21.8647C78.074 21.9214 77.9249 21.9496 77.7747 21.9476H71.5802V32.7887H77.7747C77.9248 32.7867 78.0737 32.8148 78.2126 32.8714C78.3516 32.928 78.4779 33.0119 78.584 33.1181C78.6901 33.2243 78.7739 33.3507 78.8304 33.4899C78.8869 33.629 78.915 33.7781 78.913 33.9283V36.2094C78.9152 36.3597 78.8873 36.509 78.8309 36.6484C78.7745 36.7877 78.6908 36.9144 78.5847 37.0208C78.4785 37.1272 78.3522 37.2112 78.2131 37.2679C78.074 37.3246 77.9249 37.3528 77.7747 37.3508H69.3018C68.6986 37.347 68.1211 37.1055 67.6944 36.6786C67.2676 36.2517 67.026 35.6737 67.0217 35.0698V4.33294C67.018 4.0322 67.0744 3.73377 67.1877 3.45523C67.3011 3.17669 67.4689 2.92367 67.6814 2.71109C67.8939 2.49851 68.1467 2.33066 68.425 2.21744C68.7033 2.10422 69.0015 2.04792 69.3018 2.05186H77.7747C77.9248 2.04989 78.0737 2.07802 78.2126 2.13459C78.3516 2.19117 78.4779 2.27504 78.584 2.38126C78.6901 2.48748 78.7739 2.61389 78.8304 2.75305C78.8869 2.8922 78.915 3.04128 78.913 3.19148V5.47439C78.915 5.62468 78.8869 5.77384 78.8304 5.91309C78.7739 6.05235 78.6902 6.17888 78.5841 6.28525C78.478 6.39161 78.3518 6.47566 78.2128 6.53243C78.0738 6.58921 77.9249 6.61757 77.7747 6.61585H71.5802Z" fill="#002122"/>
<path d="M101.283 13.7467C101.298 14.8585 101.078 15.9608 100.636 16.9809C100.194 18.001 99.5416 18.9157 98.7208 19.6647C99.5428 20.4283 100.196 21.3561 100.637 22.3882C101.078 23.4202 101.298 24.5334 101.283 25.656V29.0822C101.283 33.6461 97.5789 37.3545 93.0918 37.3545H87.1076C86.5047 37.3502 85.9277 37.1085 85.5014 36.6816C85.075 36.2548 84.8336 35.6771 84.8293 35.0734V4.33294C84.8254 4.03229 84.8816 3.7339 84.9947 3.45537C85.1078 3.17683 85.2755 2.9238 85.4878 2.71119C85.7002 2.49858 85.9529 2.33071 86.2311 2.21747C86.5093 2.10423 86.8074 2.04792 87.1076 2.05186H93.0918C97.5789 2.05186 101.283 5.76021 101.283 10.3242V13.7467ZM96.7243 10.3242C96.7301 9.8416 96.6406 9.36261 96.461 8.91474C96.2814 8.46686 96.0152 8.05892 95.6776 7.71435C95.3401 7.36977 94.9379 7.09535 94.4941 6.90683C94.0504 6.71832 93.5738 6.61943 93.0918 6.61585H89.3878V17.3836H93.0918C94.054 17.3798 94.9757 16.9954 95.6561 16.3141C96.3365 15.6329 96.7204 14.7101 96.7243 13.7467V10.3242ZM93.0918 21.9476H89.3878V32.7154H93.0918C94.0533 32.7115 94.9745 32.3276 95.6548 31.6472C96.3351 30.9668 96.7195 30.0449 96.7243 29.0822V25.656C96.7301 25.1734 96.6406 24.6944 96.461 24.2465C96.2814 23.7986 96.0152 23.3907 95.6776 23.0461C95.3401 22.7015 94.9379 22.4271 94.4941 22.2386C94.0504 22.0501 93.5738 21.9512 93.0918 21.9476Z" fill="#002122"/>
<path d="M159.922 12.3928L155.791 19.8095L159.922 27.2243C160.868 28.5562 161.367 30.1543 161.347 31.7883V36.2094C161.339 36.5096 161.217 36.7954 161.005 37.0078C160.793 37.2202 160.507 37.343 160.207 37.3509H157.929C157.629 37.3425 157.344 37.2195 157.133 37.0072C156.921 36.7949 156.798 36.5093 156.791 36.2094V31.7883C156.795 31.3748 156.723 30.9641 156.576 30.5772L153.087 24.4431L149.666 30.5772C149.522 30.9644 149.45 31.375 149.454 31.7883V36.2094C149.446 36.5096 149.324 36.7954 149.111 37.0078C148.899 37.2202 148.614 37.343 148.314 37.3509H146.034C145.734 37.343 145.449 37.2201 145.237 37.0077C145.025 36.7953 144.903 36.5095 144.896 36.2094V31.7883C144.875 30.1544 145.374 28.5563 146.319 27.2243L150.451 19.8095L146.242 12.3928C145.352 11.0386 144.882 9.4502 144.894 7.82878V3.1915C144.892 3.04114 144.92 2.89191 144.977 2.75264C145.033 2.61336 145.117 2.48686 145.223 2.38061C145.33 2.27437 145.456 2.19054 145.595 2.13408C145.735 2.07761 145.884 2.04966 146.034 2.05188H148.314C148.464 2.04992 148.613 2.07804 148.752 2.13459C148.891 2.19114 149.018 2.27498 149.124 2.38118C149.23 2.48737 149.314 2.61377 149.371 2.75293C149.428 2.8921 149.456 3.04121 149.454 3.1915V7.82878C149.456 8.24158 149.528 8.65108 149.666 9.03985L153.087 15.1007L156.575 9.03985C156.715 8.6514 156.787 8.24176 156.789 7.82878V3.1915C156.787 3.04121 156.815 2.8921 156.872 2.75293C156.929 2.61377 157.013 2.48737 157.119 2.38118C157.225 2.27498 157.352 2.19114 157.491 2.13459C157.63 2.07804 157.779 2.04992 157.929 2.05188H160.209C160.359 2.04992 160.508 2.07804 160.647 2.13459C160.786 2.19114 160.913 2.27498 161.019 2.38118C161.125 2.48737 161.209 2.61377 161.266 2.75293C161.323 2.8921 161.351 3.04121 161.349 3.1915V7.82878C161.368 9.46305 160.868 11.0611 159.922 12.3928Z" fill="#002122"/>
<path d="M183 3.1915V13.6753C183.006 15.4585 182.432 17.1951 181.366 18.6232C180.299 20.0513 178.798 21.0933 177.088 21.5922V36.2094C177.068 36.5053 176.942 36.7841 176.732 36.994C176.523 37.2039 176.245 37.3307 175.949 37.3509H173.667C173.367 37.343 173.082 37.2202 172.87 37.0078C172.658 36.7954 172.535 36.5096 172.527 36.2094V21.5922C170.803 21.1093 169.284 20.0735 168.203 18.6435C167.123 17.2136 166.54 15.4683 166.545 13.6753V3.1915C166.543 3.0413 166.571 2.89222 166.628 2.75307C166.684 2.61391 166.768 2.4875 166.874 2.38128C166.98 2.27506 167.106 2.19119 167.245 2.13462C167.384 2.07804 167.533 2.04991 167.683 2.05188H169.963C170.114 2.04967 170.263 2.07761 170.402 2.13405C170.542 2.19049 170.668 2.27429 170.775 2.38051C170.881 2.48673 170.965 2.61321 171.022 2.7525C171.079 2.89179 171.107 3.04106 171.105 3.1915V13.6753C171.105 14.6493 171.492 15.5835 172.18 16.2722C172.868 16.961 173.801 17.3479 174.774 17.3479C175.746 17.3479 176.68 16.961 177.367 16.2722C178.055 15.5835 178.442 14.6493 178.442 13.6753V3.1915C178.44 3.04114 178.468 2.89191 178.525 2.75264C178.581 2.61336 178.665 2.48686 178.771 2.38061C178.878 2.27437 179.004 2.19054 179.143 2.13408C179.283 2.07761 179.432 2.04966 179.582 2.05188H181.86C182.01 2.04992 182.159 2.07804 182.298 2.13459C182.438 2.19114 182.564 2.27498 182.67 2.38118C182.776 2.48737 182.86 2.61377 182.917 2.75293C182.974 2.8921 183.002 3.04121 183 3.1915Z" fill="#002122"/>
<path d="M124.144 0.5C120.292 0.500725 116.527 1.64504 113.324 3.78825C110.122 5.93146 107.626 8.97731 106.152 12.5406C104.679 16.104 104.294 20.0247 105.046 23.8072C105.798 27.5896 107.653 31.0638 110.377 33.7905C113.102 36.5172 116.572 38.3739 120.35 39.1258C124.128 39.8777 128.044 39.4911 131.603 38.0148C135.162 36.5385 138.203 34.0388 140.343 30.8319C142.483 27.625 143.625 23.8548 143.624 19.9982C143.617 14.8282 141.562 9.87217 137.91 6.21697C134.258 2.56177 129.308 0.505816 124.144 0.5ZM124.144 28.472C122.47 28.4717 120.835 27.9745 119.443 27.0434C118.052 26.1122 116.968 24.7889 116.327 23.2408C115.687 21.6927 115.52 19.9894 115.847 18.3461C116.173 16.7028 116.979 15.1934 118.163 14.0087C119.346 12.8241 120.854 12.0174 122.496 11.6906C124.137 11.3639 125.838 11.5317 127.384 12.173C128.931 12.8143 130.252 13.9002 131.182 15.2934C132.111 16.6866 132.608 18.3245 132.608 20C132.605 22.2464 131.712 24.3998 130.125 25.9881C128.539 27.5763 126.388 28.4696 124.144 28.472Z" fill="#02999C"/>
<path d="M121.763 11.8761L119.201 3.09073C116.584 3.86446 114.182 5.23381 112.182 7.09165C110.182 8.94949 108.638 11.2454 107.672 13.7999L116.231 17.0264C116.693 15.7987 117.434 14.6949 118.393 13.8014C119.353 12.9079 120.506 12.2489 121.763 11.8761Z" fill="#06D2D5"/>
<path d="M132.259 22.3873C131.886 23.6443 131.228 24.7978 130.336 25.758C129.444 26.7181 128.342 27.4589 127.117 27.9224L130.338 36.4934C132.888 35.5269 135.181 33.9831 137.036 31.9826C138.892 29.9822 140.26 27.5792 141.034 24.9616L132.259 22.3873Z" fill="#06D2D5"/>
<path d="M124.144 9.25604C122.021 9.25532 119.946 9.88482 118.181 11.0649C116.416 12.2451 115.04 13.9228 114.227 15.8859C113.414 17.8491 113.201 20.0094 113.615 22.0938C114.029 24.1782 115.05 26.0929 116.551 27.5958C118.052 29.0988 119.964 30.1224 122.045 30.5373C124.127 30.9521 126.285 30.7396 128.246 29.9265C130.207 29.1134 131.883 27.7363 133.063 25.9694C134.242 24.2025 134.871 22.1251 134.871 20C134.868 17.1522 133.737 14.422 131.726 12.4079C129.715 10.3939 126.988 9.26041 124.144 9.25604ZM124.144 28.4721C122.47 28.4717 120.835 27.9745 119.443 27.0434C118.052 26.1122 116.968 24.7889 116.327 23.2408C115.687 21.6928 115.52 19.9894 115.847 18.3461C116.173 16.7028 116.979 15.1934 118.163 14.0087C119.346 12.8241 120.854 12.0174 122.496 11.6906C124.137 11.3639 125.838 11.5317 127.384 12.173C128.931 12.8143 130.252 13.9002 131.182 15.2934C132.111 16.6866 132.608 18.3245 132.608 20C132.605 22.2464 131.712 24.3998 130.125 25.9881C128.539 27.5763 126.388 28.4696 124.144 28.4721Z" fill="#02999C"/>
<path d="M124.143 13.6679C122.892 13.6698 121.67 14.0428 120.631 14.74C119.592 15.4371 118.782 16.4271 118.305 17.5847C117.828 18.7423 117.704 20.0157 117.949 21.2438C118.194 22.4719 118.798 23.5996 119.683 24.4844C120.568 25.3692 121.696 25.9714 122.923 26.2149C124.15 26.4583 125.421 26.3321 126.577 25.8522C127.732 25.3722 128.72 24.5601 129.414 23.5184C130.109 22.4768 130.479 21.2524 130.479 20C130.477 18.3193 129.808 16.7082 128.62 15.5208C127.432 14.3334 125.822 13.667 124.143 13.6679ZM124.143 21.4364C123.86 21.4361 123.582 21.3515 123.347 21.1935C123.111 21.0354 122.927 20.8109 122.819 20.5484C122.711 20.2859 122.683 19.9972 122.738 19.7186C122.794 19.4401 122.931 19.1843 123.131 18.9836C123.332 18.7829 123.588 18.6463 123.866 18.591C124.144 18.5357 124.433 18.5643 124.695 18.6731C124.957 18.7818 125.181 18.966 125.338 19.2021C125.496 19.4383 125.58 19.716 125.58 20C125.579 20.3811 125.428 20.7465 125.158 21.0158C124.889 21.2851 124.524 21.4364 124.143 21.4364Z" fill="#002122"/>
</svg>
