<svg width="152" height="32" viewBox="0 0 152 32" fill="none" xmlns="http://www.w3.org/2000/svg">
<g clip-path="url(#clip0_682_79688)">
<path d="M13.607 2.20861V23.5079C13.607 25.2925 12.8902 27.004 11.6143 28.2659C10.3384 29.5279 8.60793 30.2368 6.80352 30.2368C4.99911 30.2368 3.26861 29.5279 1.9927 28.2659C0.716797 27.004 0 25.2925 0 23.5079L0 21.3476C0.00653304 21.1012 0.108399 20.8667 0.284592 20.6925C0.460785 20.5182 0.697871 20.4175 0.94696 20.411H2.83936C2.96411 20.4096 3.08789 20.4329 3.20343 20.4794C3.31896 20.526 3.42392 20.5949 3.51214 20.6822C3.60036 20.7694 3.67006 20.8732 3.71714 20.9875C3.76423 21.1018 3.78775 21.2242 3.78632 21.3476V23.5124C3.78952 24.303 4.10838 25.0603 4.67348 25.6195C5.23858 26.1787 6.00415 26.4944 6.80352 26.498C7.20078 26.5012 7.5947 26.4262 7.96233 26.2772C8.32996 26.1283 8.66393 25.9085 8.94477 25.6306C9.22561 25.3527 9.4477 25.0223 9.59809 24.6586C9.74848 24.2949 9.82416 23.9053 9.82072 23.5124V2.20861C9.82727 1.9624 9.92919 1.72808 10.1054 1.55406C10.2816 1.38004 10.5187 1.27962 10.7677 1.27354H12.6601C12.7848 1.27172 12.9087 1.29465 13.0243 1.34098C13.1399 1.38731 13.245 1.45609 13.3332 1.54327C13.4215 1.63044 13.4912 1.73424 13.5383 1.84852C13.5853 1.9628 13.6087 2.08524 13.607 2.20861Z" fill="#FFF6DF"/>
<path d="M32.1829 2.20861V23.4522C32.1829 27.1971 29.1064 30.2398 25.3794 30.2398C23.5596 30.2386 21.8148 29.5231 20.528 28.2505C19.2412 26.9778 18.5178 25.2521 18.5166 23.4522V2.20861C18.5232 1.9624 18.6251 1.72808 18.8013 1.55406C18.9775 1.38004 19.2146 1.27962 19.4636 1.27354H21.356C21.4806 1.27193 21.6044 1.295 21.7199 1.3414C21.8354 1.3878 21.9404 1.4566 22.0287 1.54373C22.1169 1.63086 22.1866 1.73457 22.2337 1.84876C22.2808 1.96295 22.3044 2.0853 22.3029 2.20861V23.4522C22.3029 24.2515 22.6239 25.0179 23.1953 25.5831C23.7667 26.1482 24.5417 26.4657 25.3498 26.4657C26.1578 26.4657 26.9328 26.1482 27.5042 25.5831C28.0756 25.0179 28.3966 24.2515 28.3966 23.4522V2.20861C28.395 2.08524 28.4183 1.9628 28.4654 1.84852C28.5124 1.73424 28.5821 1.63044 28.6704 1.54327C28.7587 1.45609 28.8637 1.38731 28.9794 1.34098C29.095 1.29465 29.2188 1.27172 29.3436 1.27354H31.236C31.3607 1.27172 31.4845 1.29465 31.6002 1.34098C31.7158 1.38731 31.8208 1.45609 31.9091 1.54327C31.9974 1.63044 32.0671 1.73424 32.1141 1.84852C32.1612 1.9628 32.1846 2.08524 32.1829 2.20861Z" fill="#FFF6DF"/>
<path d="M50.7588 10.8107C50.7582 11.7295 50.5693 12.6387 50.2035 13.4834C49.8378 14.328 49.3028 15.0906 48.6308 15.7251C49.3018 16.3483 49.8368 17.1007 50.2028 17.9361C50.5687 18.7714 50.758 19.672 50.7588 20.5824V29.3017C50.7523 29.5481 50.6504 29.7826 50.4742 29.9568C50.298 30.1311 50.061 30.2318 49.8119 30.2383H47.9195C47.6693 30.233 47.4309 30.1325 47.2537 29.9578C47.0765 29.7831 46.9741 29.5476 46.968 29.3002V20.5809C46.965 20.1849 46.8829 19.7934 46.7265 19.4288C46.5702 19.0643 46.3425 18.7339 46.0566 18.4566C45.7708 18.1793 45.4323 17.9606 45.0608 17.8131C44.6892 17.6655 44.2918 17.592 43.8915 17.5968H40.8788V29.3002C40.8727 29.5464 40.7711 29.7809 40.5952 29.9552C40.4192 30.1295 40.1823 30.2303 39.9334 30.2368H38.0395C37.7896 30.2315 37.5514 30.1312 37.3742 29.9569C37.197 29.7825 37.0945 29.5473 37.088 29.3002V2.20861C37.0865 2.0853 37.11 1.96295 37.1572 1.84876C37.2043 1.73457 37.274 1.63086 37.3622 1.54373C37.4505 1.4566 37.5554 1.3878 37.671 1.3414C37.7865 1.295 37.9102 1.27193 38.0349 1.27354H39.9288C40.0534 1.27192 40.1771 1.295 40.2926 1.34142C40.408 1.38784 40.5129 1.45666 40.601 1.54381C40.6891 1.63097 40.7587 1.73469 40.8056 1.84887C40.8526 1.96305 40.8759 2.08537 40.8743 2.20861V13.8534H43.8915C44.2963 13.8562 44.6976 13.7795 45.0721 13.6275C45.4467 13.4756 45.7869 13.2516 46.0732 12.9685C46.3594 12.6854 46.5859 12.3488 46.7395 11.9784C46.8931 11.608 46.9708 11.2111 46.968 10.8107V2.20861C46.9665 2.0853 46.99 1.96295 47.0372 1.84876C47.0843 1.73457 47.154 1.63086 47.2422 1.54373C47.3305 1.4566 47.4354 1.3878 47.551 1.3414C47.6665 1.295 47.7902 1.27193 47.9149 1.27354H49.8073C49.932 1.27172 50.0559 1.29465 50.1715 1.34098C50.2871 1.38731 50.3922 1.45609 50.4805 1.54327C50.5688 1.63044 50.6385 1.73424 50.6855 1.84852C50.7325 1.9628 50.7559 2.08524 50.7543 2.20861L50.7588 10.8107Z" fill="#FFF6DF"/>
<path d="M59.4549 5.0184V13.8535H64.6001C64.7249 13.8519 64.8487 13.875 64.9642 13.9215C65.0798 13.968 65.1847 14.037 65.2728 14.1243C65.361 14.2116 65.4305 14.3155 65.4774 14.4299C65.5242 14.5442 65.5474 14.6667 65.5456 14.7901V16.6617C65.5474 16.7851 65.5242 16.9076 65.4774 17.0219C65.4305 17.1363 65.361 17.2402 65.2728 17.3275C65.1847 17.4148 65.0798 17.4838 64.9642 17.5303C64.8487 17.5768 64.7249 17.5999 64.6001 17.5983H59.4549V26.4936H64.6001C64.7247 26.4919 64.8484 26.515 64.9638 26.5614C65.0793 26.6079 65.1842 26.6767 65.2723 26.7638C65.3604 26.851 65.43 26.9547 65.4769 27.0689C65.5239 27.1831 65.5472 27.3054 65.5456 27.4286V29.3003C65.5474 29.4236 65.5242 29.5461 65.4774 29.6605C65.4305 29.7748 65.361 29.8787 65.2728 29.9661C65.1847 30.0534 65.0798 30.1223 64.9642 30.1688C64.8487 30.2153 64.7249 30.2385 64.6001 30.2369H57.5625C57.0615 30.2337 56.5818 30.0356 56.2274 29.6853C55.8729 29.335 55.6722 28.8608 55.6686 28.3652V3.14525C55.6655 2.89849 55.7124 2.65363 55.8066 2.42508C55.9007 2.19653 56.0401 1.98893 56.2166 1.8145C56.3931 1.64008 56.6031 1.50236 56.8343 1.40946C57.0654 1.31656 57.313 1.27037 57.5625 1.2736H64.6001C64.7247 1.27198 64.8484 1.29506 64.9638 1.34148C65.0793 1.3879 65.1842 1.45672 65.2723 1.54387C65.3604 1.63102 65.43 1.73475 65.4769 1.84893C65.5239 1.96311 65.5472 2.08543 65.5456 2.20867V4.08183C65.5472 4.20514 65.5239 4.32753 65.4769 4.44179C65.43 4.55605 65.3605 4.65987 65.2724 4.74715C65.1843 4.83442 65.0794 4.90338 64.964 4.94996C64.8485 4.99655 64.7248 5.01982 64.6001 5.0184H59.4549Z" fill="#FFF6DF"/>
<path d="M84.126 10.8694C84.1386 11.7816 83.9554 12.686 83.5886 13.523C83.2218 14.3601 82.6796 15.1106 81.998 15.7252C82.6807 16.3517 83.2228 17.113 83.5894 17.9598C83.9559 18.8066 84.1387 19.72 84.126 20.6411V23.4523C84.126 27.1971 81.0495 30.2399 77.3224 30.2399H72.352C71.8512 30.2363 71.372 30.038 71.0179 29.6878C70.6637 29.3375 70.4632 28.8635 70.4596 28.3682V3.14525C70.4564 2.89856 70.5031 2.65373 70.597 2.42519C70.691 2.19665 70.8302 1.98903 71.0066 1.81459C71.183 1.64014 71.3929 1.5024 71.624 1.40948C71.8551 1.31657 72.1026 1.27036 72.352 1.2736H77.3224C81.0495 1.2736 84.126 4.31635 84.126 8.06116V10.8694ZM80.3396 8.06116C80.3444 7.66518 80.2701 7.27216 80.1209 6.90467C79.9717 6.53719 79.7506 6.20247 79.4703 5.91974C79.1899 5.63701 78.8558 5.41184 78.4873 5.25716C78.1187 5.10249 77.7228 5.02135 77.3224 5.01841H74.246V13.8535H77.3224C78.1217 13.8503 78.8872 13.5349 79.4524 12.976C80.0175 12.417 80.3364 11.6599 80.3396 10.8694V8.06116ZM77.3224 17.5983H74.246V26.4334H77.3224C78.1211 26.4303 78.8863 26.1153 79.4513 25.557C80.0164 24.9987 80.3356 24.2422 80.3396 23.4523V20.6411C80.3444 20.2451 80.2701 19.8521 80.1209 19.4846C79.9717 19.1171 79.7506 18.7824 79.4703 18.4996C79.1899 18.2169 78.8558 17.9918 78.4873 17.8371C78.1187 17.6824 77.7228 17.6013 77.3224 17.5983Z" fill="#FFF6DF"/>
<path d="M132.831 9.75836L129.4 15.8439L132.831 21.9279C133.617 23.0207 134.031 24.3319 134.015 25.6727V29.3002C134.009 29.5466 133.907 29.7811 133.731 29.9553C133.554 30.1296 133.317 30.2303 133.068 30.2368H131.176C130.927 30.23 130.69 30.129 130.514 29.9548C130.338 29.7806 130.237 29.5463 130.23 29.3002V25.6727C130.234 25.3334 130.174 24.9963 130.052 24.679L127.154 19.6458L124.313 24.679C124.193 24.9966 124.133 25.3335 124.137 25.6727V29.3002C124.13 29.5466 124.028 29.7811 123.852 29.9553C123.676 30.1296 123.439 30.2303 123.19 30.2368H121.296C121.047 30.2303 120.81 30.1295 120.634 29.9552C120.458 29.7809 120.356 29.5464 120.35 29.3002V25.6727C120.334 24.332 120.748 23.0208 121.533 21.9279L124.965 15.8439L121.469 9.75836C120.729 8.64722 120.339 7.34396 120.349 6.01355V2.20861C120.347 2.08524 120.371 1.9628 120.418 1.84852C120.465 1.73424 120.534 1.63044 120.623 1.54327C120.711 1.45609 120.816 1.38731 120.932 1.34098C121.047 1.29465 121.171 1.27172 121.296 1.27354H123.19C123.314 1.27193 123.438 1.295 123.554 1.3414C123.669 1.3878 123.774 1.4566 123.862 1.54373C123.951 1.63086 124.02 1.73457 124.067 1.84876C124.115 1.96295 124.138 2.0853 124.137 2.20861V6.01355C124.138 6.35227 124.198 6.68826 124.313 7.00726L127.154 11.9803L130.051 7.00726C130.167 6.68853 130.227 6.35241 130.229 6.01355V2.20861C130.227 2.0853 130.251 1.96295 130.298 1.84876C130.345 1.73457 130.415 1.63086 130.503 1.54373C130.591 1.4566 130.696 1.3878 130.812 1.3414C130.927 1.295 131.051 1.27193 131.176 1.27354H133.07C133.194 1.27193 133.318 1.295 133.434 1.3414C133.549 1.3878 133.654 1.4566 133.742 1.54373C133.831 1.63086 133.9 1.73457 133.947 1.84876C133.995 1.96295 134.018 2.0853 134.017 2.20861V6.01355C134.032 7.3545 133.617 8.66576 132.831 9.75836Z" fill="#FFF6DF"/>
<path d="M152 2.20861V10.8107C152.005 12.2738 151.528 13.6987 150.642 14.8705C149.756 16.0423 148.509 16.8973 147.089 17.3066V29.3002C147.072 29.543 146.968 29.7718 146.794 29.944C146.62 30.1162 146.389 30.2202 146.143 30.2368H144.248C143.999 30.2303 143.762 30.1296 143.586 29.9553C143.409 29.7811 143.308 29.5466 143.301 29.3002V17.3066C141.868 16.9104 140.607 16.0605 139.709 14.8872C138.812 13.7139 138.328 12.2819 138.332 10.8107V2.20861C138.33 2.08537 138.354 1.96305 138.401 1.84887C138.448 1.73469 138.517 1.63097 138.605 1.54381C138.693 1.45666 138.798 1.38784 138.914 1.34142C139.029 1.295 139.153 1.27192 139.278 1.27354H141.171C141.296 1.27172 141.42 1.29465 141.536 1.34096C141.652 1.38727 141.757 1.45603 141.845 1.54318C141.934 1.63034 142.003 1.73412 142.051 1.8484C142.098 1.96269 142.121 2.08517 142.12 2.20861V10.8107C142.12 11.6099 142.441 12.3764 143.012 12.9415C143.584 13.5066 144.359 13.8241 145.167 13.8241C145.975 13.8241 146.75 13.5066 147.321 12.9415C147.893 12.3764 148.214 11.6099 148.214 10.8107V2.20861C148.212 2.08524 148.235 1.9628 148.282 1.84852C148.329 1.73424 148.399 1.63044 148.487 1.54327C148.576 1.45609 148.681 1.38731 148.796 1.34098C148.912 1.29465 149.036 1.27172 149.161 1.27354H151.053C151.178 1.27193 151.301 1.295 151.417 1.3414C151.532 1.3878 151.637 1.4566 151.726 1.54373C151.814 1.63086 151.884 1.73457 151.931 1.84876C151.978 1.96295 152.001 2.0853 152 2.20861Z" fill="#FFF6DF"/>
<path d="M103.114 0C99.9143 0.000594665 96.7868 0.939522 94.1268 2.69805C91.4668 4.45658 89.3938 6.95574 88.1699 9.87949C86.946 12.8033 86.6261 16.0203 87.2508 19.1238C87.8755 22.2274 89.4166 25.078 91.6793 27.3153C93.942 29.5526 96.8247 31.076 99.9628 31.693C103.101 32.3099 106.354 31.9927 109.309 30.7813C112.265 29.57 114.791 27.519 116.569 24.8877C118.346 22.2564 119.294 19.1629 119.294 15.9985C119.288 11.7565 117.581 7.68999 114.548 4.69085C111.515 1.69171 107.403 0.0047724 103.114 0ZM103.114 22.9514C101.724 22.9511 100.365 22.5432 99.2094 21.7792C98.0538 21.0152 97.1531 19.9294 96.6214 18.6592C96.0897 17.3889 95.9507 15.9913 96.2221 14.6429C96.4934 13.2946 97.1629 12.0561 98.1459 11.0841C99.129 10.112 100.381 9.45014 101.745 9.18204C103.108 8.91394 104.521 9.05168 105.805 9.57787C107.09 10.104 108.187 10.995 108.959 12.1382C109.732 13.2813 110.144 14.6252 110.144 16C110.141 17.8432 109.4 19.6101 108.082 20.9133C106.764 22.2165 104.977 22.9494 103.114 22.9514Z" fill="#02999C"/>
<path d="M101.136 9.33447L99.0081 2.12598C96.8348 2.76084 94.8395 3.8844 93.1782 5.40878C91.517 6.93316 90.2348 8.81702 89.4321 10.913L96.5412 13.5603C96.9254 12.553 97.5402 11.6473 98.3373 10.9142C99.1345 10.1811 100.092 9.64037 101.136 9.33447Z" fill="#06D2D5"/>
<path d="M109.855 17.959C109.545 18.9903 108.998 19.9368 108.258 20.7247C107.517 21.5125 106.602 22.1203 105.584 22.5006L108.259 29.5332C110.377 28.7402 112.281 27.4735 113.823 25.8321C115.364 24.1907 116.5 22.219 117.144 20.0712L109.855 17.959Z" fill="#06D2D5"/>
<path d="M103.114 7.18457C101.351 7.18398 99.627 7.70049 98.1608 8.6688C96.6946 9.6371 95.5517 11.0137 94.8766 12.6245C94.2015 14.2353 94.0246 16.0079 94.3682 17.7181C94.7117 19.4284 95.5604 20.9994 96.8068 22.2326C98.0533 23.4658 99.6414 24.3057 101.371 24.6461C103.1 24.9865 104.892 24.8121 106.521 24.1449C108.15 23.4778 109.542 22.3479 110.521 20.8981C111.501 19.4483 112.024 17.7438 112.024 16.0001C112.021 13.6635 111.081 11.4233 109.411 9.77073C107.741 8.11818 105.476 7.18815 103.114 7.18457ZM103.114 22.9516C101.724 22.9513 100.365 22.5433 99.2092 21.7793C98.0536 21.0153 97.1529 19.9295 96.6212 18.6593C96.0895 17.3891 95.9505 15.9914 96.2219 14.6431C96.4932 13.2947 97.1627 12.0562 98.1458 11.0842C99.1288 10.1122 100.381 9.45027 101.744 9.18217C103.108 8.91407 104.521 9.05182 105.805 9.578C107.089 10.1042 108.187 10.9952 108.959 12.1383C109.731 13.2814 110.144 14.6253 110.144 16.0001C110.141 17.8433 109.4 19.6103 108.082 20.9134C106.764 22.2166 104.977 22.9496 103.114 22.9516Z" fill="#02999C"/>
<path d="M103.114 10.8047C102.075 10.8062 101.059 11.1123 100.196 11.6843C99.3332 12.2563 98.6609 13.0686 98.2644 14.0185C97.8679 14.9683 97.765 16.0131 97.9687 17.0208C98.1724 18.0284 98.6736 18.9538 99.409 19.6798C100.144 20.4058 101.081 20.8999 102.1 21.0996C103.119 21.2994 104.175 21.1958 105.135 20.802C106.095 20.4082 106.915 19.7418 107.492 18.8872C108.069 18.0325 108.376 17.0278 108.376 16.0002C108.374 14.6212 107.819 13.2993 106.832 12.325C105.846 11.3507 104.508 10.8039 103.114 10.8047ZM103.114 17.1788C102.878 17.1785 102.648 17.1092 102.452 16.9795C102.256 16.8498 102.104 16.6656 102.014 16.4502C101.924 16.2348 101.901 15.9979 101.947 15.7694C101.993 15.5408 102.106 15.331 102.273 15.1663C102.44 15.0016 102.652 14.8895 102.883 14.8441C103.114 14.7988 103.354 14.8222 103.572 14.9115C103.789 15.0007 103.975 15.1518 104.106 15.3456C104.237 15.5394 104.307 15.7672 104.307 16.0002C104.307 16.3129 104.181 16.6127 103.957 16.8337C103.733 17.0547 103.43 17.1788 103.114 17.1788Z" fill="#FFF6DF"/>
</g>
<defs>
<clipPath id="clip0_682_79688">
<rect width="152" height="32" fill="white"/>
</clipPath>
</defs>
</svg>
