<svg width="32" height="32" viewBox="0 0 32 32" fill="none" xmlns="http://www.w3.org/2000/svg">
<path d="M15.997 0C12.8326 0.000594665 9.73936 0.939521 7.10854 2.69805C4.47771 4.45658 2.42743 6.95574 1.21693 9.87949C0.00643326 12.8033 -0.309906 16.0203 0.307919 19.1238C0.925743 22.2274 2.44999 25.078 4.6879 27.3153C6.92581 29.5526 9.77687 31.076 12.8806 31.693C15.9843 32.3099 19.2013 31.9927 22.1247 30.7813C25.0481 29.57 27.5467 27.519 29.3044 24.8877C31.0622 22.2564 32.0003 19.1629 32 15.9985C31.994 11.7565 30.3059 7.68998 27.306 4.69085C24.306 1.69171 20.239 0.0047724 15.997 0ZM15.997 22.9514C14.6222 22.9511 13.2784 22.5432 12.1354 21.7792C10.9924 21.0152 10.1017 19.9294 9.57579 18.6591C9.04988 17.3889 8.91244 15.9913 9.18083 14.6429C9.44923 13.2946 10.1114 12.0561 11.0836 11.0841C12.0559 10.112 13.2945 9.45014 14.6429 9.18203C15.9913 8.91393 17.3889 9.05168 18.659 9.57786C19.9292 10.104 21.0147 10.995 21.7785 12.1382C22.5423 13.2813 22.9499 14.6252 22.9499 16C22.9475 17.8432 22.2142 19.6101 20.9107 20.9133C19.6073 22.2165 17.8402 22.9494 15.997 22.9514Z" fill="#02999C"/>
<path d="M14.041 9.33447L11.9363 2.12598C9.78686 2.76084 7.8134 3.8844 6.17036 5.40878C4.52732 6.93316 3.25924 8.81701 2.46533 10.913L9.49643 13.5603C9.87645 12.553 10.4845 11.6473 11.2729 10.9142C12.0613 10.1811 13.0088 9.64037 14.041 9.33447Z" fill="#06D2D5"/>
<path d="M22.6643 17.959C22.3577 18.9903 21.817 19.9368 21.0842 20.7247C20.3514 21.5125 19.4464 22.1203 18.4399 22.5006L21.0858 29.5332C23.1808 28.7402 25.064 27.4735 26.5883 25.8321C28.1126 24.1906 29.2367 22.219 29.8728 20.0712L22.6643 17.959Z" fill="#06D2D5"/>
<path d="M15.9968 7.18457C14.2531 7.18398 12.5484 7.70049 11.0983 8.6688C9.6482 9.6371 8.51783 11.0137 7.85014 12.6245C7.18245 14.2353 7.00744 16.0079 7.34725 17.7181C7.68706 19.4284 8.52642 20.9994 9.75918 22.2326C10.9919 23.4658 12.5627 24.3057 14.2728 24.6461C15.983 24.9865 17.7557 24.8121 19.3667 24.1449C20.9777 23.4778 22.3546 22.3479 23.3234 20.8981C24.2922 19.4483 24.8093 17.7438 24.8093 16.0001C24.8066 13.6635 23.8773 11.4233 22.2253 9.77072C20.5733 8.11818 18.3334 7.18815 15.9968 7.18457ZM15.9968 22.9515C14.622 22.9513 13.2782 22.5433 12.1352 21.7793C10.9922 21.0153 10.1015 19.9295 9.57559 18.6593C9.04968 17.389 8.91224 15.9914 9.18063 14.6431C9.44902 13.2947 10.1112 12.0562 11.0834 11.0842C12.0557 10.1122 13.2943 9.45027 14.6427 9.18217C15.9911 8.91407 17.3887 9.05182 18.6588 9.578C19.929 10.1042 21.0145 10.9952 21.7783 12.1383C22.5421 13.2814 22.9497 14.6253 22.9497 16.0001C22.9473 17.8433 22.214 19.6102 20.9105 20.9134C19.6071 22.2166 17.84 22.9496 15.9968 22.9515Z" fill="#02999C"/>
<path d="M15.9971 10.8047C14.9695 10.8062 13.9654 11.1123 13.1117 11.6843C12.258 12.2563 11.5931 13.0686 11.2009 14.0185C10.8088 14.9683 10.707 16.0131 10.9085 17.0208C11.11 18.0284 11.6057 18.9537 12.333 19.6798C13.0603 20.4058 13.9864 20.8999 14.9944 21.0996C16.0025 21.2994 17.0471 21.1958 17.9962 20.802C18.9454 20.4082 19.7565 19.7418 20.3271 18.8872C20.8976 18.0325 21.202 17.0278 21.2017 16.0002C21.2001 14.6212 20.651 13.2993 19.675 12.325C18.699 11.3507 17.3762 10.8039 15.9971 10.8047ZM15.9971 17.1788C15.7641 17.1785 15.5364 17.1092 15.3427 16.9795C15.1491 16.8498 14.9983 16.6656 14.9093 16.4502C14.8203 16.2348 14.7972 15.9979 14.8429 15.7694C14.8885 15.5408 15.0009 15.331 15.1658 15.1663C15.3307 15.0016 15.5407 14.8895 15.7693 14.8441C15.9978 14.7988 16.2347 14.8222 16.45 14.9115C16.6653 15.0007 16.8493 15.1518 16.9787 15.3456C17.1082 15.5394 17.1773 15.7672 17.1773 16.0002C17.1769 16.3129 17.0523 16.6127 16.8311 16.8337C16.6098 17.0547 16.3099 17.1788 15.9971 17.1788Z" fill="#061F20"/>
</svg>
