<svg width="43" height="42" viewBox="0 0 43 42" fill="none" xmlns="http://www.w3.org/2000/svg">
<path d="M18 29.6627H11.3675C5.47 29.6627 4 28.1927 4 22.2952V11.7952C4 5.89773 5.47 4.42773 11.3675 4.42773H29.795C35.6925 4.42773 37.1625 5.89773 37.1625 11.7952" stroke="#028588" stroke-width="2.69" stroke-linecap="round" stroke-linejoin="round"/>
<path d="M18 37.5721V29.6621" stroke="#028588" stroke-width="2.69" stroke-linecap="round" stroke-linejoin="round"/>
<path d="M4 22.6621H18" stroke="#028588" stroke-width="2.69" stroke-linecap="round" stroke-linejoin="round"/>
<path d="M12.2949 37.5723H17.9999" stroke="#028588" stroke-width="2.69" stroke-linecap="round" stroke-linejoin="round"/>
<path d="M39.0002 22.3997V32.3922C39.0002 36.5397 37.9677 37.5722 33.8202 37.5722H27.6077C23.4602 37.5722 22.4277 36.5397 22.4277 32.3922V22.3997C22.4277 18.2522 23.4602 17.2197 27.6077 17.2197H33.8202C37.9677 17.2197 39.0002 18.2522 39.0002 22.3997Z" stroke="#028588" stroke-width="2.69" stroke-linecap="round" stroke-linejoin="round"/>
<path d="M30.6779 31.9375H30.6936" stroke="#028588" stroke-width="2.69" stroke-linecap="round" stroke-linejoin="round"/>
</svg>
