<svg width="43" height="42" viewBox="0 0 43 42" fill="none" xmlns="http://www.w3.org/2000/svg">
<path d="M16.25 31.4999V11.1219C16.25 10.2792 16.25 9.85786 16.4033 9.51612C16.5384 9.21488 16.756 8.95802 17.031 8.7752C17.3428 8.56779 17.7585 8.49853 18.5897 8.35999L33.9897 5.79332C35.1114 5.60637 35.6722 5.5129 36.1093 5.67525C36.4929 5.81771 36.8144 6.09008 37.018 6.44501C37.25 6.84947 37.25 7.41805 37.25 8.55522V27.9999M16.25 31.4999C16.25 34.3994 13.8995 36.7499 11 36.7499C8.10051 36.7499 5.75 34.3994 5.75 31.4999C5.75 28.6004 8.10051 26.2499 11 26.2499C13.8995 26.2499 16.25 28.6004 16.25 31.4999ZM37.25 27.9999C37.25 30.8994 34.8995 33.2499 32 33.2499C29.1005 33.2499 26.75 30.8994 26.75 27.9999C26.75 25.1004 29.1005 22.7499 32 22.7499C34.8995 22.7499 37.25 25.1004 37.25 27.9999Z" stroke="#028588" stroke-width="2.69" stroke-linecap="round" stroke-linejoin="round"/>
</svg>
