<svg width="36" height="35" viewBox="0 0 36 35" fill="none" xmlns="http://www.w3.org/2000/svg">
<rect x="0.72168" y="0.0380859" width="34.9238" height="34.9238" rx="17.4619" fill="white" fill-opacity="0.4"/>
<path d="M14.9658 13.8936C14.9658 13.3045 14.9658 13.01 15.0886 12.8476C15.1956 12.7061 15.3592 12.6186 15.5362 12.6081C15.7395 12.5959 15.9845 12.7593 16.4747 13.0861L22.853 17.3383C23.258 17.6083 23.4605 17.7433 23.5311 17.9134C23.5928 18.0622 23.5928 18.2294 23.5311 18.3781C23.4605 18.5483 23.258 18.6833 22.853 18.9533L16.4747 23.2055C15.9845 23.5323 15.7395 23.6957 15.5362 23.6835C15.3592 23.673 15.1956 23.5854 15.0886 23.444C14.9658 23.2816 14.9658 22.9871 14.9658 22.398L14.9658 13.8936Z" fill="#FFFDF7" stroke="#FFFDF7" stroke-width="1.31788" stroke-linecap="round" stroke-linejoin="round"/>
</svg>
