<svg width="22" height="23" viewBox="0 0 22 23" fill="none" xmlns="http://www.w3.org/2000/svg">
<path d="M11 21.2393C16.5228 21.2393 21 16.7621 21 11.2393C21 5.71641 16.5228 1.23926 11 1.23926C5.47715 1.23926 1 5.71641 1 11.2393C1 16.7621 5.47715 21.2393 11 21.2393Z" stroke="#4D5761" stroke-width="2" stroke-linecap="round" stroke-linejoin="round"/>
<path d="M8.5 8.20459C8.5 7.72731 8.5 7.48866 8.59974 7.35543C8.68666 7.23933 8.81971 7.16669 8.96438 7.15636C9.13038 7.1445 9.33112 7.27355 9.73261 7.53165L14.4532 10.5663C14.8016 10.7903 14.9758 10.9023 15.0359 11.0446C15.0885 11.1691 15.0885 11.3095 15.0359 11.4339C14.9758 11.5763 14.8016 11.6882 14.4532 11.9122L9.73261 14.9469C9.33112 15.205 9.13038 15.334 8.96438 15.3222C8.81971 15.3118 8.68666 15.2392 8.59974 15.1231C8.5 14.9899 8.5 14.7512 8.5 14.2739V8.20459Z" stroke="#4D5761" stroke-width="2" stroke-linecap="round" stroke-linejoin="round"/>
</svg>
