<svg width="17" height="17" viewBox="0 0 17 17" fill="none" xmlns="http://www.w3.org/2000/svg">
<path d="M3.84814 5.42237C3.84814 4.72013 3.84814 4.36902 3.99209 4.18868C4.11729 4.03185 4.30712 3.94061 4.5078 3.94082C4.73854 3.94107 5.01272 4.16041 5.56107 4.59909L9.40846 7.677C9.76023 7.95842 9.93612 8.09913 9.9998 8.26912C10.0556 8.41817 10.0556 8.58239 9.9998 8.73143C9.93612 8.90143 9.76023 9.04213 9.40846 9.32355L5.56107 12.4015C5.01272 12.8401 4.73854 13.0595 4.5078 13.0597C4.30712 13.06 4.11729 12.9687 3.99209 12.8119C3.84814 12.6315 3.84814 12.2804 3.84814 11.5782L3.84814 5.42237Z" fill="#FFFDF7"/>
<path d="M13.0733 3.8877L13.0733 13.1129M5.56107 12.4015L9.40846 9.32355C9.76023 9.04213 9.93612 8.90143 9.9998 8.73143C10.0556 8.58239 10.0556 8.41817 9.9998 8.26912C9.93612 8.09913 9.76023 7.95842 9.40846 7.677L5.56107 4.59909C5.01272 4.16041 4.73854 3.94107 4.5078 3.94082C4.30712 3.94061 4.11729 4.03185 3.99209 4.18868C3.84814 4.36902 3.84814 4.72013 3.84814 5.42237L3.84814 11.5782C3.84814 12.2804 3.84814 12.6315 3.99209 12.8119C4.11729 12.9687 4.30712 13.06 4.5078 13.0597C4.73854 13.0595 5.01272 12.8401 5.56107 12.4015Z" stroke="#FFFDF7" stroke-width="1.31788" stroke-linecap="round" stroke-linejoin="round"/>
</svg>
