<svg width="16" height="17" viewBox="0 0 16 17" fill="none" xmlns="http://www.w3.org/2000/svg">
<path d="M12.5201 11.5782C12.5201 12.2804 12.5201 12.6315 12.3761 12.8119C12.2509 12.9687 12.0611 13.06 11.8604 13.0597C11.6297 13.0595 11.3555 12.8401 10.8072 12.4015L6.95978 9.32355C6.608 9.04213 6.43212 8.90143 6.36844 8.73143C6.3126 8.58239 6.3126 8.41817 6.36844 8.26912C6.43212 8.09913 6.608 7.95842 6.95978 7.67701L10.8072 4.59909C11.3555 4.16041 11.6297 3.94107 11.8604 3.94082C12.0611 3.94061 12.2509 4.03185 12.3761 4.18868C12.5201 4.36902 12.5201 4.72013 12.5201 5.42237L12.5201 11.5782Z" fill="#FFFDF7"/>
<path d="M3.29492 13.1129L3.29492 3.8877M10.8072 4.59909L6.95978 7.67701C6.608 7.95842 6.43212 8.09913 6.36844 8.26912C6.3126 8.41817 6.3126 8.58239 6.36844 8.73143C6.43212 8.90143 6.608 9.04213 6.95978 9.32355L10.8072 12.4015C11.3555 12.8401 11.6297 13.0595 11.8604 13.0597C12.0611 13.06 12.2509 12.9687 12.3761 12.8119C12.5201 12.6315 12.5201 12.2804 12.5201 11.5782L12.5201 5.42237C12.5201 4.72013 12.5201 4.36902 12.3761 4.18868C12.2509 4.03185 12.0611 3.94061 11.8604 3.94082C11.6297 3.94107 11.3555 4.16041 10.8072 4.59909Z" stroke="#FFFDF7" stroke-width="1.31788" stroke-linecap="round" stroke-linejoin="round"/>
</svg>
