<svg width="24" height="25" viewBox="0 0 24 25" fill="none" xmlns="http://www.w3.org/2000/svg">
<path d="M12 2.51445C15.2063 2.51445 15.5859 2.52852 16.8469 2.58477C18.0188 2.63633 18.6516 2.8332 19.0734 2.99727C19.6312 3.21289 20.0344 3.47539 20.4516 3.89258C20.8734 4.31445 21.1312 4.71289 21.3469 5.2707C21.5109 5.69258 21.7078 6.33008 21.7594 7.49726C21.8156 8.76289 21.8297 9.14258 21.8297 12.3441C21.8297 15.5504 21.8156 15.9301 21.7594 17.191C21.7078 18.3629 21.5109 18.9957 21.3469 19.4176C21.1312 19.9754 20.8687 20.3785 20.4516 20.7957C20.0297 21.2176 19.6312 21.4754 19.0734 21.691C18.6516 21.8551 18.0141 22.052 16.8469 22.1035C15.5813 22.1598 15.2016 22.1738 12 22.1738C8.79375 22.1738 8.41406 22.1598 7.15313 22.1035C5.98125 22.052 5.34844 21.8551 4.92656 21.691C4.36875 21.4754 3.96562 21.2129 3.54844 20.7957C3.12656 20.3738 2.86875 19.9754 2.65312 19.4176C2.48906 18.9957 2.29219 18.3582 2.24063 17.191C2.18437 15.9254 2.17031 15.5457 2.17031 12.3441C2.17031 9.13789 2.18437 8.7582 2.24063 7.49726C2.29219 6.32539 2.48906 5.69258 2.65312 5.2707C2.86875 4.71289 3.13125 4.30977 3.54844 3.89258C3.97031 3.4707 4.36875 3.21289 4.92656 2.99727C5.34844 2.8332 5.98594 2.63633 7.15313 2.58477C8.41406 2.52852 8.79375 2.51445 12 2.51445ZM12 0.353516C8.74219 0.353516 8.33437 0.367578 7.05469 0.423828C5.77969 0.480078 4.90312 0.686328 4.14375 0.981641C3.35156 1.29102 2.68125 1.69883 2.01563 2.36914C1.34531 3.03477 0.9375 3.70508 0.628125 4.49258C0.332812 5.25664 0.126562 6.12851 0.0703125 7.40351C0.0140625 8.68789 0 9.0957 0 12.3535C0 15.6113 0.0140625 16.0191 0.0703125 17.2988C0.126562 18.5738 0.332812 19.4504 0.628125 20.2098C0.9375 21.002 1.34531 21.6723 2.01563 22.3379C2.68125 23.0035 3.35156 23.416 4.13906 23.7207C4.90312 24.016 5.775 24.2223 7.05 24.2785C8.32969 24.3348 8.7375 24.3488 11.9953 24.3488C15.2531 24.3488 15.6609 24.3348 16.9406 24.2785C18.2156 24.2223 19.0922 24.016 19.8516 23.7207C20.6391 23.416 21.3094 23.0035 21.975 22.3379C22.6406 21.6723 23.0531 21.002 23.3578 20.2145C23.6531 19.4504 23.8594 18.5785 23.9156 17.3035C23.9719 16.0238 23.9859 15.616 23.9859 12.3582C23.9859 9.10039 23.9719 8.69258 23.9156 7.41289C23.8594 6.13789 23.6531 5.26133 23.3578 4.50195C23.0625 3.70508 22.6547 3.03477 21.9844 2.36914C21.3188 1.70352 20.6484 1.29102 19.8609 0.986328C19.0969 0.691016 18.225 0.484766 16.95 0.428516C15.6656 0.367578 15.2578 0.353516 12 0.353516Z" fill="#FFFDF7"/>
<path d="M12 6.18945C8.59688 6.18945 5.83594 8.95039 5.83594 12.3535C5.83594 15.7566 8.59688 18.5176 12 18.5176C15.4031 18.5176 18.1641 15.7566 18.1641 12.3535C18.1641 8.95039 15.4031 6.18945 12 6.18945ZM12 16.352C9.79219 16.352 8.00156 14.5613 8.00156 12.3535C8.00156 10.1457 9.79219 8.35508 12 8.35508C14.2078 8.35508 15.9984 10.1457 15.9984 12.3535C15.9984 14.5613 14.2078 16.352 12 16.352Z" fill="#FFFDF7"/>
<path d="M19.8469 5.94492C19.8469 6.7418 19.2 7.38399 18.4078 7.38399C17.6109 7.38399 16.9688 6.73711 16.9688 5.94492C16.9688 5.14805 17.6156 4.50586 18.4078 4.50586C19.2 4.50586 19.8469 5.15274 19.8469 5.94492Z" fill="#FFFDF7"/>
</svg>
