<svg width="107" height="14" viewBox="0 0 107 14" fill="none" xmlns="http://www.w3.org/2000/svg">
<path d="M7.21 7.759C7.24733 7.73567 7.27767 7.717 7.301 7.703C7.329 7.68433 7.357 7.675 7.385 7.675C7.43633 7.675 7.47133 7.682 7.49 7.696C7.50867 7.71 7.532 7.731 7.56 7.759L7.987 8.207C7.721 8.515 7.39433 8.75533 7.007 8.928C6.61967 9.096 6.15533 9.18 5.614 9.18C5.15667 9.18 4.739 9.10067 4.361 8.942C3.98767 8.78333 3.66567 8.56167 3.395 8.277C3.129 7.99233 2.92133 7.654 2.772 7.262C2.62733 6.87 2.555 6.44067 2.555 5.974C2.555 5.50267 2.63433 5.071 2.793 4.679C2.95633 4.28233 3.18033 3.944 3.465 3.664C3.74967 3.37933 4.08567 3.16 4.473 3.006C4.865 2.84733 5.28967 2.768 5.747 2.768C6.251 2.768 6.68033 2.84733 7.035 3.006C7.38967 3.16467 7.7 3.37233 7.966 3.629L7.644 4.084C7.62067 4.112 7.59033 4.14 7.553 4.168C7.51567 4.196 7.469 4.21 7.413 4.21C7.34767 4.21 7.27767 4.18433 7.203 4.133C7.133 4.08167 7.03967 4.02567 6.923 3.965C6.80633 3.89967 6.65933 3.84133 6.482 3.79C6.30467 3.734 6.07833 3.706 5.803 3.706C5.47633 3.706 5.18 3.75967 4.914 3.867C4.65267 3.96967 4.42867 4.119 4.242 4.315C4.06 4.511 3.91767 4.749 3.815 5.029C3.717 5.309 3.668 5.624 3.668 5.974C3.668 6.33333 3.717 6.65533 3.815 6.94C3.91767 7.22 4.05767 7.45567 4.235 7.647C4.41233 7.83833 4.62467 7.98533 4.872 8.088C5.11933 8.186 5.38767 8.235 5.677 8.235C5.901 8.235 6.09 8.221 6.244 8.193C6.398 8.165 6.531 8.12767 6.643 8.081C6.755 8.03433 6.853 7.983 6.937 7.927C7.02567 7.871 7.11667 7.815 7.21 7.759ZM0.476 5.988C0.476 5.51667 0.536667 5.064 0.658 4.63C0.779333 4.19133 0.949667 3.783 1.169 3.405C1.393 3.02233 1.66133 2.677 1.974 2.369C2.28667 2.05633 2.632 1.788 3.01 1.564C3.388 1.34 3.794 1.16733 4.228 1.046C4.662 0.924666 5.11467 0.863999 5.586 0.863999C6.05733 0.863999 6.51 0.924666 6.944 1.046C7.38267 1.16733 7.791 1.34 8.169 1.564C8.547 1.788 8.89233 2.05633 9.205 2.369C9.51767 2.677 9.78367 3.02233 10.003 3.405C10.227 3.783 10.3997 4.19133 10.521 4.63C10.6423 5.064 10.703 5.51667 10.703 5.988C10.703 6.45467 10.6423 6.90733 10.521 7.346C10.3997 7.78 10.227 8.186 10.003 8.564C9.78367 8.942 9.51767 9.28733 9.205 9.6C8.89233 9.908 8.547 10.174 8.169 10.398C7.791 10.622 7.38267 10.7947 6.944 10.916C6.51 11.0373 6.05733 11.098 5.586 11.098C5.11467 11.098 4.662 11.0373 4.228 10.916C3.794 10.7947 3.388 10.622 3.01 10.398C2.632 10.174 2.28667 9.908 1.974 9.6C1.66133 9.28733 1.393 8.942 1.169 8.564C0.949667 8.186 0.779333 7.78 0.658 7.346C0.536667 6.912 0.476 6.45933 0.476 5.988ZM1.176 5.988C1.176 6.40333 1.22733 6.80233 1.33 7.185C1.43267 7.56767 1.57967 7.927 1.771 8.263C1.96233 8.59433 2.191 8.89533 2.457 9.166C2.723 9.43667 3.01933 9.67 3.346 9.866C3.67267 10.0573 4.025 10.2067 4.403 10.314C4.781 10.4167 5.17533 10.468 5.586 10.468C6.202 10.468 6.77833 10.3513 7.315 10.118C7.85633 9.88467 8.32533 9.56733 8.722 9.166C9.12333 8.76 9.43833 8.28633 9.667 7.745C9.90033 7.199 10.017 6.61333 10.017 5.988C10.017 5.57267 9.96333 5.17133 9.856 4.784C9.75333 4.39667 9.60633 4.03733 9.415 3.706C9.22367 3.37 8.99267 3.06433 8.722 2.789C8.456 2.51367 8.15967 2.28033 7.833 2.089C7.50633 1.893 7.15167 1.74133 6.769 1.634C6.391 1.52667 5.99667 1.473 5.586 1.473C4.97 1.473 4.39367 1.592 3.857 1.83C3.32033 2.06333 2.85367 2.38533 2.457 2.796C2.06033 3.202 1.74767 3.68033 1.519 4.231C1.29033 4.777 1.176 5.36267 1.176 5.988ZM18.868 7.535C18.868 8.095 18.798 8.59667 18.658 9.04C18.5226 9.48333 18.3196 9.859 18.049 10.167C17.783 10.4703 17.454 10.7037 17.062 10.867C16.67 11.0303 16.2196 11.112 15.711 11.112C15.2583 11.112 14.787 11.0467 14.297 10.916C14.3063 10.7807 14.318 10.6477 14.332 10.517C14.346 10.3817 14.36 10.2487 14.374 10.118C14.3833 10.0387 14.4113 9.97567 14.458 9.929C14.5093 9.87767 14.584 9.852 14.682 9.852C14.766 9.852 14.878 9.873 15.018 9.915C15.158 9.957 15.3446 9.978 15.578 9.978C15.886 9.978 16.159 9.93133 16.397 9.838C16.6396 9.74467 16.8426 9.6 17.006 9.404C17.174 9.208 17.3 8.95833 17.384 8.655C17.4726 8.347 17.517 7.983 17.517 7.563V0.968999H18.868V7.535ZM22.1977 3.909V8.431C22.1977 8.96767 22.3213 9.383 22.5687 9.677C22.816 9.971 23.1893 10.118 23.6887 10.118C24.0527 10.118 24.3957 10.0317 24.7177 9.859C25.0397 9.68633 25.336 9.446 25.6067 9.138V3.909H26.8527V11H26.1107C25.9333 11 25.8213 10.9137 25.7747 10.741L25.6767 9.978C25.3687 10.3187 25.0233 10.594 24.6407 10.804C24.258 11.0093 23.8193 11.112 23.3247 11.112C22.9373 11.112 22.5943 11.049 22.2957 10.923C22.0017 10.7923 21.7543 10.6103 21.5537 10.377C21.353 10.1437 21.2013 9.86133 21.0987 9.53C21.0007 9.19867 20.9517 8.83233 20.9517 8.431V3.909H22.1977ZM30.194 0.689V6.758H30.516C30.6093 6.758 30.6863 6.74633 30.747 6.723C30.8076 6.695 30.8753 6.64133 30.95 6.562L33.19 4.161C33.26 4.08633 33.33 4.02567 33.4 3.979C33.47 3.93233 33.5633 3.909 33.68 3.909H34.814L32.203 6.688C32.1376 6.76733 32.0723 6.83733 32.007 6.898C31.9463 6.95867 31.8763 7.01233 31.797 7.059C31.881 7.115 31.9556 7.18033 32.021 7.255C32.091 7.325 32.1563 7.40667 32.217 7.5L34.989 11H33.869C33.7663 11 33.6776 10.9813 33.603 10.944C33.533 10.902 33.4653 10.839 33.4 10.755L31.069 7.85C30.999 7.752 30.929 7.689 30.859 7.661C30.789 7.62833 30.684 7.612 30.544 7.612H30.194V11H28.941V0.689H30.194ZM38.6239 3.797C39.0486 3.797 39.4406 3.86933 39.7999 4.014C40.1593 4.154 40.4696 4.35933 40.7309 4.63C40.9923 4.896 41.1953 5.22733 41.3399 5.624C41.4893 6.016 41.5639 6.464 41.5639 6.968C41.5639 7.164 41.5429 7.29467 41.5009 7.36C41.4589 7.42533 41.3796 7.458 41.2629 7.458H36.5449C36.5543 7.906 36.6149 8.29567 36.7269 8.627C36.8389 8.95833 36.9929 9.236 37.1889 9.46C37.3849 9.67933 37.6183 9.845 37.8889 9.957C38.1596 10.0643 38.4629 10.118 38.7989 10.118C39.1116 10.118 39.3799 10.083 39.6039 10.013C39.8326 9.93833 40.0286 9.859 40.1919 9.775C40.3553 9.691 40.4906 9.614 40.5979 9.544C40.7099 9.46933 40.8056 9.432 40.8849 9.432C40.9876 9.432 41.0669 9.47167 41.1229 9.551L41.4729 10.006C41.3189 10.1927 41.1346 10.356 40.9199 10.496C40.7053 10.6313 40.4743 10.7433 40.2269 10.832C39.9843 10.9207 39.7323 10.986 39.4709 11.028C39.2096 11.0747 38.9506 11.098 38.6939 11.098C38.2039 11.098 37.7513 11.0163 37.3359 10.853C36.9253 10.685 36.5683 10.4423 36.2649 10.125C35.9663 9.803 35.7329 9.40633 35.5649 8.935C35.3969 8.46367 35.3129 7.92233 35.3129 7.311C35.3129 6.81633 35.3876 6.35433 35.5369 5.925C35.6909 5.49567 35.9103 5.12467 36.1949 4.812C36.4796 4.49467 36.8273 4.24733 37.2379 4.07C37.6486 3.888 38.1106 3.797 38.6239 3.797ZM38.6519 4.714C38.0499 4.714 37.5763 4.889 37.2309 5.239C36.8856 5.58433 36.6709 6.065 36.5869 6.681H40.4439C40.4439 6.39167 40.4043 6.128 40.3249 5.89C40.2456 5.64733 40.1289 5.43967 39.9749 5.267C39.8209 5.08967 39.6319 4.95433 39.4079 4.861C39.1886 4.763 38.9366 4.714 38.6519 4.714ZM43.2007 11V0.689H44.4537V4.931C44.7477 4.59033 45.0837 4.31733 45.4617 4.112C45.8444 3.902 46.2807 3.797 46.7707 3.797C47.1814 3.797 47.5524 3.874 47.8837 4.028C48.2151 4.182 48.4974 4.413 48.7307 4.721C48.9641 5.02433 49.1437 5.40233 49.2697 5.855C49.3957 6.303 49.4587 6.821 49.4587 7.409C49.4587 7.93167 49.3887 8.41933 49.2487 8.872C49.1087 9.32 48.9057 9.70967 48.6397 10.041C48.3784 10.3677 48.0564 10.6267 47.6737 10.818C47.2957 11.0047 46.8687 11.098 46.3927 11.098C45.9354 11.098 45.5457 11.0093 45.2237 10.832C44.9064 10.6547 44.6287 10.4073 44.3907 10.09L44.3277 10.734C44.2904 10.9113 44.1831 11 44.0057 11H43.2007ZM46.3647 4.791C45.9587 4.791 45.6017 4.88433 45.2937 5.071C44.9904 5.25767 44.7104 5.52133 44.4537 5.862V9.292C44.6777 9.6 44.9251 9.817 45.1957 9.943C45.4711 10.069 45.7767 10.132 46.1127 10.132C46.7754 10.132 47.2841 9.89633 47.6387 9.425C47.9934 8.95367 48.1707 8.28167 48.1707 7.409C48.1707 6.947 48.1287 6.55033 48.0447 6.219C47.9654 5.88767 47.8487 5.617 47.6947 5.407C47.5407 5.19233 47.3517 5.036 47.1277 4.938C46.9037 4.84 46.6494 4.791 46.3647 4.791ZM53.849 3.797C54.367 3.797 54.8337 3.88333 55.249 4.056C55.669 4.22867 56.0237 4.47367 56.313 4.791C56.607 5.10833 56.831 5.49333 56.985 5.946C57.1437 6.394 57.223 6.89567 57.223 7.451C57.223 8.011 57.1437 8.515 56.985 8.963C56.831 9.411 56.607 9.79367 56.313 10.111C56.0237 10.4283 55.669 10.6733 55.249 10.846C54.8337 11.014 54.367 11.098 53.849 11.098C53.331 11.098 52.862 11.014 52.442 10.846C52.0267 10.6733 51.672 10.4283 51.378 10.111C51.084 9.79367 50.8577 9.411 50.699 8.963C50.5404 8.515 50.461 8.011 50.461 7.451C50.461 6.89567 50.5404 6.394 50.699 5.946C50.8577 5.49333 51.084 5.10833 51.378 4.791C51.672 4.47367 52.0267 4.22867 52.442 4.056C52.862 3.88333 53.331 3.797 53.849 3.797ZM53.849 10.125C54.549 10.125 55.0717 9.89167 55.417 9.425C55.7624 8.95367 55.935 8.298 55.935 7.458C55.935 6.61333 55.7624 5.95533 55.417 5.484C55.0717 5.01267 54.549 4.777 53.849 4.777C53.4944 4.777 53.1864 4.83767 52.925 4.959C52.6637 5.08033 52.4444 5.25533 52.267 5.484C52.0944 5.71267 51.9637 5.995 51.875 6.331C51.791 6.66233 51.749 7.038 51.749 7.458C51.749 7.878 51.791 8.25367 51.875 8.585C51.9637 8.91633 52.0944 9.19633 52.267 9.425C52.4444 9.649 52.6637 9.82167 52.925 9.943C53.1864 10.0643 53.4944 10.125 53.849 10.125ZM59.9935 7.367L57.6065 3.909H58.8035C58.9062 3.909 58.9808 3.92533 59.0275 3.958C59.0742 3.99067 59.1162 4.03733 59.1535 4.098L60.8895 6.758C60.9315 6.62733 60.9922 6.49667 61.0715 6.366L62.5975 4.126C62.6442 4.06067 62.6908 4.00933 62.7375 3.972C62.7842 3.93 62.8425 3.909 62.9125 3.909H64.0605L61.6735 7.297L64.1585 11H62.9615C62.8588 11 62.7772 10.9743 62.7165 10.923C62.6605 10.867 62.6138 10.8063 62.5765 10.741L60.7915 7.962C60.7588 8.09733 60.7098 8.21867 60.6445 8.326L58.9925 10.741C58.9458 10.8063 58.8945 10.867 58.8385 10.923C58.7872 10.9743 58.7148 11 58.6215 11H57.5085L59.9935 7.367ZM67.4682 13.093C67.4262 13.1863 67.3725 13.261 67.3072 13.317C67.2465 13.373 67.1509 13.401 67.0202 13.401H66.0962L67.3912 10.587L64.4652 3.909H65.5432C65.6505 3.909 65.7345 3.937 65.7952 3.993C65.8559 4.04433 65.9002 4.10267 65.9282 4.168L67.8252 8.634C67.8672 8.73667 67.9022 8.83933 67.9302 8.942C67.9629 9.04467 67.9909 9.14967 68.0142 9.257C68.0469 9.14967 68.0795 9.04467 68.1122 8.942C68.1449 8.83933 68.1822 8.73433 68.2242 8.627L70.0652 4.168C70.0932 4.09333 70.1399 4.03267 70.2052 3.986C70.2752 3.93467 70.3499 3.909 70.4292 3.909H71.4232L67.4682 13.093ZM78.4453 0.856999C78.8699 0.856999 79.2666 0.919999 79.6353 1.046C80.0039 1.172 80.3213 1.35633 80.5873 1.599C80.8579 1.837 81.0703 2.12867 81.2243 2.474C81.3783 2.81933 81.4553 3.21133 81.4553 3.65C81.4553 4.02333 81.3993 4.36867 81.2873 4.686C81.1753 5.00333 81.0236 5.309 80.8323 5.603C80.6409 5.89233 80.4193 6.17467 80.1673 6.45C79.9199 6.72067 79.6563 6.99833 79.3763 7.283L76.7373 9.985C76.9239 9.93367 77.1129 9.894 77.3043 9.866C77.4956 9.83333 77.6799 9.817 77.8573 9.817H81.2173C81.3526 9.817 81.4599 9.85667 81.5393 9.936C81.6186 10.0153 81.6583 10.118 81.6583 10.244V11H74.9663V10.573C74.9663 10.4843 74.9826 10.3933 75.0153 10.3C75.0526 10.2067 75.1109 10.1203 75.1903 10.041L78.4033 6.814C78.6693 6.54333 78.9119 6.28433 79.1313 6.037C79.3506 5.785 79.5373 5.533 79.6913 5.281C79.8499 5.029 79.9713 4.77467 80.0553 4.518C80.1393 4.25667 80.1813 3.979 80.1813 3.685C80.1813 3.391 80.1346 3.13433 80.0413 2.915C79.9479 2.691 79.8196 2.50667 79.6563 2.362C79.4929 2.21733 79.3016 2.11 79.0823 2.04C78.8629 1.96533 78.6273 1.928 78.3753 1.928C78.1233 1.928 77.8899 1.96533 77.6753 2.04C77.4606 2.11467 77.2693 2.21967 77.1013 2.355C76.9379 2.48567 76.7979 2.642 76.6813 2.824C76.5693 3.006 76.4899 3.20667 76.4433 3.426C76.4059 3.56133 76.3499 3.65933 76.2753 3.72C76.2006 3.78067 76.1026 3.811 75.9813 3.811C75.9579 3.811 75.9323 3.811 75.9043 3.811C75.8809 3.80633 75.8529 3.80167 75.8203 3.797L75.1693 3.685C75.2346 3.22767 75.3606 2.824 75.5473 2.474C75.7339 2.11933 75.9696 1.823 76.2543 1.585C76.5436 1.347 76.8726 1.16733 77.2413 1.046C77.6146 0.919999 78.0159 0.856999 78.4453 0.856999ZM90.0594 5.988C90.0594 6.86533 89.9637 7.626 89.7724 8.27C89.5857 8.90933 89.329 9.439 89.0024 9.859C88.6757 10.279 88.2884 10.5917 87.8404 10.797C87.397 11.0023 86.921 11.105 86.4124 11.105C85.899 11.105 85.4207 11.0023 84.9774 10.797C84.5387 10.5917 84.156 10.279 83.8294 9.859C83.5027 9.439 83.246 8.90933 83.0594 8.27C82.8727 7.626 82.7794 6.86533 82.7794 5.988C82.7794 5.11067 82.8727 4.35 83.0594 3.706C83.246 3.062 83.5027 2.53 83.8294 2.11C84.156 1.68533 84.5387 1.37033 84.9774 1.165C85.4207 0.959666 85.899 0.856999 86.4124 0.856999C86.921 0.856999 87.397 0.959666 87.8404 1.165C88.2884 1.37033 88.6757 1.68533 89.0024 2.11C89.329 2.53 89.5857 3.062 89.7724 3.706C89.9637 4.35 90.0594 5.11067 90.0594 5.988ZM88.7644 5.988C88.7644 5.22267 88.699 4.581 88.5684 4.063C88.4424 3.54033 88.2697 3.12033 88.0504 2.803C87.8357 2.48567 87.586 2.25933 87.3014 2.124C87.0167 1.984 86.7204 1.914 86.4124 1.914C86.1044 1.914 85.808 1.984 85.5234 2.124C85.2387 2.25933 84.989 2.48567 84.7744 2.803C84.5597 3.12033 84.387 3.54033 84.2564 4.063C84.1304 4.581 84.0674 5.22267 84.0674 5.988C84.0674 6.75333 84.1304 7.395 84.2564 7.913C84.387 8.431 84.5597 8.84867 84.7744 9.166C84.989 9.48333 85.2387 9.712 85.5234 9.852C85.808 9.98733 86.1044 10.055 86.4124 10.055C86.7204 10.055 87.0167 9.98733 87.3014 9.852C87.586 9.712 87.8357 9.48333 88.0504 9.166C88.2697 8.84867 88.4424 8.431 88.5684 7.913C88.699 7.395 88.7644 6.75333 88.7644 5.988ZM94.6875 0.856999C95.1121 0.856999 95.5088 0.919999 95.8775 1.046C96.2461 1.172 96.5635 1.35633 96.8295 1.599C97.1001 1.837 97.3125 2.12867 97.4665 2.474C97.6205 2.81933 97.6975 3.21133 97.6975 3.65C97.6975 4.02333 97.6415 4.36867 97.5295 4.686C97.4175 5.00333 97.2658 5.309 97.0745 5.603C96.8831 5.89233 96.6615 6.17467 96.4095 6.45C96.1621 6.72067 95.8985 6.99833 95.6185 7.283L92.9795 9.985C93.1661 9.93367 93.3551 9.894 93.5465 9.866C93.7378 9.83333 93.9221 9.817 94.0995 9.817H97.4595C97.5948 9.817 97.7021 9.85667 97.7815 9.936C97.8608 10.0153 97.9005 10.118 97.9005 10.244V11H91.2085V10.573C91.2085 10.4843 91.2248 10.3933 91.2575 10.3C91.2948 10.2067 91.3531 10.1203 91.4325 10.041L94.6455 6.814C94.9115 6.54333 95.1541 6.28433 95.3735 6.037C95.5928 5.785 95.7795 5.533 95.9335 5.281C96.0921 5.029 96.2135 4.77467 96.2975 4.518C96.3815 4.25667 96.4235 3.979 96.4235 3.685C96.4235 3.391 96.3768 3.13433 96.2835 2.915C96.1901 2.691 96.0618 2.50667 95.8985 2.362C95.7351 2.21733 95.5438 2.11 95.3245 2.04C95.1051 1.96533 94.8695 1.928 94.6175 1.928C94.3655 1.928 94.1321 1.96533 93.9175 2.04C93.7028 2.11467 93.5115 2.21967 93.3435 2.355C93.1801 2.48567 93.0401 2.642 92.9235 2.824C92.8115 3.006 92.7321 3.20667 92.6855 3.426C92.6481 3.56133 92.5921 3.65933 92.5175 3.72C92.4428 3.78067 92.3448 3.811 92.2235 3.811C92.2001 3.811 92.1745 3.811 92.1465 3.811C92.1231 3.80633 92.0951 3.80167 92.0625 3.797L91.4115 3.685C91.4768 3.22767 91.6028 2.824 91.7895 2.474C91.9761 2.11933 92.2118 1.823 92.4965 1.585C92.7858 1.347 93.1148 1.16733 93.4835 1.046C93.8568 0.919999 94.2581 0.856999 94.6875 0.856999ZM102.942 0.856999C103.366 0.856999 103.758 0.917666 104.118 1.039C104.477 1.16033 104.785 1.333 105.042 1.557C105.303 1.781 105.506 2.05167 105.651 2.369C105.795 2.68633 105.868 3.03867 105.868 3.426C105.868 3.74333 105.826 4.028 105.742 4.28C105.662 4.52733 105.546 4.74667 105.392 4.938C105.242 5.12467 105.06 5.28333 104.846 5.414C104.631 5.54467 104.391 5.64967 104.125 5.729C104.778 5.90167 105.268 6.191 105.595 6.597C105.926 7.003 106.092 7.51167 106.092 8.123C106.092 8.585 106.003 9.00033 105.826 9.369C105.653 9.73767 105.415 10.0527 105.112 10.314C104.808 10.5707 104.454 10.769 104.048 10.909C103.646 11.0443 103.215 11.112 102.753 11.112C102.221 11.112 101.766 11.0467 101.388 10.916C101.01 10.7807 100.69 10.5963 100.429 10.363C100.167 10.1297 99.9526 9.85433 99.7846 9.537C99.6166 9.215 99.4742 8.86733 99.3576 8.494L99.8896 8.27C99.9876 8.228 100.086 8.207 100.184 8.207C100.277 8.207 100.359 8.228 100.429 8.27C100.503 8.30733 100.559 8.368 100.597 8.452C100.606 8.47067 100.615 8.49167 100.625 8.515C100.634 8.53367 100.643 8.55467 100.653 8.578C100.718 8.71333 100.797 8.86733 100.891 9.04C100.984 9.208 101.11 9.36667 101.269 9.516C101.427 9.66533 101.623 9.79133 101.857 9.894C102.095 9.99667 102.389 10.048 102.739 10.048C103.089 10.048 103.394 9.992 103.656 9.88C103.922 9.76333 104.141 9.614 104.314 9.432C104.491 9.25 104.624 9.047 104.713 8.823C104.801 8.599 104.846 8.37733 104.846 8.158C104.846 7.88733 104.808 7.64 104.734 7.416C104.664 7.192 104.533 6.99833 104.342 6.835C104.155 6.67167 103.894 6.54333 103.558 6.45C103.226 6.35667 102.799 6.31 102.277 6.31V5.407C102.701 5.40233 103.063 5.35567 103.362 5.267C103.665 5.17833 103.912 5.057 104.104 4.903C104.295 4.749 104.433 4.56467 104.517 4.35C104.605 4.13533 104.65 3.89733 104.65 3.636C104.65 3.34667 104.603 3.09467 104.51 2.88C104.421 2.66533 104.297 2.488 104.139 2.348C103.98 2.208 103.791 2.103 103.572 2.033C103.357 1.963 103.124 1.928 102.872 1.928C102.62 1.928 102.386 1.96533 102.172 2.04C101.957 2.11467 101.766 2.21967 101.598 2.355C101.434 2.48567 101.297 2.64433 101.185 2.831C101.073 3.013 100.989 3.21133 100.933 3.426C100.895 3.56133 100.839 3.65933 100.765 3.72C100.69 3.78067 100.594 3.811 100.478 3.811C100.454 3.811 100.429 3.811 100.401 3.811C100.377 3.80633 100.349 3.80167 100.317 3.797L99.6656 3.685C99.7309 3.22767 99.8569 2.824 100.044 2.474C100.23 2.11933 100.466 1.823 100.751 1.585C101.04 1.347 101.369 1.16733 101.738 1.046C102.111 0.919999 102.512 0.856999 102.942 0.856999Z" fill="#384250"/>
</svg>
