<svg width="24" height="25" viewBox="0 0 24 25" fill="none" xmlns="http://www.w3.org/2000/svg">
<path d="M7.55016 22.1042C16.6045 22.1042 21.5583 14.601 21.5583 8.09611C21.5583 7.88517 21.5536 7.66955 21.5442 7.45861C22.5079 6.76171 23.3395 5.8985 24 4.90955C23.1025 5.30885 22.1496 5.56963 21.1739 5.68298C22.2013 5.06716 22.9705 4.09972 23.3391 2.96001C22.3726 3.53281 21.3156 3.93686 20.2134 4.15486C19.4708 3.36581 18.489 2.84336 17.4197 2.6683C16.3504 2.49323 15.2532 2.6753 14.2977 3.18634C13.3423 3.69739 12.5818 4.50895 12.1338 5.49556C11.6859 6.48217 11.5754 7.58886 11.8195 8.64455C9.86249 8.54634 7.94794 8.03795 6.19998 7.15235C4.45203 6.26674 2.90969 5.02368 1.67297 3.50376C1.0444 4.58749 0.852057 5.86989 1.13503 7.09034C1.418 8.31078 2.15506 9.3777 3.19641 10.0742C2.41463 10.0494 1.64998 9.83893 0.965625 9.46017V9.52111C0.964925 10.6584 1.3581 11.7608 2.07831 12.641C2.79852 13.5212 3.80132 14.1248 4.91625 14.3492C4.19205 14.5474 3.43198 14.5762 2.69484 14.4336C3.00945 15.4117 3.62157 16.2671 4.44577 16.8806C5.26997 17.494 6.26512 17.8348 7.29234 17.8555C5.54842 19.2254 3.39417 19.9684 1.17656 19.9649C0.783287 19.9643 0.390399 19.9402 0 19.8927C2.25286 21.338 4.87353 22.1056 7.55016 22.1042Z" fill="#FFFDF7"/>
</svg>
