<svg width="43" height="42" viewBox="0 0 43 42" fill="none" xmlns="http://www.w3.org/2000/svg">
<path d="M33.75 36.75V26.25M28.5 31.5H39M21.5 26.25H14.5C11.2384 26.25 9.60761 26.25 8.32122 26.7828C6.60602 27.4933 5.2433 28.856 4.53284 30.5712C4 31.8576 4 33.4884 4 36.75M27.625 5.75883C30.1904 6.79726 32 9.31229 32 12.25C32 15.1877 30.1904 17.7027 27.625 18.7412M24.125 12.25C24.125 16.116 20.991 19.25 17.125 19.25C13.259 19.25 10.125 16.116 10.125 12.25C10.125 8.38401 13.259 5.25 17.125 5.25C20.991 5.25 24.125 8.38401 24.125 12.25Z" stroke="#028588" stroke-width="2.69" stroke-linecap="round" stroke-linejoin="round"/>
</svg>
