<svg width="7" height="8" viewBox="0 0 7 8" fill="none" xmlns="http://www.w3.org/2000/svg">
<path d="M3.47866 0C3.60919 0 3.73438 0.0518553 3.82668 0.144158C3.91899 0.236461 3.97084 0.361651 3.97084 0.492188V3.08503L6.2162 1.78861C6.2722 1.75578 6.33414 1.73435 6.39845 1.72556C6.46276 1.71677 6.52817 1.72078 6.59093 1.73737C6.65368 1.75396 6.71253 1.7828 6.7641 1.82223C6.81566 1.86166 6.85891 1.9109 6.89137 1.96711C6.92382 2.02333 6.94484 2.0854 6.95321 2.14977C6.96157 2.21414 6.95712 2.27953 6.94012 2.34217C6.92311 2.40481 6.89388 2.46347 6.85411 2.51477C6.81434 2.56607 6.76482 2.609 6.70839 2.64108L4.46303 3.9375L6.70839 5.23392C6.76482 5.266 6.81434 5.30893 6.85411 5.36023C6.89388 5.41153 6.92311 5.47019 6.94012 5.53283C6.95712 5.59547 6.96157 5.66086 6.95321 5.72523C6.94484 5.7896 6.92382 5.85167 6.89137 5.90789C6.85891 5.9641 6.81566 6.01334 6.7641 6.05277C6.71253 6.0922 6.65368 6.12104 6.59093 6.13763C6.52817 6.15422 6.46276 6.15823 6.39845 6.14944C6.33414 6.14065 6.2722 6.11922 6.2162 6.08639L3.97084 4.78997V7.38281C3.97084 7.51335 3.91899 7.63854 3.82668 7.73084C3.73438 7.82314 3.60919 7.875 3.47866 7.875C3.34812 7.875 3.22293 7.82314 3.13063 7.73084C3.03832 7.63854 2.98647 7.51335 2.98647 7.38281V4.78997L0.741109 6.08639C0.685112 6.11922 0.623175 6.14065 0.558864 6.14944C0.494553 6.15823 0.429137 6.15422 0.366384 6.13763C0.30363 6.12104 0.244778 6.0922 0.193216 6.05277C0.141653 6.01334 0.0983993 5.9641 0.0659437 5.90789C0.0334882 5.85167 0.0124722 5.7896 0.0041057 5.72523C-0.0042608 5.66086 0.000187441 5.59547 0.0171944 5.53283C0.0342013 5.47019 0.063431 5.41153 0.103201 5.36023C0.14297 5.30893 0.192494 5.266 0.248921 5.23392L2.49428 3.9375L0.248921 2.64108C0.136798 2.57535 0.0552249 2.46793 0.0220042 2.34228C-0.0112166 2.21663 0.00661174 2.08293 0.0715985 1.97038C0.136585 1.85782 0.243455 1.77554 0.368885 1.74148C0.494315 1.70743 0.628123 1.72437 0.741109 1.78861L2.98647 3.08503V0.492188C2.98647 0.361651 3.03832 0.236461 3.13063 0.144158C3.22293 0.0518553 3.34812 0 3.47866 0V0Z" fill="#F04438"/>
</svg>
