<svg width="203" height="320" viewBox="0 0 203 320" fill="none" xmlns="http://www.w3.org/2000/svg">
<path d="M72.1815 319.983C66.8917 319.983 61.0748 318.637 54.7898 315.95C40.2202 309.72 27.273 298.559 18.3431 284.52C15.6573 280.298 12.7034 276.221 8.80424 276.755C5.77307 277.168 3.85985 280.225 2.0057 283.179C1.45127 284.069 0.874125 284.982 0.278798 285.813C-3.11592 290.546 -8.41478 293.228 -14.6362 293.374C-22.2027 293.568 -29.7465 289.968 -34.4137 284.02C-43.5572 272.372 -44.4934 253.64 -41.4986 241.167C-38.0357 226.764 -34.0229 217.726 -24.9794 203.984C-23.0798 201.098 -19.8623 197.38 -16.454 193.444C-8.19664 183.901 2.08295 172.025 0.96047 163.832C-1.03001 149.274 -20.3213 140.868 -37.3404 133.452C-44.2707 130.435 -50.8102 127.583 -55.6501 124.541C-71.8693 114.346 -78.9405 99.5789 -75.0504 84.0197C-72.5464 74.0097 -67.6202 66.8764 -60.4172 62.8238C-50.1694 57.0608 -35.6362 57.6779 -17.2174 64.6654C-12.9638 66.2787 -7.69221 65.7831 -3.11138 63.3437C6.56836 58.1881 5.03687 42.4005 4.33702 37.6871C4.14161 36.3751 3.92801 35.0485 3.70988 33.7123C2.29655 25.0483 0.833225 16.0879 4.74602 8.56098C8.48612 1.35477 16.8252 -2.7464 25.4961 -1.64336C32.431 -0.763846 39.484 3.1381 46.4598 9.95558C52.2631 15.6263 57.3347 24.5624 62.7063 34.0232C72.5041 51.2783 82.6383 69.1213 97.6078 66.4148C112.55 63.7179 123.766 65.9385 130.942 73.0281C137.935 79.9379 140.839 91.2453 139.572 106.644C138.885 114.978 134.877 123 131.001 130.756C125.747 141.271 120.785 151.198 123.611 161.607C126.215 171.204 138.644 180.839 159.549 189.479C161.43 190.257 163.339 191.005 165.252 191.758C175.409 195.748 185.907 199.873 193.246 208.537C205.371 222.847 205.098 247.775 192.646 264.112C181.531 278.689 162.344 286.1 142.571 283.456C137.099 282.723 131.61 280.852 126.302 279.044C118.821 276.493 111.096 273.855 103.397 274.442C100.816 274.637 96.3172 278.097 94.4721 280.298C92.1772 283.038 93.3088 286.697 94.513 290.57C95.1811 292.723 95.8718 294.948 96.0127 297.135C96.6944 307.577 88.6688 316.013 80.7751 318.647C78.0893 319.541 75.2172 319.993 72.1679 319.993L72.1815 319.983ZM9.48591 275.803C13.8168 275.803 16.9343 280.706 19.0384 284.01C27.8774 297.903 40.6883 308.948 55.1034 315.114C64.824 319.269 73.3812 320.168 80.5388 317.782C88.1281 315.25 95.84 307.169 95.1856 297.188C95.0493 295.114 94.3767 292.941 93.7268 290.842C92.5044 286.897 91.2365 282.815 93.8586 279.686C95.84 277.324 100.521 273.752 103.347 273.534C111.2 272.946 119.012 275.599 126.57 278.174C131.841 279.972 137.29 281.828 142.689 282.552C162.176 285.162 181.072 277.873 192.006 263.534C204.208 247.532 204.489 223.129 192.633 209.135C185.434 200.636 175.032 196.549 164.971 192.594C163.053 191.841 161.14 191.088 159.254 190.31C138.095 181.568 125.493 171.728 122.811 161.85C119.889 151.091 125.166 140.532 130.264 130.323C134.1 122.646 138.067 114.71 138.735 106.557C139.981 91.4494 137.167 80.3898 130.373 73.6793C123.398 66.7889 112.423 64.6411 97.7487 67.2943C82.2157 70.1029 71.9315 51.9926 61.9882 34.4849C56.6485 25.0823 51.6041 16.1948 45.8917 10.6164C39.0432 3.93015 32.1492 0.101094 25.3961 -0.754127C17.1888 -1.79886 9.00419 2.20999 5.48222 8.99345C1.71485 16.2434 3.15091 25.0434 4.54152 33.5568C4.75965 34.8979 4.97779 36.2293 5.1732 37.5462C5.89577 42.4151 7.45907 58.7178 -2.73419 64.1504C-7.51498 66.6966 -13.0365 67.2068 -17.4992 65.5158C-35.6907 58.6206 -49.9967 57.9792 -60.0309 63.6207C-67.0203 67.5518 -71.8011 74.4956 -74.2415 84.2529C-78.0316 99.3942 -71.1013 113.792 -55.232 123.763C-50.4421 126.771 -43.9299 129.609 -37.0313 132.617C-19.8032 140.124 -0.275629 148.628 1.78302 163.701C2.96004 172.321 -7.46953 184.372 -15.8495 194.052C-19.2397 197.968 -22.439 201.666 -24.3023 204.499C-33.2776 218.139 -37.2586 227.104 -40.6942 241.385C-43.639 253.645 -42.7347 272.032 -33.782 283.437C-29.2739 289.18 -21.9664 292.66 -14.6634 292.47C-8.70109 292.329 -3.63399 289.768 -0.393782 285.259C0.187911 284.452 0.751424 283.549 1.30131 282.674C3.25997 279.55 5.28227 276.323 8.69063 275.856C8.95875 275.822 9.22232 275.803 9.48136 275.803H9.48591Z" stroke="url(#paint0_linear_688_60416)" stroke-miterlimit="10"/>
<path d="M74.831 310.381C69.673 310.381 63.9788 308.996 57.8074 306.236C56.6758 305.731 55.5261 305.182 54.3899 304.603C45.9508 300.293 37.9117 294.137 31.1449 286.804C28.1456 283.563 25.4144 280.098 23.0194 276.507C21.029 273.524 18.8658 270.54 16.2164 269.641C15.462 269.384 14.6849 269.311 13.9123 269.423C11.0402 269.845 9.19514 272.732 7.4137 275.521C6.87745 276.362 6.31848 277.231 5.74588 278.024C2.45114 282.538 -2.65685 285.113 -8.63738 285.273C-15.7677 285.468 -22.9616 282.159 -27.4242 276.639C-36.1269 265.875 -37.2221 248.305 -34.5591 236.536C-31.4825 223.017 -27.8332 214.509 -19.5259 201.52C-17.8672 198.925 -15.1814 195.704 -12.3457 192.346L-11.4322 191.262C-3.87932 182.316 5.5232 171.179 4.48252 163.472C2.65564 149.993 -14.7997 142.087 -30.2009 135.104C-37.004 132.024 -43.4344 129.108 -48.0743 125.935C-53.8276 122.004 -58.204 117.154 -61.8441 110.672C-66.4385 102.489 -67.9019 93.5678 -65.9705 85.555C-63.671 76.0309 -59.0447 69.2086 -52.2234 65.2775C-42.5528 59.7089 -28.8148 60.117 -11.3913 66.4972C-7.37856 67.9695 -2.37964 67.469 1.97851 65.1609C4.07806 64.0481 5.78224 62.3037 7.05015 59.9712C9.49508 55.4862 10.3313 48.6298 9.3451 41.1515C9.1815 39.9173 8.99972 38.6636 8.8134 37.4051C7.62275 29.3291 6.39574 20.9761 10.1722 13.9788C13.7896 7.26337 21.7333 3.47804 29.927 4.57137C36.5074 5.44117 43.206 9.15846 49.8318 15.6212C55.3534 20.9858 60.2341 29.4019 65.4057 38.3089C70.0729 46.3509 74.8991 54.665 80.2434 60.5495C86.6557 67.6585 92.8044 70.3068 99.5938 68.8879C115.104 65.6419 126.461 68.023 133.337 75.9775C138.954 82.4694 141.412 92.4113 140.644 105.531C140.203 113.486 136.604 121.236 133.123 128.729C128.406 138.89 123.948 148.492 126.615 158.599C130.251 172.379 152.505 182.817 159.817 186.248C161.69 187.127 163.612 187.977 165.475 188.799C174.346 192.725 183.521 196.787 189.924 205.033C191.088 206.54 192.147 208.201 193.074 209.975C200.763 224.665 199.118 245.894 189.238 259.359C185.289 264.743 180.199 269.151 174.119 272.46C166.538 276.585 157.686 278.767 148.583 278.675C146.216 278.66 143.83 278.495 141.498 278.179C136.145 277.46 130.787 275.618 125.606 273.84C118.553 271.42 111.269 268.912 104.038 269.292C101.634 269.418 97.3307 272.537 95.5356 274.544C93.3406 277.008 94.3495 280.346 95.422 283.884C96.0173 285.847 96.6354 287.878 96.7399 289.87C97.1898 298.296 90.9502 306.659 82.2294 309.322C79.9072 310.031 77.4395 310.386 74.831 310.386V310.381ZM14.6167 268.475C15.2393 268.475 15.8573 268.582 16.4708 268.786C19.3657 269.768 21.6334 272.882 23.7056 275.988C26.0733 279.54 28.7773 282.965 31.7448 286.172C38.4434 293.432 46.4007 299.526 54.7535 303.792C55.876 304.365 57.0121 304.91 58.13 305.41C67.2417 309.487 75.2718 310.507 81.9976 308.457C89.1006 306.29 96.39 299.054 95.8992 289.919C95.7992 288.038 95.1993 286.066 94.6176 284.156C93.5179 280.526 92.3772 276.77 94.9221 273.922C96.6217 272.018 101.103 268.543 103.993 268.393C111.369 268.009 118.735 270.535 125.861 272.985C131.005 274.753 136.327 276.58 141.603 277.285C143.902 277.596 146.252 277.756 148.588 277.771C157.54 277.829 166.275 275.711 173.737 271.653C179.708 268.407 184.703 264.082 188.575 258.8C198.254 245.608 199.872 224.805 192.337 210.412C191.433 208.683 190.406 207.069 189.274 205.607C183.008 197.536 174.337 193.697 165.152 189.63C163.289 188.804 161.362 187.953 159.481 187.069C152.078 183.594 129.551 173.031 125.806 158.842C123.048 148.399 127.788 138.195 132.369 128.326C135.809 120.915 139.372 113.248 139.803 105.473C140.558 92.6106 138.172 82.8921 132.718 76.5849C126.052 68.8782 114.963 66.5846 99.7529 69.7674C92.7544 71.23 86.174 68.4166 79.639 61.1715C74.2357 55.2189 69.3821 46.8659 64.6923 38.7802C59.5525 29.9267 54.699 21.5689 49.2683 16.2869C42.7697 9.95537 36.2302 6.31097 29.8225 5.46546C21.9606 4.42559 14.3531 8.0214 10.8993 14.4307C7.27282 21.151 8.47711 29.3485 9.6405 37.269C9.82682 38.5324 10.0131 39.7909 10.1767 41.03C11.1856 48.7027 10.3131 55.7729 7.77726 60.428C6.42755 62.9111 4.60067 64.777 2.35116 65.9675C-2.20241 68.3825 -7.44219 68.8976 -11.664 67.3524C-28.8557 61.0548 -42.3665 60.6224 -51.8235 66.0696C-58.4312 69.8743 -62.9166 76.5071 -65.1525 85.7834C-67.0293 93.563 -65.5978 102.237 -61.1215 110.211C-57.5041 116.654 -53.3414 121.27 -47.6199 125.182C-43.0391 128.311 -36.6404 131.212 -29.8692 134.278C-14.2634 141.348 3.42365 149.361 5.3187 163.346C6.41392 171.471 -3.12948 182.778 -10.8006 191.865L-11.714 192.948C-14.5316 196.282 -17.1946 199.479 -18.8261 202.025C-27.0652 214.912 -30.6872 223.348 -33.7365 236.745C-36.3496 248.3 -35.2907 265.526 -26.7835 276.051C-22.4798 281.372 -15.5132 284.569 -8.65101 284.375C-2.92498 284.219 1.95125 281.77 5.08693 277.47C5.6459 276.702 6.19579 275.847 6.72295 275.016C8.6089 272.066 10.5585 269.01 13.7987 268.533C14.0714 268.495 14.3486 268.475 14.6212 268.475H14.6167Z" stroke="url(#paint1_linear_688_60416)" stroke-miterlimit="10"/>
<path d="M77.4751 300.803C72.4534 300.803 66.8774 299.375 60.8196 296.527C59.7516 296.027 58.6746 295.487 57.6112 294.924C49.7538 290.75 42.1145 284.89 35.525 277.98C32.6211 274.948 29.9853 271.76 27.6949 268.504C25.6953 265.667 23.6958 263.052 21.1963 262.27C20.4692 262.042 19.7557 261.983 19.0149 262.1C16.2973 262.532 14.5295 265.249 12.8208 267.873C12.3028 268.67 11.7665 269.496 11.2075 270.244C8.01277 274.544 3.09565 277.008 -2.64402 277.183C-9.3653 277.397 -16.1866 274.36 -20.4402 269.267C-28.702 259.384 -29.9563 242.974 -27.6295 231.914C-24.9438 219.285 -21.6536 211.302 -14.0825 199.066C-12.6737 196.787 -10.4332 193.954 -7.50206 190.397L-6.44775 189.11C0.414409 180.752 8.95348 170.353 7.99005 163.127C6.32222 150.707 -9.36075 143.292 -23.2032 136.752C-29.8427 133.613 -36.1141 130.648 -40.5177 127.344C-46.5027 122.854 -49.4657 117.747 -52.4515 112.018C-57.0187 103.262 -58.6001 94.4133 -56.905 87.105C-54.81 78.0669 -50.4792 71.5507 -44.0396 67.7459C-34.9461 62.3717 -22.008 62.5758 -5.58884 68.3485C-1.81693 69.6751 2.90478 69.1697 7.04025 66.9928C9.02164 65.948 10.6486 64.3153 11.8665 62.1433C14.2114 57.9838 15.1067 51.6036 14.325 44.6355C14.1933 43.4742 14.0433 42.2983 13.8888 41.1175C12.9253 33.6246 11.9301 25.879 15.5748 19.4114C19.0695 13.1819 26.6178 9.7221 34.3344 10.8008C40.5603 11.6658 46.8998 15.1984 53.1803 21.3016C58.4428 26.3892 63.16 34.3146 68.1498 42.7064C72.8306 50.5735 77.6705 58.7127 82.9784 64.2425C89.1498 70.6712 95.0531 72.9356 101.547 71.3709C116.199 67.8431 127.042 69.6702 133.786 76.8035C139.384 82.7269 142.043 92.0177 141.684 104.414C141.466 111.984 138.285 119.453 135.208 126.674C131.209 136.062 127.073 145.765 129.591 155.586C132.872 168.405 151.927 178.643 160.062 183.011C161.884 183.993 163.743 184.926 165.538 185.83C173.545 189.858 181.103 193.658 186.57 201.53C187.556 202.949 188.478 204.567 189.306 206.331C196.372 221.36 194.895 241.657 185.793 254.602C182.13 259.811 177.34 264.092 171.564 267.324C164.393 271.337 155.963 273.427 147.169 273.373C144.906 273.359 142.625 273.198 140.393 272.897C135.158 272.192 129.923 270.375 124.856 268.621C118.239 266.327 111.395 263.951 104.642 264.136C102.374 264.194 98.3433 266.93 96.5619 268.791C94.4669 270.983 95.3576 273.995 96.2983 277.193C96.8209 278.966 97.3662 280.803 97.4389 282.601C97.7707 291.041 90.6904 298.073 83.6556 299.992C81.6969 300.526 79.6337 300.794 77.466 300.794L77.4751 300.803ZM19.7557 261.147C20.3192 261.147 20.8827 261.235 21.4371 261.41C24.182 262.27 26.2816 265.001 28.3675 267.965C30.6352 271.182 33.2392 274.335 36.1113 277.338C42.6417 284.185 50.2037 289.987 57.9838 294.117C59.0336 294.676 60.097 295.206 61.1559 295.701C69.654 299.696 77.1615 300.847 83.4556 299.127C90.1678 297.295 96.9209 290.628 96.6073 282.645C96.5391 280.963 96.0165 279.185 95.5075 277.465C94.5305 274.151 93.5171 270.725 95.9847 268.15C97.6389 266.425 101.943 263.31 104.633 263.237C111.545 263.067 118.444 265.453 125.128 267.766C130.155 269.505 135.354 271.308 140.511 272.003C142.711 272.299 144.961 272.46 147.187 272.474C155.84 272.537 164.138 270.472 171.187 266.527C176.854 263.358 181.544 259.165 185.134 254.063C193.914 241.584 195.391 221.239 188.569 206.739C187.765 205.019 186.87 203.449 185.911 202.069C180.571 194.382 173.1 190.626 165.193 186.646C163.393 185.742 161.53 184.804 159.698 183.818C150.764 179.017 132.172 169.031 128.791 155.824C126.196 145.688 130.395 135.833 134.458 126.299C137.503 119.156 140.648 111.77 140.861 104.38C141.211 92.2412 138.639 83.1739 133.213 77.4352C126.687 70.5303 116.099 68.781 101.752 72.2407C94.9486 73.8783 88.8044 71.541 82.4104 64.879C77.0297 59.2715 72.1626 51.0934 67.4591 43.1778C62.4965 34.8394 57.8111 26.9626 52.635 21.9576C46.4863 15.9808 40.2967 12.5259 34.2435 11.6852C26.8451 10.6502 19.6375 13.9399 16.311 19.8681C12.8208 26.0636 13.7933 33.6489 14.7386 40.9863C14.8931 42.1719 15.0431 43.3527 15.1749 44.5189C15.6475 48.7319 15.9474 56.6815 12.6027 62.6C11.2984 64.9227 9.55789 66.6721 7.42653 67.7897C3.10019 70.0638 -1.85782 70.5886 -5.83878 69.1891C-22.0307 63.4941 -34.7416 63.2706 -43.6215 68.5186C-49.8475 72.197 -54.042 78.5237 -56.078 87.3091C-57.7231 94.3939 -56.1688 103.009 -51.7062 111.566C-48.7704 117.193 -45.8665 122.213 -40.0223 126.591C-35.6869 129.842 -29.4519 132.791 -22.8533 135.911C-8.81542 142.549 7.09933 150.071 8.83078 162.982C9.84874 170.615 1.53235 180.747 -5.80698 189.683L-6.86129 190.971C-9.76975 194.498 -11.992 197.307 -13.3735 199.542C-20.8765 211.676 -24.1394 219.587 -26.7979 232.094C-29.0792 242.94 -27.8613 259.005 -19.7994 268.65C-15.7048 273.548 -9.12898 276.464 -2.65765 276.264C2.82753 276.094 7.52196 273.752 10.5577 269.661C11.0985 268.937 11.6256 268.125 12.1392 267.338C13.9524 264.559 15.8247 261.682 18.9013 261.191C19.1876 261.147 19.4739 261.123 19.7602 261.123L19.7557 261.147Z" stroke="url(#paint2_linear_688_60416)" stroke-miterlimit="10"/>
<path d="M80.1255 291.245C75.2402 291.245 69.7868 289.763 63.8335 286.819C62.8337 286.323 61.8249 285.793 60.8342 285.244C53.5766 281.221 46.3418 275.657 39.9114 269.155C37.0984 266.332 34.5671 263.417 32.3812 260.501C30.8406 258.441 28.7275 255.622 26.1916 254.898C25.5145 254.699 24.8237 254.66 24.133 254.777C21.5744 255.219 19.8794 257.761 18.2388 260.219C17.7389 260.972 17.2163 261.75 16.68 262.459C13.5853 266.541 8.85901 268.893 3.36474 269.092C-2.96571 269.321 -9.3916 266.561 -13.4362 261.896C-21.2481 252.892 -22.6706 237.643 -20.6801 227.293C-18.3806 215.549 -15.4539 208.095 -8.62358 196.607C-7.35568 194.474 -5.39246 191.904 -2.63851 188.444L-1.65236 187.205C4.61447 179.357 12.4128 169.59 11.5175 162.773C10.0088 151.383 -3.97913 144.463 -16.3174 138.36C-22.7478 135.177 -28.8192 132.174 -32.9365 128.744C-37.6401 124.827 -39.7623 120.303 -42.0118 115.517C-42.3436 114.807 -42.6844 114.088 -43.0343 113.359C-47.7015 103.685 -49.3103 95.3706 -47.8197 88.6503C-45.9201 80.0932 -41.8846 73.888 -35.8223 70.2047C-27.3059 65.0296 -15.1767 65.0248 0.238142 70.1901C3.77374 71.3758 8.22278 70.8656 12.131 68.8198C13.9988 67.8431 15.5439 66.327 16.7164 64.3105C19.793 59.0674 19.6794 51.9098 19.334 48.1099C19.234 47.0263 19.1159 45.9281 18.9977 44.825C18.2615 37.9201 17.4935 30.7771 21.0064 24.8391C24.3829 19.1004 31.5223 15.9613 38.7707 17.0303C44.6104 17.8807 50.5955 21.2287 56.5533 26.9772C61.5249 31.7732 66.0467 39.1786 70.832 47.0214C75.5492 54.7524 80.4299 62.7507 85.7424 67.9354C91.6502 73.6936 97.299 75.579 103.534 73.8588C117.531 69.9958 127.583 71.23 134.268 77.6393C139.872 83.0087 142.73 91.6484 142.762 103.311C142.785 110.517 140.003 117.733 137.318 124.71C133.841 133.744 130.242 143.088 132.596 152.593C135.509 164.381 150.588 173.745 159.599 179.343L160.335 179.799C162.031 180.854 163.735 181.845 165.384 182.802C172.201 186.763 178.641 190.509 183.249 198.046C184.085 199.411 184.844 200.937 185.575 202.706C190.974 215.743 191.611 236.122 182.385 249.859C179.004 254.894 174.514 259.048 169.043 262.202C162.376 266.055 154.459 268.086 146.134 268.086C146.02 268.086 145.907 268.086 145.793 268.086C143.63 268.072 141.453 267.916 139.322 267.63C134.246 266.94 129.174 265.142 124.275 263.402C118.054 261.191 111.605 258.898 105.288 258.995C103.125 259.024 99.3668 261.376 97.6217 263.052C95.6267 264.967 96.3629 267.537 97.2127 270.511C97.6671 272.095 98.1352 273.738 98.1716 275.346C98.3215 282.183 92.5864 288.913 85.1108 290.677C83.5247 291.051 81.866 291.236 80.1345 291.236L80.1255 291.245ZM24.901 253.815C25.4054 253.815 25.9099 253.888 26.4052 254.029C29.2092 254.83 31.4178 257.78 33.0356 259.937C35.1988 262.824 37.7028 265.705 40.4886 268.499C46.8645 274.943 54.0356 280.453 61.225 284.442C62.2066 284.987 63.2064 285.512 64.1925 285.997C72.0817 289.904 79.0575 291.187 84.929 289.802C92.0229 288.131 97.4717 281.794 97.3308 275.37C97.299 273.883 96.8446 272.304 96.4129 270.774C95.5585 267.775 94.6723 264.675 97.0673 262.382C98.5579 260.953 102.63 258.13 105.284 258.096C111.778 258.018 118.254 260.316 124.543 262.547C129.406 264.272 134.436 266.06 139.431 266.736C141.53 267.022 143.675 267.173 145.802 267.187C154.114 267.236 162.017 265.244 168.652 261.41C174.01 258.319 178.4 254.257 181.708 249.335C190.752 235.875 190.115 215.869 184.812 203.07C184.103 201.345 183.362 199.863 182.553 198.536C178.063 191.189 171.715 187.496 164.994 183.59C163.339 182.627 161.631 181.636 159.926 180.577L159.19 180.115C150.069 174.449 134.8 164.969 131.796 152.816C129.369 143.015 133.019 133.53 136.554 124.361C139.208 117.465 141.953 110.332 141.935 103.306C141.903 91.9059 139.14 83.4946 133.718 78.3001C127.261 72.1095 117.463 70.9384 103.757 74.7238C97.2263 76.5265 91.323 74.578 85.188 68.5914C79.7937 63.3289 74.8857 55.2869 70.1367 47.5073C65.3832 39.718 60.8932 32.3563 55.9988 27.638C50.1683 22.011 44.3332 18.7408 38.6617 17.9147C31.7268 16.8992 24.9237 19.873 21.7199 25.3153C18.3661 30.986 19.1113 37.9687 19.8339 44.7181C19.9521 45.826 20.0702 46.9291 20.1702 48.0175C20.5247 51.9292 20.6337 59.3152 17.4299 64.7818C16.1711 66.9393 14.5169 68.572 12.5037 69.6216C8.40456 71.7645 3.72375 72.2942 -0.0118055 71.0405C-15.1949 65.9529 -27.1014 65.9286 -35.4042 70.9773C-41.2529 74.5343 -45.1566 80.5451 -46.9971 88.8495C-48.4423 95.3511 -46.8563 103.456 -42.2845 112.937C-41.93 113.665 -41.5937 114.39 -41.2575 115.099C-39.0534 119.793 -36.972 124.229 -32.4185 128.02C-28.3784 131.387 -22.3479 134.371 -15.9629 137.529C-3.42925 143.729 10.7768 150.761 12.3537 162.637C13.3035 169.853 5.69606 179.377 -1.01159 187.778L-1.99774 189.012C-4.72897 192.438 -6.66946 194.984 -7.91465 197.074C-14.6814 208.454 -17.5853 215.835 -19.8575 227.459C-21.8026 237.59 -20.4347 252.498 -12.8227 261.269C-8.93715 265.749 -2.75212 268.383 3.33293 268.179C8.57725 267.989 13.0854 265.754 16.0211 261.881C16.5437 261.196 17.0527 260.428 17.548 259.685C19.2886 257.075 21.0836 254.379 23.9921 253.878C24.2966 253.825 24.5965 253.8 24.8965 253.8L24.901 253.815Z" stroke="url(#paint3_linear_688_60416)" stroke-miterlimit="10"/>
<path d="M82.7753 281.716C78.0354 281.716 72.6956 280.171 66.8469 277.105C65.9289 276.624 64.9882 276.104 64.0566 275.56C57.4444 271.716 50.6095 266.449 44.2927 260.331C41.5205 257.668 39.1574 255.103 37.0579 252.493C35.5764 250.652 33.5541 248.134 31.1728 247.517C30.5229 247.347 29.8912 247.328 29.2414 247.449C26.8373 247.901 25.215 250.273 23.6471 252.566C23.1608 253.276 22.661 254.004 22.1474 254.67C19.1526 258.533 14.6127 260.778 9.36837 260.997C3.36512 261.24 -2.5427 258.82 -6.44186 254.519C-13.8721 246.312 -15.4626 232.604 -13.7403 222.662C-11.8725 211.87 -9.30033 204.941 -3.16984 194.144C-2.00645 192.098 -0.175025 189.605 2.21537 186.486L3.26059 185.125C8.87302 177.841 15.8579 168.774 15.0353 162.418C13.6765 152.034 1.84726 145.877 -9.59572 139.925C-15.7626 136.713 -21.5886 133.681 -25.3741 130.133C-28.9461 126.785 -30.3821 123 -31.9045 118.991C-32.4317 117.601 -32.977 116.163 -33.6314 114.696C-37.0762 106.921 -40.38 97.9265 -38.744 90.1955C-37.0353 82.1195 -33.2861 76.2204 -27.6055 72.6635C-19.6663 67.6876 -8.346 67.4787 6.0509 72.0366C9.35019 73.0814 13.5175 72.5614 17.2076 70.6518C18.9527 69.7431 20.416 68.3388 21.5476 66.4777C24.4833 61.6573 24.5469 55.078 24.3242 51.5842C24.2606 50.5783 24.1743 49.5628 24.0925 48.5375C23.5744 42.2156 23.0427 35.6751 26.4238 30.2668C29.6776 25.0238 36.4171 22.2005 43.1929 23.255C48.669 24.0956 54.2951 27.259 59.9166 32.6479C64.611 37.1523 68.9373 44.0621 73.5136 51.3704C78.2671 58.9605 83.1797 66.8081 88.4922 71.6187C94.1274 76.7209 99.5307 78.2175 105.502 76.337C118.663 72.1873 128.225 72.8821 134.728 78.4605C140.34 83.2711 143.399 91.2548 143.817 102.193C144.08 109.054 141.699 116.037 139.399 122.786C136.446 131.45 133.392 140.415 135.582 149.59C138.159 160.411 150.947 169.624 158.586 175.125C159.3 175.64 159.972 176.126 160.599 176.583C162.095 177.676 163.571 178.687 164.998 179.668C170.965 183.755 176.114 187.287 179.909 194.562C180.581 195.849 181.209 197.327 181.822 199.081C186.385 211.948 187.43 231.842 178.955 245.117C175.846 249.981 171.656 254.004 166.503 257.08C160.154 260.88 152.492 262.887 144.389 262.8C142.331 262.785 140.254 262.639 138.222 262.362C133.187 261.677 128.165 259.899 123.312 258.178C117.59 256.152 111.678 254.058 105.888 253.854C103.707 253.771 100.081 256.07 98.6446 257.314C96.7586 258.951 97.3721 261.211 98.0856 263.83C98.4673 265.229 98.8627 266.677 98.8627 268.096C98.8627 274.204 93.4411 280.03 86.5245 281.362C85.3156 281.595 84.0613 281.712 82.7571 281.712L82.7753 281.716ZM30.0503 246.482C30.4911 246.482 30.9319 246.541 31.3727 246.652C34.0176 247.333 36.1444 249.981 37.6986 251.915C39.7709 254.495 42.1159 257.032 44.8607 259.67C51.1321 265.739 57.9079 270.968 64.461 274.778C65.3836 275.312 66.3106 275.827 67.2195 276.303C74.5089 280.127 80.9575 281.532 86.3927 280.487C92.9231 279.233 98.0402 273.796 98.0402 268.106C98.0402 266.813 97.663 265.428 97.2994 264.092C96.5677 261.41 95.8134 258.64 98.131 256.623C99.4762 255.457 103.225 252.96 105.798 252.96C105.843 252.96 105.888 252.96 105.934 252.96C111.842 253.169 117.818 255.282 123.594 257.328C128.411 259.034 133.392 260.798 138.345 261.473C140.345 261.745 142.385 261.891 144.412 261.905C144.521 261.905 144.63 261.905 144.735 261.905C152.583 261.905 159.968 259.971 166.107 256.298C171.147 253.29 175.242 249.359 178.273 244.612C186.58 231.603 185.535 212.06 181.05 199.401C180.45 197.691 179.841 196.253 179.191 195.004C175.501 187.929 170.429 184.454 164.562 180.431C163.131 179.449 161.649 178.434 160.14 177.336C159.513 176.879 158.841 176.393 158.132 175.883C149.893 169.945 137.441 160.975 134.782 149.823C132.528 140.381 135.628 131.285 138.627 122.49C141.004 115.512 143.249 108.923 142.994 102.241C142.585 91.5755 139.631 83.8154 134.219 79.1748C127.943 73.7957 118.631 73.1542 105.757 77.2117C99.4853 79.1845 93.8365 77.6296 87.9651 72.3185C82.5617 67.4252 77.6173 59.5242 72.832 51.8855C68.2829 44.6209 63.9884 37.7646 59.3712 33.333C53.877 28.0608 48.4009 24.9752 43.0884 24.1588C36.6261 23.1578 30.2139 25.8158 27.1373 30.7771C23.9198 35.9278 24.4379 42.3031 24.9423 48.4743C25.0241 49.5045 25.1104 50.5249 25.1741 51.5356C25.4058 55.1411 25.3331 61.944 22.261 66.983C21.0431 68.985 19.4662 70.4963 17.5802 71.473C13.7083 73.4798 9.31383 74.0192 5.81913 72.9113C-8.34599 68.4262 -19.4481 68.6109 -27.1737 73.4507C-32.6453 76.8813 -36.2582 82.586 -37.9169 90.4093C-39.4984 97.8779 -36.2491 106.693 -32.8634 114.326C-32.1999 115.818 -31.6501 117.266 -31.1184 118.67C-29.5687 122.747 -28.2326 126.265 -24.8106 129.477C-21.1114 132.947 -15.3354 135.95 -9.21853 139.133C2.41987 145.187 14.4536 151.451 15.8761 162.311C16.7486 169.061 9.93188 177.909 3.915 185.713L2.86977 187.074C0.497552 190.164 -1.31115 192.628 -2.44727 194.63C-8.51868 205.32 -11.059 212.176 -12.9086 222.842C-14.5356 232.245 -13.0177 245.972 -5.8329 253.907C-2.09734 258.028 3.56053 260.351 9.33656 260.112C14.34 259.908 18.6618 257.775 21.5021 254.111C22.002 253.465 22.4974 252.746 22.97 252.051C24.6378 249.612 26.3602 247.095 29.1005 246.58C29.4186 246.521 29.7367 246.492 30.0503 246.492V246.482Z" stroke="url(#paint4_linear_688_60416)" stroke-miterlimit="10"/>
<path d="M85.3378 272.231C80.757 272.231 75.6626 270.638 69.8593 267.392C68.9959 266.911 68.1324 266.405 67.278 265.88C61.3929 262.275 55.1352 257.44 48.6775 251.507C45.8781 248.936 43.674 246.706 41.7426 244.49C40.2475 242.775 38.3797 240.642 36.162 240.146C35.5531 240.01 34.9623 240 34.3533 240.127C32.1038 240.588 30.5541 242.789 29.059 244.918C28.5909 245.579 28.1092 246.269 27.6139 246.891C24.719 250.535 20.37 252.673 15.3711 252.911C9.77226 253.178 4.24163 251.021 0.556062 247.148C-6.42425 239.811 -8.16932 227.24 -6.79689 218.046C-5.31994 208.148 -3.11587 201.744 2.28751 191.695C3.40545 189.61 5.2505 187.025 7.07284 184.542L8.1726 183.05C13.1352 176.33 19.3111 167.967 18.5613 162.073C17.3479 152.661 6.99104 146.956 -3.02498 141.446C-8.87827 138.224 -14.4043 135.182 -17.7991 131.533C-20.5894 128.535 -21.4755 125.23 -22.4163 121.732C-22.9071 119.905 -23.416 118.019 -24.2159 116.037L-24.5522 115.201C-27.6288 107.616 -31.1144 99.015 -29.6556 91.7408C-28.1332 84.1458 -24.6703 78.5529 -19.3669 75.1174C-12.0094 70.3505 -1.49804 69.9326 11.8763 73.8783C14.9348 74.7821 18.8339 74.2573 22.2968 72.4789C23.9283 71.6431 25.3053 70.3505 26.3959 68.6401C29.1953 64.2619 29.4362 58.2462 29.3317 55.0537C29.2999 54.1353 29.2544 53.2072 29.2044 52.2742C28.9136 46.5307 28.6136 40.5878 31.8539 35.6898C34.9986 30.9423 41.3427 28.4447 47.6277 29.4797C52.7448 30.3106 58.0164 33.2893 63.288 38.3235C67.7052 42.5412 71.8271 48.9505 76.1898 55.7389C80.9796 63.188 85.9331 70.8899 91.2456 75.3118C96.599 79.7628 101.762 80.8804 107.478 78.8298C120.003 74.3302 128.81 74.4809 135.191 79.2963C140.817 83.5384 144.075 90.871 144.879 101.085C145.393 107.626 143.498 114.098 141.489 120.95C139.063 129.225 136.554 137.782 138.576 146.596C140.844 156.514 151.105 165.139 157.895 170.849C158.981 171.762 159.985 172.608 160.867 173.38C162.076 174.44 163.248 175.412 164.38 176.354C169.297 180.441 173.546 183.973 176.577 191.087C177.091 192.288 177.563 193.677 178.077 195.461C181.767 208.129 183.312 227.493 175.532 240.374C172.696 245.073 168.806 248.97 163.971 251.964C158.108 255.603 150.974 257.523 143.316 257.523C143.212 257.523 143.107 257.523 142.998 257.523C141.044 257.508 139.072 257.367 137.136 257.105C132.178 256.424 127.247 254.656 122.48 252.94C117.226 251.055 111.796 249.102 106.51 248.722C104.565 248.572 101.298 250.35 99.6847 251.589C97.9123 252.95 98.4077 254.899 98.9848 257.158C99.2939 258.373 99.6165 259.627 99.5802 260.856C99.4211 266.235 94.3177 271.153 87.9599 272.052C87.101 272.173 86.2239 272.236 85.3287 272.236L85.3378 272.231ZM35.2031 239.145C35.5803 239.145 35.9575 239.184 36.3302 239.271C38.8114 239.825 40.7747 242.075 42.3561 243.883C44.2648 246.069 46.4507 248.28 49.2274 250.831C55.6442 256.726 61.8565 261.526 67.6961 265.103C68.5414 265.618 69.3958 266.118 70.2501 266.595C76.935 270.331 82.861 271.867 87.86 271.157C93.8223 270.312 98.6031 265.773 98.7485 260.827C98.7803 259.729 98.4758 258.543 98.1805 257.391C97.576 255.025 96.9535 252.581 99.1984 250.856C100.839 249.597 104.302 247.668 106.57 247.819C111.964 248.203 117.449 250.175 122.752 252.08C127.483 253.781 132.373 255.535 137.245 256.206C139.144 256.463 141.085 256.604 143.003 256.619C143.107 256.619 143.212 256.619 143.316 256.619C150.828 256.619 157.818 254.743 163.548 251.181C168.265 248.261 172.06 244.461 174.823 239.884C182.444 227.264 180.908 208.206 177.273 195.723C176.773 193.979 176.305 192.623 175.809 191.457C172.869 184.542 168.693 181.077 163.862 177.064C162.726 176.121 161.549 175.144 160.331 174.075C159.449 173.303 158.449 172.462 157.368 171.553C150.487 165.766 140.09 157.024 137.754 146.805C135.677 137.748 138.222 129.069 140.68 120.677C142.662 113.913 144.539 107.519 144.034 101.158C143.253 91.2208 140.112 84.1118 134.7 80.0301C128.556 75.3944 119.989 75.2826 107.737 79.6851C101.725 81.8426 96.3172 80.6812 90.7184 76.0261C85.3014 71.5216 80.3116 63.7614 75.4854 56.2539C71.1499 49.5142 67.0554 43.1438 62.7154 38.9989C57.562 34.0814 52.4403 31.1804 47.4869 30.3738C41.5063 29.3922 35.494 31.7344 32.5264 36.2146C29.4498 40.8551 29.7452 46.6376 30.027 52.2305C30.0724 53.1683 30.1224 54.1013 30.1542 55.0246C30.2633 58.3337 30.0043 64.5632 27.0731 69.1552C25.8961 70.9968 24.4055 72.3865 22.6422 73.2952C18.9975 75.166 14.8848 75.7102 11.6355 74.753C-1.50713 70.8753 -11.7958 71.2592 -18.9488 75.8949C-24.0477 79.1991 -27.3788 84.5977 -28.8512 91.94C-30.2555 98.9324 -26.8244 107.392 -23.7978 114.856L-23.4569 115.692C-22.6344 117.723 -22.1209 119.642 -21.621 121.494C-20.6712 125.026 -19.8532 128.078 -17.2174 130.906C-13.9135 134.453 -8.44199 137.466 -2.65233 140.654C7.55456 146.271 18.1068 152.082 19.3793 161.956C20.1746 168.234 14.1395 176.403 8.81337 183.614L7.71815 185.106C5.91399 187.564 4.09166 190.12 2.99644 192.152C-2.34786 202.093 -4.5292 208.42 -5.98343 218.197C-7.31951 227.167 -5.63806 239.402 1.12866 246.516C4.65518 250.224 9.96312 252.279 15.3165 252.022C20.0791 251.793 24.21 249.767 26.9549 246.317C27.4366 245.715 27.9093 245.039 28.3682 244.388C29.9588 242.124 31.6085 239.777 34.1806 239.252C34.5169 239.184 34.8532 239.15 35.1895 239.15L35.2031 239.145Z" stroke="url(#paint5_linear_688_60416)" stroke-miterlimit="10"/>
<path d="M88.01 262.79C83.561 262.79 78.5939 261.113 72.8678 257.683C72.0771 257.206 71.2864 256.716 70.4956 256.201C63.8743 251.9 57.3757 246.434 53.063 242.692C50.2318 240.233 48.1868 238.324 46.4281 236.497C44.9966 235.01 43.2151 233.158 41.152 232.779C40.5748 232.672 40.0249 232.682 39.466 232.804C37.371 233.275 35.894 235.306 34.4716 237.274C34.0217 237.891 33.5581 238.533 33.0764 239.116C30.277 242.541 26.1188 244.573 21.3699 244.835C16.1983 245.126 11.0266 243.236 7.55012 239.781C1.02425 233.299 -0.875336 221.875 0.138082 213.43C1.21967 204.426 3.06473 198.546 7.7319 189.241C8.73623 187.244 10.4131 184.76 11.9174 182.593L13.0489 180.975C17.5934 174.498 22.7468 167.16 22.0743 161.723C21.0018 153.244 12.0355 147.981 3.36466 142.889C-2.11143 139.672 -7.28304 136.64 -10.2415 132.918C-12.4456 130.148 -12.8728 127.179 -13.3272 124.04C-13.6317 121.921 -13.9498 119.735 -14.8132 117.378C-15.2859 116.085 -15.8085 114.754 -16.3356 113.398C-18.876 106.872 -21.7572 99.4813 -20.5893 93.2907C-19.2441 86.1768 -16.063 80.8851 -11.1368 77.5711C-4.36095 73.0083 5.33242 72.3863 17.6798 75.7246C20.5019 76.4875 24.1238 75.9579 27.3686 74.3106C28.8819 73.538 30.1816 72.362 31.2268 70.812C33.8808 66.8711 34.308 61.4239 34.3216 58.5279C34.3216 57.6969 34.3125 56.8514 34.3034 56.0108C34.2353 50.8454 34.1626 45.5003 37.2755 41.1222C40.3021 36.8704 46.2418 34.6934 52.0496 35.7139C56.8077 36.5351 61.7202 39.3243 66.651 44.0037C70.791 47.9299 74.7084 53.8582 78.8529 60.1314C83.6837 67.4397 88.6781 74.9957 93.9951 79.0046C99.0667 82.8239 103.975 83.5577 109.451 81.3176C121.189 76.5167 129.515 76.1328 135.654 80.1222C141.294 83.786 144.757 90.4626 145.943 99.9672C146.725 106.211 145.198 112.523 143.584 119.21C141.689 127.062 139.726 135.182 141.571 143.598C143.548 152.646 151.61 160.639 157.495 166.48C158.84 167.812 160.108 169.075 161.144 170.188C161.949 171.053 162.721 171.864 163.457 172.637C167.634 177.01 170.938 180.465 173.246 187.623C173.646 188.862 173.969 190.208 174.332 191.845C177.232 204.926 179.195 223.139 172.11 235.632C169.538 240.165 165.948 243.936 161.44 246.842C155.977 250.374 149.233 252.235 141.917 252.235C141.812 252.235 141.712 252.235 141.608 252.235C139.753 252.221 137.886 252.085 136.05 251.832C131.151 251.157 126.293 249.378 121.598 247.658C116.613 245.831 111.905 244.111 107.133 243.576C105.279 243.372 102.284 244.825 100.716 245.855C99.1395 246.89 99.3712 248.285 99.8802 250.476C100.121 251.507 100.366 252.571 100.294 253.615C99.9711 258.261 95.1767 262.265 89.387 262.736C88.9326 262.775 88.469 262.79 88.0009 262.79H88.01ZM40.3703 231.812C40.6793 231.812 40.9838 231.841 41.2928 231.895C43.6105 232.322 45.4965 234.281 47.0143 235.855C48.7549 237.663 50.7817 239.553 53.5947 241.992C57.8893 245.719 64.356 251.162 70.9319 255.433C71.7135 255.938 72.4952 256.429 73.2814 256.895C79.4573 260.593 84.7107 262.216 89.3325 261.832C94.6313 261.4 99.1758 257.683 99.4621 253.543C99.5257 252.644 99.294 251.648 99.0713 250.685C98.6168 248.727 98.1033 246.511 100.285 245.078C101.716 244.135 105.002 242.415 107.229 242.673C112.096 243.217 117.067 245.039 121.88 246.798C126.538 248.504 131.355 250.268 136.168 250.928C137.967 251.176 139.803 251.307 141.621 251.322C141.721 251.322 141.826 251.322 141.926 251.322C149.088 251.322 155.686 249.505 161.017 246.059C165.407 243.231 168.902 239.558 171.401 235.15C178.341 222.92 176.386 204.955 173.523 192.04C173.164 190.426 172.846 189.109 172.46 187.904C170.215 180.946 167.138 177.724 162.88 173.268C162.139 172.491 161.367 171.684 160.558 170.815C159.536 169.716 158.272 168.463 156.936 167.136C150.969 161.222 142.798 153.122 140.762 143.802C138.872 135.172 140.858 126.941 142.78 118.981C144.371 112.387 145.875 106.158 145.12 100.084C143.966 90.8659 140.64 84.408 135.227 80.89C129.333 77.056 121.239 77.4594 109.76 82.1582C103.997 84.5149 98.835 83.7472 93.5179 79.7383C88.0782 75.642 83.0429 68.0179 78.1758 60.6513C74.0585 54.4218 70.173 48.5373 66.1057 44.6791C61.2976 40.1163 56.5259 37.4 51.9269 36.6031C46.4099 35.6313 40.7975 37.6721 37.9572 41.6664C35.0169 45.7967 35.0896 50.9815 35.1578 55.9962C35.1714 56.8466 35.1805 57.6921 35.176 58.5327C35.1578 61.5406 34.7124 67.1967 31.9221 71.3416C30.7906 73.018 29.3863 74.2911 27.7412 75.1269C24.2738 76.8908 20.5337 77.4253 17.4889 76.5993C5.37331 73.3242 -4.09737 73.9121 -10.6732 78.334C-15.3995 81.5168 -18.4488 86.6092 -19.7485 93.4705C-20.8665 99.389 -18.1625 106.338 -15.5449 113.053C-15.0132 114.414 -14.4951 115.75 -14.018 117.052C-13.1181 119.501 -12.7955 121.741 -12.4819 123.904C-12.0275 127.048 -11.6321 129.759 -9.58709 132.339C-6.72862 135.935 -1.62517 138.928 3.78275 142.106C12.6354 147.301 21.788 152.675 22.9241 161.606C23.6466 167.413 18.3796 174.906 13.7397 181.519L12.6081 183.137C11.1175 185.276 9.46334 187.725 8.48628 189.673C3.87364 198.867 2.05131 204.669 0.983354 213.551C-0.0027969 221.768 1.82408 232.867 8.13181 239.13C11.4447 242.42 16.3937 244.223 21.3335 243.946C25.8507 243.693 29.7999 241.769 32.4493 238.533C32.9128 237.969 33.3673 237.337 33.8081 236.73C35.3259 234.635 36.8983 232.473 39.2978 231.934C39.6523 231.856 40.0158 231.817 40.3749 231.817L40.3703 231.812Z" stroke="url(#paint6_linear_688_60416)" stroke-miterlimit="10"/>
<path d="M-11.5005 94.856C-12.473 100.357 -9.99628 106.688 -7.5968 112.816C-6.78788 114.886 -6.02441 116.839 -5.40182 118.734C-4.45657 121.611 -4.31114 124.079 -4.17026 126.47C-4.02029 129.079 -3.87487 131.548 -2.71149 134.245L-2.62514 134.376C-0.0893269 137.029 3.73712 139.498 7.78625 142.112C15.6436 147.18 24.5463 152.928 25.596 161.388C26.1959 166.364 21.8014 173.026 17.925 178.906C17.5341 179.504 17.1479 180.091 16.7707 180.665C14.9756 183.41 13.8713 185.305 13.1805 186.807C9.24957 195.354 7.76353 200.704 7.07731 208.829C6.42745 216.521 8.4861 226.798 14.5484 232.425C20.6562 238.091 32.2128 238.834 38.5387 231.346C38.9977 230.797 39.4476 230.205 39.8793 229.626C41.2336 227.823 42.6333 225.962 44.5738 225.486C45.0918 225.36 45.6054 225.331 46.1416 225.408C48.0503 225.676 49.6818 227.177 51.1178 228.504C53.0174 230.253 55.1124 231.973 57.4528 233.873L59.257 235.341C63.9741 239.184 68.8549 243.159 73.7129 246.522C74.431 247.017 75.1535 247.503 75.8761 247.97C81.0477 251.313 86.2057 253.198 90.7956 253.412C90.9638 253.427 91.1274 253.427 91.291 253.427V253.422C96.0399 253.422 100.516 250.22 101.012 246.371C101.121 245.511 100.948 244.636 100.78 243.786C100.43 242.017 100.289 240.89 101.748 240.112C103.502 239.175 106.124 238.164 107.756 238.426C111.991 239.087 116.195 240.666 120.644 242.333C125.293 244.078 130.105 245.88 134.968 246.556C136.704 246.799 138.467 246.925 140.217 246.94C140.312 246.94 140.408 246.94 140.503 246.94C147.392 246.94 153.918 245.088 158.913 241.711C163.085 238.902 166.375 235.253 168.692 230.875C175.146 218.664 172.464 200.729 170.687 188.862L170.515 187.706C170.328 186.447 170.151 185.262 169.915 184.154C168.283 176.428 166.029 173.327 161.944 167.71L161.426 166.996C160.344 165.509 158.904 163.799 157.372 161.981C152.428 156.111 146.27 148.803 144.57 140.606C142.912 132.641 144.33 125.003 145.702 117.617C146.92 111.052 148.074 104.847 147.006 98.8552C145.438 90.0551 141.771 84.0346 136.113 80.9587C130.187 77.7419 122.575 78.6214 111.423 83.8159C106.11 86.2941 101.584 85.9491 96.7398 82.7032C91.4137 79.1316 86.3784 71.7213 81.5067 64.554C77.5848 58.7861 73.8811 53.3389 70.0183 49.6945C65.4329 45.3747 60.8793 42.7702 56.4803 41.9538C51.1496 40.9528 45.6145 42.7993 42.706 46.5555C39.7203 50.4088 39.5612 55.1563 39.4112 59.7482C39.3885 60.5063 39.3612 61.2595 39.3249 62.0029C39.1567 65.1808 38.4569 69.6659 36.0711 72.9896C35.0667 74.389 33.8533 75.4532 32.4537 76.1578C29.3861 77.6982 26.1232 78.2181 23.501 77.5864C12.1944 74.8604 3.31903 75.6865 -2.87509 80.0354C-7.42865 83.2328 -10.328 88.2184 -11.5005 94.856ZM-11.5005 94.856L-11.087 94.9386M45.5508 224.471C45.7826 224.471 46.0144 224.485 46.2507 224.519C48.4093 224.825 50.2135 226.487 51.6631 227.828C53.54 229.563 55.6259 231.269 57.9572 233.164L59.7614 234.631C64.4695 238.465 69.3366 242.425 74.1674 245.773C74.8809 246.264 75.5943 246.745 76.3124 247.207C81.3613 250.477 86.3829 252.314 90.832 252.523C95.3764 252.756 99.7255 249.811 100.18 246.264C100.271 245.56 100.112 244.758 99.9573 243.985C99.6301 242.328 99.2574 240.448 101.371 239.32C102.048 238.961 105.529 237.177 107.878 237.547C112.196 238.227 116.631 239.889 120.925 241.497C125.534 243.227 130.301 245.011 135.082 245.676C136.781 245.914 138.517 246.036 140.23 246.05C140.321 246.05 140.417 246.05 140.512 246.05C147.243 246.05 153.609 244.248 158.472 240.958C162.526 238.227 165.72 234.69 167.97 230.438C174.278 218.504 171.624 200.758 169.865 189.013L169.692 187.856C169.506 186.613 169.333 185.437 169.106 184.358C167.511 176.821 165.302 173.784 161.289 168.269L160.771 167.555C159.713 166.097 158.277 164.391 156.759 162.589C151.746 156.636 145.511 149.231 143.761 140.805C142.062 132.661 143.498 124.925 144.888 117.447C146.093 110.964 147.229 104.847 146.193 99.0252C144.675 90.5119 141.162 84.7051 135.745 81.7605C130.06 78.67 122.666 79.5592 111.773 84.6371C106.256 87.2076 101.339 86.8335 96.3081 83.4612C90.8456 79.7973 85.7603 72.3142 80.8432 65.0788C76.9486 59.3498 73.2721 53.9415 69.4775 50.3651C65.0103 46.157 60.5976 43.6254 56.353 42.8382C51.3087 41.8906 46.0916 43.6108 43.3695 47.1289C40.5655 50.749 40.4156 55.3409 40.2701 59.7823C40.2474 60.5452 40.2202 61.3032 40.1838 62.0564C40.0111 65.3606 39.2704 70.0352 36.7573 73.5387C35.6711 75.0499 34.3487 76.2064 32.8308 76.9742C29.5952 78.5971 26.1323 79.1413 23.3329 78.4659C12.258 75.7934 3.60079 76.5757 -2.39792 80.7886C-6.75153 83.8451 -9.53274 88.6363 -10.6598 95.0261C-11.5823 100.264 -9.15555 106.47 -6.80606 112.476C-5.9926 114.56 -5.22004 116.528 -4.5929 118.443C-3.61129 121.436 -3.46133 123.972 -3.31591 126.421C-3.17048 128.919 -3.0296 131.286 -1.96165 133.803C0.506002 136.359 4.26428 138.788 8.2407 141.354C16.2571 146.529 25.3461 152.394 26.4504 161.281C27.0957 166.607 22.5967 173.425 18.6339 179.435C18.2431 180.033 17.8568 180.616 17.4796 181.19C15.7118 183.896 14.6257 185.757 13.9531 187.215C10.0721 195.651 8.6088 200.928 7.93167 208.921C7.29999 216.385 9.27684 226.341 15.1165 231.759C20.9289 237.153 31.9219 237.872 37.9343 230.758C38.3796 230.234 38.8205 229.646 39.2431 229.082C40.6882 227.163 42.1788 225.175 44.4056 224.631C44.7874 224.539 45.1782 224.49 45.569 224.49L45.5508 224.471Z" stroke="url(#paint7_linear_688_60416)" stroke-miterlimit="10"/>
<path d="M93.2309 244.13C92.8992 244.13 92.5674 244.116 92.2312 244.091C88.3683 243.776 84.0011 241.866 78.884 238.251C78.2342 237.789 77.5798 237.318 76.9299 236.832C74.3532 234.912 71.6674 232.774 69.0725 230.704C66.673 228.79 64.1872 226.812 61.8422 225.048C61.1833 224.553 60.538 224.076 59.9108 223.61C58.4612 222.536 57.0933 221.52 55.8117 220.505C54.4438 219.416 52.8987 218.187 51.1355 218.032C50.6356 217.988 50.1629 218.032 49.6858 218.153C47.8953 218.639 46.5728 220.33 45.2867 221.968C44.8596 222.512 44.4369 223.056 43.9961 223.556C38.4746 229.859 27.9814 230.559 21.5419 225.048C15.5659 219.936 13.7481 210.626 14.0117 204.207C14.307 197.049 15.4704 192.04 18.6243 184.347C19.206 182.929 20.1558 181.136 21.6146 178.706C21.9918 178.079 22.3826 177.438 22.7825 176.787C26 171.509 29.6492 165.533 29.1129 161.023C28.2086 153.438 20.7329 148.103 14.1389 143.394C10.526 140.814 7.11314 138.379 4.93634 135.751L4.84999 135.585C4.13196 133.059 4.31375 130.804 4.50461 128.418C4.70911 125.867 4.92271 123.228 4.00018 120.055C3.34123 117.776 2.37325 115.376 1.35075 112.83C-0.912401 107.208 -3.2528 101.396 -2.43025 96.3812C-1.42592 90.2197 1.20078 85.5354 5.38169 82.4547C10.9987 78.3146 19.0469 77.2893 29.3084 79.4079C31.6897 79.8987 34.6845 79.3691 37.5339 77.9648C38.8154 77.3282 39.9515 76.3758 40.9149 75.1318C43.169 72.2115 44.0143 68.2512 44.3278 65.4426C44.4006 64.772 44.4642 64.0966 44.5278 63.4211C44.9004 59.4172 45.2867 55.2771 48.1407 51.9534C50.9764 48.6491 55.989 47.1622 60.9152 48.1632C65.0143 48.9796 69.0952 51.3314 73.3898 55.35C76.9844 58.7126 80.4701 63.6981 84.1602 68.9752C89.0728 76.0016 94.1535 83.2662 99.4841 86.3712C104.024 89.0195 108.314 88.9903 113.395 86.2886C123.979 80.6616 130.909 79.3059 136.567 81.7695C142.248 84.2429 146.115 89.6074 148.065 97.7126C149.455 103.5 148.678 109.676 147.856 116.216C146.992 123.073 146.101 130.162 147.565 137.587C149.005 144.925 153.722 151.776 157.508 157.282C159.139 159.648 160.675 161.883 161.698 163.798C165.002 169.984 165.87 172.982 166.574 180.679C166.638 181.403 166.688 182.166 166.733 182.963C166.765 183.487 166.797 184.032 166.838 184.59C166.997 186.797 167.256 189.207 167.524 191.758C168.678 202.633 170.114 216.166 165.27 226.108C163.239 230.277 160.162 233.892 156.381 236.569C151.709 239.888 145.456 241.672 138.821 241.638C137.171 241.623 135.508 241.502 133.877 241.273C129.01 240.593 124.215 238.741 119.58 236.948C115.699 235.447 112.036 234.033 108.364 233.265C107.51 233.085 105.842 233.134 102.756 234.368C101.356 234.927 101.479 235.792 101.67 237.094C101.765 237.765 101.865 238.46 101.715 239.14C101.084 242.007 97.3891 244.116 93.2309 244.116V244.13ZM50.7492 217.118C50.8992 217.118 51.0537 217.123 51.2082 217.137C53.2078 217.317 54.8574 218.629 56.3162 219.786C57.5841 220.796 58.9474 221.807 60.3926 222.876C61.0197 223.343 61.665 223.819 62.3285 224.314C64.6871 226.083 67.1729 228.066 69.5769 229.985C72.1673 232.05 74.8485 234.188 77.4116 236.093C78.0569 236.574 78.7023 237.041 79.3521 237.498C84.3465 241.025 88.5819 242.886 92.2993 243.188C96.3893 243.528 100.325 241.579 100.902 238.941C101.016 238.431 100.934 237.847 100.843 237.235C100.661 235.947 100.429 234.344 102.47 233.528C105.092 232.478 107.132 232.094 108.532 232.386C112.263 233.163 115.958 234.592 119.871 236.103C124.465 237.877 129.214 239.713 133.995 240.384C135.595 240.607 137.226 240.729 138.839 240.739C145.288 240.807 151.391 239.043 155.927 235.821C159.644 233.192 162.539 229.781 164.534 225.695C169.265 215.996 167.842 202.618 166.701 191.865C166.429 189.304 166.174 186.884 166.011 184.663C165.97 184.1 165.938 183.555 165.906 183.021C165.861 182.234 165.815 181.485 165.747 180.766C165.056 173.225 164.207 170.295 160.975 164.245C159.976 162.374 158.453 160.158 156.835 157.811C153 152.233 148.224 145.294 146.747 137.767C145.252 130.192 146.156 123.024 147.028 116.09C147.842 109.642 148.605 103.549 147.256 97.9313C145.374 90.1128 141.675 84.9523 136.258 82.5956C130.846 80.2389 124.12 81.5849 113.777 87.0855C108.423 89.933 103.892 89.9524 99.0888 87.1487C93.599 83.9464 88.4592 76.6042 83.4921 69.5C79.8293 64.2618 76.3664 59.3103 72.8399 56.0108C68.6635 52.104 64.7144 49.8202 60.7652 49.033C56.1935 48.1049 51.3672 49.5141 48.7678 52.5511C46.1093 55.6561 45.7366 59.6407 45.3731 63.4989C45.3095 64.1792 45.2458 64.8595 45.1686 65.5349C44.8414 68.465 43.9507 72.6002 41.5694 75.6907C40.5287 77.0415 39.2926 78.0765 37.8929 78.7665C34.889 80.2534 31.7033 80.8074 29.1538 80.2778C19.1196 78.2077 11.285 79.1844 5.86796 83.1836C1.88245 86.1234 -0.626097 90.6084 -1.59407 96.527C-2.36663 101.279 -0.0807619 106.965 2.1324 112.465C3.16399 115.031 4.14105 117.456 4.81364 119.778C5.78161 123.121 5.56347 125.847 5.35443 128.486C5.17265 130.755 4.99996 132.898 5.64073 135.221C7.74937 137.733 11.085 140.114 14.6206 142.636C21.3646 147.451 29.0084 152.908 29.9628 160.897C30.5399 165.737 26.7998 171.859 23.5005 177.268C23.1052 177.919 22.7143 178.56 22.3371 179.182C20.9238 181.534 19.9649 183.342 19.4105 184.697C16.2612 192.37 15.1569 197.118 14.866 204.231C14.5933 210.932 16.7156 219.742 22.0826 224.329C27.5042 228.965 37.7702 229.349 43.3962 222.925C43.828 222.434 44.2415 221.904 44.655 221.375C46.0229 219.625 47.4363 217.823 49.4904 217.264C49.9085 217.152 50.3266 217.094 50.7583 217.094L50.7492 217.118Z" stroke="url(#paint8_linear_688_60416)" stroke-miterlimit="10"/>
<path d="M7.46848 98.0823C9.38171 85.2103 19.1478 79.5493 34.9762 82.149C37.303 82.5329 40.1342 81.9886 42.9517 80.6183C44.2287 79.9963 45.3785 79.0828 46.3737 77.8972C48.1642 75.7688 49.4367 72.7998 50.1456 69.0777C50.2593 68.4994 50.3592 67.9163 50.4592 67.3332C51.0545 63.8832 51.6135 60.6275 54.1493 58.023C56.667 55.433 60.9933 54.3591 65.1651 55.2775C68.7598 56.0599 72.3636 58.1639 76.19 61.7111C79.4575 64.7384 82.6977 69.2429 86.1333 74.0098C91.1459 80.9779 96.3357 88.1793 101.862 90.8858C106.361 93.0919 110.655 92.6886 115.768 89.5739C125.602 83.5922 131.683 81.8234 136.763 83.4755C142.185 85.2346 146.07 89.7488 148.315 96.887C150.042 102.378 149.656 108.564 149.252 115.114C148.861 121.397 148.456 127.898 149.729 134.774C150.938 141.358 154.26 147.442 157.186 152.812C158.809 155.79 160.345 158.609 161.176 160.961C162.962 166.024 162.817 168.784 162.549 173.799C162.494 174.834 162.435 175.956 162.385 177.205C162.371 177.574 162.353 177.948 162.335 178.337C162.294 179.173 162.253 180.052 162.244 180.985C162.212 184.348 162.558 188.196 162.926 192.268C163.789 201.841 164.771 212.687 161.085 220.982C159.363 224.869 156.691 228.236 153.369 230.719C149.229 233.824 143.539 235.52 137.436 235.462C135.927 235.452 134.405 235.34 132.901 235.127C128.07 234.442 123.293 232.522 118.676 230.661C115.395 229.344 112.296 228.095 109.183 227.26C108.724 227.133 108.224 227.085 107.71 227.085L107.692 227.094C106.27 227.094 104.747 227.478 103.73 227.736L103.557 227.78C101.607 228.27 101.666 229.558 101.707 230.501C101.725 230.914 101.744 231.307 101.621 231.628C100.966 233.295 97.5854 234.636 93.7771 233.892C90.5278 233.256 86.7968 231.268 82.3705 227.818C81.7934 227.371 81.2162 226.91 80.6345 226.443C79.6211 225.622 78.5895 224.772 77.5397 223.912C73.9541 220.967 70.2458 217.925 66.6693 215.486C65.3605 214.592 64.129 213.809 62.9383 213.046C62.2521 212.609 61.5841 212.181 60.9297 211.754C59.5527 210.85 57.9939 209.825 56.1489 209.771C55.5899 209.762 55.0809 209.82 54.5674 209.975C52.6905 210.539 51.359 212.167 50.0684 213.736C49.6685 214.222 49.2686 214.708 48.855 215.16C43.8834 220.603 34.8035 221.429 29.0366 216.968C23.8195 212.94 21.8699 205.097 21.7881 199.606C21.6927 193.43 22.4698 189.047 24.8556 182.239C25.3055 180.946 26.069 179.309 27.187 177.234C27.546 176.559 27.9322 175.864 28.3185 175.159C30.9634 170.363 33.9582 164.926 33.4583 160.577C32.6449 153.497 26.428 148.463 20.9474 144.026C17.8708 141.533 14.9623 139.182 13.2309 136.703C12.9446 134.512 13.3899 132.524 13.8626 130.42C14.4851 127.655 15.1259 124.793 14.2125 121.168C13.5535 118.564 12.3992 115.804 11.1768 112.883C9.03632 107.762 6.81862 102.465 7.46848 98.0823ZM7.46848 98.0823L7.05494 98.0094M137.704 236.361C137.613 236.361 137.522 236.361 137.436 236.361C135.895 236.346 134.332 236.235 132.796 236.016C127.87 235.321 123.048 233.377 118.385 231.502C115.127 230.19 112.05 228.951 108.983 228.129C107.442 227.716 105.166 228.29 103.943 228.596L103.77 228.64C102.498 228.955 102.525 229.514 102.566 230.438C102.589 230.914 102.612 231.448 102.412 231.958C101.507 234.271 97.5763 235.53 93.6408 234.762C90.2688 234.101 86.4242 232.061 81.8888 228.528C81.3116 228.076 80.7299 227.614 80.1437 227.143C79.1257 226.322 78.0896 225.471 77.0398 224.611C73.4679 221.681 69.7778 218.649 66.2285 216.234C64.9288 215.35 63.7018 214.567 62.5157 213.809C61.8249 213.367 61.1569 212.94 60.5116 212.517C59.1482 211.623 57.7531 210.709 56.1353 210.661C55.6672 210.641 55.2354 210.704 54.8037 210.831C53.1677 211.321 51.918 212.847 50.7046 214.32C50.2956 214.82 49.8821 215.321 49.4594 215.782C44.2106 221.521 34.6353 222.396 28.5457 217.687C23.0787 213.464 21.0383 205.311 20.9519 199.611C20.8565 193.308 21.6427 188.843 24.074 181.913C24.5421 180.577 25.3237 178.896 26.4644 176.777C26.8279 176.097 27.2142 175.402 27.605 174.698C30.1818 170.023 33.0993 164.726 32.6358 160.684C31.8632 153.983 25.8009 149.07 20.4475 144.74C17.2845 142.18 14.2988 139.765 12.4992 137.146L12.4401 137.058L12.4265 136.946C12.0811 134.541 12.5537 132.437 13.0536 130.211C13.649 127.553 14.267 124.808 13.4081 121.407C12.7673 118.87 11.6267 116.144 10.4178 113.253C8.22286 108.01 5.95517 102.592 6.64139 97.9463C8.60914 84.6952 18.9842 78.6163 35.108 81.2646C37.2393 81.6145 39.9751 81.0848 42.6064 79.802C43.7925 79.2237 44.8195 78.4074 45.7511 77.2995C47.4417 75.2926 48.6414 72.4646 49.3231 68.9028C49.4322 68.3294 49.5321 67.7511 49.6321 67.1777C50.2229 63.7423 50.8364 60.1902 53.5676 57.3864C56.2807 54.5972 60.8979 53.4262 65.3378 54.4077C69.0779 55.2192 72.8089 57.3864 76.749 61.0406C80.0755 64.1262 83.343 68.6647 86.8059 73.4704C91.7594 80.3462 96.8855 87.4601 102.221 90.0744C106.452 92.1492 110.505 91.7556 115.359 88.8012C125.411 82.6835 131.683 80.8904 137.013 82.6203C142.707 84.4717 146.779 89.1754 149.115 96.61C150.892 102.271 150.506 108.544 150.092 115.182C149.706 121.411 149.306 127.85 150.556 134.609C151.742 141.043 155.023 147.058 157.918 152.369C159.563 155.382 161.117 158.23 161.971 160.654C163.817 165.897 163.657 168.896 163.394 173.862C163.339 174.892 163.28 176.01 163.235 177.253C163.221 177.623 163.203 178.002 163.185 178.395C163.144 179.221 163.103 180.086 163.094 181.005C163.062 184.324 163.408 188.148 163.771 192.196C164.648 201.88 165.639 212.862 161.853 221.38C160.067 225.408 157.3 228.892 153.86 231.468C149.642 234.636 143.916 236.375 137.709 236.375L137.704 236.361Z" stroke="url(#paint9_linear_688_60416)" stroke-miterlimit="10"/>
<path d="M136.299 231.074C136.213 231.074 136.127 231.074 136.036 231.074C134.586 231.059 133.127 230.952 131.7 230.748C126.633 230.024 121.712 227.935 116.954 225.908C114.4 224.82 111.982 223.79 109.587 222.983C108.642 222.667 107.442 222.764 106.379 222.852C105.752 222.905 105.161 222.954 104.684 222.905C103.579 222.794 103.529 223.114 103.434 223.741C103.379 224.096 103.32 224.499 103.048 224.83C102.021 226.098 98.6621 226.691 95.0311 225.437C92.1408 224.441 88.9188 222.337 84.8878 218.819C84.3789 218.376 83.8699 217.925 83.3518 217.468C79.0118 213.614 74.7764 209.941 70.6227 207.424C68.8595 206.355 67.2462 205.548 65.6874 204.766L65.2239 204.533C63.9469 203.891 62.629 203.235 61.1384 203.289C60.7067 203.308 60.3113 203.376 59.9205 203.512C58.4345 204.013 57.2574 205.368 56.1213 206.68C55.726 207.137 55.3306 207.589 54.9216 208.012C49.959 213.177 41.27 214.217 35.5576 210.33C30.6223 206.972 28.3637 200.222 27.8956 195.023C27.4048 189.556 27.8183 185.64 29.5225 179.488C29.8724 178.23 30.4723 176.67 31.313 174.853C31.6539 174.119 32.0174 173.361 32.3855 172.588C34.3351 168.521 36.5483 163.91 36.1575 160.333C35.5167 154.526 31.0313 150.255 26.6959 146.13C24.001 143.569 21.4606 141.144 20.0655 138.515L20.0109 138.413V138.297C19.9973 135.974 20.7744 133.889 21.5242 131.873C22.5377 129.147 23.5874 126.333 22.8194 122.742C22.2377 120.031 20.9335 117.052 19.5519 113.903C17.3842 108.962 15.1438 103.85 15.721 99.491C17.3161 87.4596 26.5004 81.4828 40.911 83.1057C42.8287 83.3195 45.2373 82.7947 47.6868 81.6285C48.7547 81.1183 49.7045 80.4089 50.5952 79.4565C52.1767 77.7606 53.3992 75.433 54.3308 72.3426C54.4717 71.8761 54.6035 71.4096 54.7353 70.9431C55.5487 68.0665 56.3895 65.0926 59.0071 62.7991C61.5883 60.5347 65.8147 59.6843 69.7638 60.6319C73.1586 61.4482 76.5442 63.4356 80.1071 66.7108C83.1746 69.5291 86.2239 73.64 89.4505 77.989C94.4449 84.7141 99.6074 91.6725 104.947 93.7571C108.924 95.3121 112.623 94.5735 117.317 91.2887C125.52 85.5548 131.75 82.2408 137.449 83.4459C143.157 84.6558 147.433 88.6987 150.16 95.4676C152.437 101.119 152.46 107.693 152.487 114.661C152.51 120.094 152.528 125.711 153.541 131.601C154.473 137.058 156.672 142.364 158.613 147.048C160.185 150.848 161.671 154.439 162.221 157.491C163.003 161.84 162.23 164.58 161.253 168.05C160.794 169.687 160.272 171.543 159.867 173.803L159.849 173.905C159.654 175.003 159.449 176.14 159.326 177.389C158.935 181.408 159.363 186.199 159.813 191.272C160.558 199.639 161.403 209.125 158.422 216.617C156.872 220.51 154.418 223.867 151.319 226.331C147.483 229.397 142.157 231.078 136.295 231.078L136.299 231.074ZM107.956 221.861C108.605 221.861 109.251 221.924 109.842 222.123C112.268 222.939 114.7 223.974 117.267 225.068C121.98 227.074 126.847 229.145 131.814 229.854C133.209 230.053 134.632 230.16 136.045 230.175C136.131 230.175 136.218 230.175 136.299 230.175C141.98 230.175 147.129 228.557 150.819 225.607C153.8 223.236 156.159 220.009 157.649 216.263C160.549 208.979 159.749 200.023 158.976 191.354C158.522 186.233 158.09 181.398 158.49 177.292C158.617 175.999 158.822 174.848 159.022 173.73L159.04 173.628C159.454 171.325 159.981 169.444 160.449 167.787C161.39 164.434 162.135 161.791 161.394 157.656C160.867 154.706 159.399 151.164 157.845 147.413C155.886 142.685 153.664 137.325 152.714 131.766C151.687 125.799 151.664 120.138 151.646 114.666C151.619 107.795 151.596 101.308 149.388 95.8272C146.779 89.345 142.707 85.477 137.286 84.3303C131.869 83.1835 125.806 86.4294 117.776 92.0418C112.9 95.453 108.851 96.2402 104.656 94.6026C99.0939 92.4306 93.8586 85.3701 88.7915 78.5478C85.5877 74.2328 82.5656 70.1559 79.5572 67.391C76.0988 64.2131 72.8359 62.2889 69.5775 61.5065C65.8692 60.6173 61.9246 61.3948 59.5388 63.4891C57.1211 65.6077 56.3531 68.324 55.5396 71.2007C55.4078 71.672 55.2715 72.1434 55.1306 72.6147C54.1581 75.8461 52.872 78.2902 51.1906 80.0882C50.2271 81.1232 49.191 81.8958 48.0276 82.4497C45.4418 83.6791 42.8833 84.2282 40.8201 83.9998C26.9276 82.4352 18.075 88.1302 16.5526 99.6173C16.0118 103.704 18.1977 108.694 20.3109 113.52C21.7106 116.717 23.0376 119.734 23.6374 122.538C24.4645 126.401 23.3648 129.351 22.3014 132.203C21.5606 134.191 20.8608 136.071 20.8471 138.175C22.1877 140.639 24.6463 142.981 27.2503 145.459C31.4948 149.502 36.312 154.079 36.9891 160.226C37.4117 164.075 35.1395 168.813 33.1308 172.996C32.7627 173.764 32.4037 174.517 32.0629 175.251C31.2449 177.02 30.6586 178.536 30.3269 179.746C28.6591 185.771 28.2546 189.605 28.7318 194.941C29.1771 199.931 31.3221 206.394 36.0075 209.576C41.4109 213.25 49.6318 212.264 54.3354 207.37C54.7307 206.957 55.117 206.515 55.5033 206.068C56.7166 204.674 57.9664 203.225 59.666 202.657C60.1295 202.501 60.5976 202.414 61.1021 202.395C62.7972 202.336 64.2741 203.065 65.5738 203.721L66.0419 203.954C67.5416 204.708 69.2458 205.558 71.0363 206.646C75.2536 209.197 79.5208 212.895 83.8881 216.778C84.4016 217.235 84.9151 217.682 85.4196 218.124C89.3642 221.569 92.4998 223.624 95.2902 224.582C98.7349 225.767 101.689 225.131 102.411 224.237C102.525 224.101 102.561 223.853 102.602 223.595C102.739 222.701 103.02 221.851 104.756 222.011C105.165 222.05 105.724 222.006 106.315 221.958C106.838 221.914 107.397 221.87 107.951 221.87L107.956 221.861Z" stroke="url(#paint10_linear_688_60416)" stroke-miterlimit="10"/>
<path d="M134.899 225.783C134.813 225.783 134.731 225.783 134.645 225.783C133.308 225.773 131.95 225.666 130.614 225.476C125.26 224.704 120.129 222.342 115.171 220.054C113.445 219.257 111.813 218.508 110.195 217.828C109.118 217.381 107.773 217.294 106.691 217.221C106.342 217.196 106.014 217.177 105.733 217.148C104.528 217.017 104.337 217.187 104.156 217.347C104.028 217.459 103.856 217.609 103.551 217.697C102.211 218.076 99.2612 217.634 96.4209 216.079C93.4625 214.461 90.445 211.633 87.891 209.081L86.5685 207.765C83.6964 204.912 79.3791 200.865 75.0301 198.6C73.1532 197.623 71.4263 197.021 69.9539 196.535C68.8178 196.161 67.5363 195.728 66.1502 195.908C65.7503 195.957 65.3867 196.049 65.0413 196.18C63.7053 196.69 62.6055 197.876 61.5421 199.023C61.1604 199.436 60.7741 199.849 60.3833 200.233C55.7115 204.81 47.8905 206.01 42.5735 202.969C37.0292 199.791 35.2569 192.575 34.8479 190.437C33.9662 185.84 33.998 182.341 34.9705 177.064C35.1887 175.883 35.5977 174.45 36.1567 172.929C36.452 172.117 36.7792 171.282 37.1155 170.436C38.5334 166.821 39.9967 163.079 39.6786 159.984C39.1696 155.086 35.9567 151.291 32.8528 147.617C30.6533 145.013 28.5765 142.559 27.6267 139.872L27.5903 139.765L27.604 139.653C27.8948 137.389 28.94 135.391 29.9489 133.458C31.3941 130.688 32.8937 127.831 32.2348 124.084C31.7349 121.251 30.2761 118.078 28.731 114.72C26.5678 110.022 24.3319 105.162 24.8046 101.047C26.0452 90.23 34.0389 84.3649 46.7135 84.9529C48.8675 85.0598 51.1898 84.1948 52.7758 83.4611C53.7256 83.0189 54.6072 82.4115 55.457 81.6146C57.343 79.841 58.5337 77.5571 59.3607 75.769C59.5198 75.424 59.6743 75.0789 59.8243 74.7339C60.865 72.4015 61.942 69.9914 64.4596 68.208C66.9546 66.4441 70.6856 65.9291 74.1985 66.862C77.2433 67.6735 80.279 69.4811 83.4737 72.3869C86.2868 74.9477 89.1225 78.6505 92.1173 82.567C97.139 89.1366 102.338 95.925 107.673 97.4459C111.345 98.4906 114.817 97.3973 119.28 93.7869C126.11 88.2668 132.218 83.7478 137.889 84.2872C143.597 84.8362 148.073 88.2183 151.205 94.3409C154.181 100.167 154.677 107.446 155.204 115.148C155.499 119.478 155.804 123.953 156.54 128.608C157.217 132.933 158.458 137.107 159.653 141.145C161.075 145.946 162.42 150.479 162.475 154.338C162.534 158.419 161.021 161.165 159.421 164.075C158.398 165.937 157.335 167.866 156.503 170.358C156.181 171.335 155.813 172.501 155.567 173.784C154.708 178.264 155.24 183.746 155.808 189.547C156.558 197.23 157.335 205.17 155.004 211.861C153.69 215.627 151.545 218.853 148.796 221.2C145.342 224.164 140.411 225.787 134.899 225.787V225.783ZM105.019 216.2C105.242 216.2 105.505 216.215 105.819 216.249C106.092 216.278 106.405 216.297 106.746 216.322C107.887 216.395 109.305 216.487 110.504 216.987C112.14 217.673 113.776 218.426 115.508 219.227C120.416 221.492 125.487 223.829 130.727 224.587C132.027 224.777 133.349 224.874 134.649 224.884C134.731 224.884 134.813 224.884 134.894 224.884C140.221 224.884 144.96 223.329 148.269 220.491C150.9 218.246 152.954 215.151 154.213 211.54C156.476 205.048 155.708 197.215 154.967 189.635C154.395 183.76 153.854 178.211 154.74 173.595C154.999 172.258 155.376 171.053 155.708 170.047C156.567 167.477 157.694 165.421 158.689 163.614C160.294 160.693 161.68 158.176 161.625 154.347C161.571 150.62 160.244 146.145 158.844 141.412C157.64 137.345 156.39 133.137 155.704 128.754C154.963 124.06 154.654 119.56 154.358 115.211C153.818 107.276 153.354 100.42 150.464 94.7685C147.478 88.9277 143.22 85.7012 137.812 85.1812C132.44 84.6613 126.478 89.0978 119.789 94.5061C115.094 98.3011 111.409 99.443 107.455 98.3157C101.856 96.7219 96.5754 89.8121 91.4629 83.1355C88.4908 79.2482 85.6823 75.5746 82.9239 73.0672C79.8291 70.2538 76.907 68.5044 73.9894 67.727C70.6992 66.8474 67.2227 67.3188 64.9186 68.9515C62.5919 70.5988 61.6103 72.7903 60.5741 75.1178C60.4196 75.4628 60.2651 75.8127 60.1015 76.1626C59.2426 78.0285 57.9974 80.4046 56.0024 82.2852C55.0844 83.1501 54.1346 83.8012 53.103 84.2823C51.4352 85.0549 48.9584 85.949 46.668 85.847C34.4616 85.2881 26.8132 90.8568 25.6271 101.149C25.1863 104.997 27.3631 109.735 29.4717 114.317C31.0441 117.733 32.5256 120.955 33.0482 123.909C33.7663 127.976 32.1939 130.984 30.6715 133.89C29.6717 135.8 28.7264 137.607 28.4401 139.653C29.3536 142.141 31.3531 144.507 33.4663 147.005C36.6611 150.785 39.9649 154.692 40.5057 159.877C40.8511 163.206 39.3423 167.054 37.8836 170.776C37.5518 171.622 37.2292 172.448 36.9338 173.254C36.393 174.727 35.9976 176.102 35.7886 177.234C34.8388 182.385 34.8069 185.791 35.6659 190.252C36.0567 192.293 37.7427 199.178 42.9643 202.172C47.9859 205.048 55.3798 203.902 59.8106 199.567C60.1924 199.193 60.565 198.79 60.9422 198.386C62.0692 197.167 63.2372 195.908 64.755 195.33C65.1595 195.174 65.5821 195.072 66.0457 195.014C67.6044 194.82 68.9814 195.272 70.1993 195.675C71.699 196.175 73.4623 196.793 75.3937 197.794C79.8472 200.111 84.2281 204.217 87.1366 207.109L88.4636 208.425C90.8312 210.787 93.9169 213.703 96.8027 215.277C99.6202 216.817 102.32 217.109 103.338 216.822C103.465 216.788 103.519 216.735 103.619 216.647C103.906 216.395 104.21 216.195 105.015 216.195L105.019 216.2Z" stroke="url(#paint11_linear_688_60416)" stroke-miterlimit="10"/>
<path d="M133.486 220.496C133.409 220.496 133.332 220.496 133.25 220.496C132.009 220.481 130.755 220.384 129.528 220.209C123.607 219.344 117.826 216.331 112.727 213.673C112.077 213.333 111.432 212.998 110.8 212.672C109.914 212.216 108.878 211.953 107.969 211.725C107.51 211.608 107.083 211.501 106.71 211.38L106.215 211.22C104.87 210.782 104.729 210.734 104.002 210.423C102.811 209.912 100.339 208.848 97.8031 206.72C95.5899 204.864 93.3086 202.191 90.8864 199.358C90.5228 198.935 90.1547 198.508 89.773 198.075C87.269 195.233 83.438 191.486 79.4297 189.79C77.6165 189.023 75.9441 188.717 74.6898 188.542C73.481 188.372 72.3767 188.25 71.1588 188.532C70.7907 188.614 70.4635 188.721 70.159 188.857C68.9774 189.373 67.9549 190.388 66.9733 191.37C66.5961 191.744 66.2235 192.118 65.8372 192.468C61.3882 196.52 54.5578 197.842 49.5953 195.617C44.8508 193.488 42.565 188.099 41.8015 185.884C40.5109 182.127 40.1337 179.086 40.4154 174.669C40.4881 173.541 40.6836 172.317 40.9971 171.034C41.2198 170.115 41.4879 169.163 41.7606 168.201C42.5877 165.261 43.442 162.224 43.1921 159.639C42.8104 155.698 40.8063 152.442 38.8658 149.289C37.1979 146.577 35.621 144.021 35.1847 141.208L35.1711 141.111L35.1938 141.014C35.7664 138.788 37.0752 136.854 38.3341 134.983C40.3064 132.058 42.1696 129.303 41.6333 125.425C41.2289 122.505 39.6201 119.176 37.916 115.649C35.7437 111.159 33.4987 106.513 33.8714 102.602C34.7803 92.9949 41.5697 87.2416 52.4901 86.8043C53.9534 86.746 55.703 86.2503 57.848 85.2931C58.6797 84.9189 59.484 84.4184 60.3066 83.7673C62.1289 82.3192 63.4332 80.5067 64.3921 79.1802L64.8102 78.5971C66.1644 76.6971 67.446 74.9041 69.9181 73.6164C72.3176 72.3724 75.5715 72.178 78.6299 73.0964C81.2884 73.8933 84.0515 75.5698 86.8327 78.0674C89.4094 80.3804 92.027 83.6992 94.7991 87.2124C99.8481 93.612 105.065 100.23 110.391 101.144C113.822 101.737 116.963 100.327 121.239 96.2943L121.584 95.9687C127.688 90.2154 132.959 85.2493 138.322 85.1327C144.016 85.0015 148.688 87.7227 152.241 93.2087C156.354 99.5646 157.358 107.99 158.526 117.743C158.831 120.294 159.144 122.933 159.531 125.615C159.944 128.511 160.512 131.397 161.058 134.186C162.271 140.367 163.421 146.203 162.707 151.184C162.13 155.212 159.917 157.846 157.572 160.63C156 162.496 154.377 164.425 153.132 166.908C152.528 168.109 152.105 169.148 151.805 170.179C150.396 174.965 151.078 180.947 151.796 187.278C152.569 194.062 153.364 201.073 151.582 207.104C150.505 210.753 148.669 213.853 146.27 216.069C143.189 218.931 138.658 220.501 133.486 220.501V220.496ZM72.6903 187.458C73.4083 187.458 74.1036 187.545 74.8035 187.643C76.1032 187.827 77.8437 188.143 79.7433 188.95C83.897 190.709 87.8234 194.543 90.3865 197.453C90.7682 197.886 91.1409 198.318 91.509 198.746C93.9039 201.55 96.167 204.198 98.3211 206.006C100.761 208.051 103.161 209.086 104.315 209.582C105.006 209.878 105.115 209.917 106.46 210.355L106.956 210.515C107.31 210.632 107.724 210.734 108.164 210.845C109.119 211.088 110.196 211.36 111.168 211.861C111.805 212.187 112.45 212.522 113.1 212.862C118.144 215.491 123.857 218.469 129.646 219.315C130.841 219.49 132.059 219.582 133.264 219.597C138.29 219.665 142.748 218.149 145.725 215.384C148.006 213.275 149.755 210.316 150.787 206.827C152.514 200.986 151.728 194.067 150.969 187.38C150.237 180.947 149.546 174.873 151.01 169.902C151.328 168.818 151.769 167.73 152.4 166.476C153.696 163.901 155.354 161.928 156.958 160.023C159.217 157.341 161.348 154.804 161.889 151.043C162.575 146.223 161.444 140.465 160.249 134.366C159.699 131.562 159.126 128.666 158.713 125.741C158.326 123.049 158.013 120.406 157.708 117.85C156.559 108.209 155.563 99.8853 151.569 93.7141C148.188 88.4904 143.716 85.9053 138.362 86.0268C133.304 86.1386 128.142 91.0026 122.166 96.6393L121.821 96.9649C118.694 99.9096 114.886 102.815 110.282 102.023C104.647 101.056 99.3255 94.3069 94.1811 87.781C91.4317 84.2969 88.8368 81.0072 86.3192 78.7428C83.6288 76.3278 80.9749 74.7146 78.43 73.9517C75.6078 73.1062 72.4994 73.2811 70.3135 74.4181C68.0186 75.6086 66.7961 77.3239 65.5055 79.1364L65.0828 79.7244C64.0967 81.0898 62.747 82.9606 60.8337 84.4816C59.9612 85.1764 59.0978 85.711 58.2025 86.1143C55.9621 87.1153 54.117 87.6352 52.5492 87.6935C42.0923 88.1114 35.5983 93.5731 34.7348 102.684C34.3895 106.324 36.5753 110.848 38.6885 115.226C40.4245 118.822 42.0696 122.218 42.4923 125.284C43.0785 129.522 41.0244 132.563 39.043 135.503C37.7887 137.364 36.5981 139.123 36.0527 141.15C36.4845 143.74 37.9932 146.194 39.5929 148.788C41.5879 152.029 43.6511 155.382 44.051 159.542C44.3191 162.307 43.4375 165.431 42.5877 168.458C42.3196 169.411 42.056 170.349 41.8333 171.257C41.5334 172.487 41.347 173.653 41.2789 174.727C41.0062 179.008 41.3652 181.948 42.615 185.573C43.3375 187.682 45.5052 192.798 49.9452 194.791C54.6305 196.895 61.0973 195.631 65.3191 191.788C65.6963 191.447 66.0599 191.083 66.428 190.719C67.4687 189.684 68.5457 188.61 69.8682 188.031C70.2181 187.876 70.5953 187.754 71.0088 187.662C71.5951 187.526 72.1586 187.477 72.7085 187.477L72.6903 187.458Z" stroke="url(#paint12_linear_688_60416)" stroke-miterlimit="10"/>
<path d="M132.082 215.208C132.005 215.208 131.932 215.208 131.855 215.208C130.714 215.199 129.564 215.106 128.437 214.936C122.375 214.037 116.667 210.835 111.4 207.512C110.705 207.069 109.96 206.719 109.237 206.374C108.683 206.112 108.155 205.859 107.683 205.587C106.251 204.756 105.665 204.163 104.988 203.473C104.861 203.342 104.729 203.206 104.583 203.065C104.338 202.822 104.07 202.57 103.793 202.298C102.457 201.015 100.798 199.416 99.1891 197.322C98.1939 196.024 97.1896 194.518 96.1262 192.919C95.4127 191.85 94.6719 190.738 93.8857 189.61C93.5949 189.197 93.2949 188.779 92.9859 188.366C90.1638 184.6 86.8327 181.903 83.8515 180.97C82.5064 180.553 81.1112 180.412 79.4525 180.523C78.4436 180.591 77.3484 180.718 76.1896 181.131C75.8578 181.247 75.5624 181.374 75.2943 181.51C74.2718 182.03 73.3402 182.866 72.4404 183.677C72.0632 184.017 71.686 184.357 71.2997 184.678C67.0188 188.24 61.2609 189.639 56.6392 188.24C52.6537 187.035 50.0088 183.386 48.7909 181.32C47.1049 178.468 46.2369 175.757 45.8824 172.268C45.7779 171.203 45.7643 170.183 45.8506 169.133C45.9415 168.006 46.1097 166.83 46.2687 165.688C46.5732 163.511 46.8913 161.262 46.7186 159.269C46.4869 156.582 45.5053 154.143 44.5509 151.781C43.2785 148.628 42.0742 145.644 42.7877 142.427C43.3648 139.808 45.1735 137.704 46.9186 135.668C49.2363 132.971 51.4267 130.42 51.0586 126.742C50.7632 123.763 48.9227 120.133 47.1413 116.62C44.9554 112.31 42.6968 107.859 42.9649 104.132C43.5602 95.8517 49.2863 90.0595 58.2843 88.6358C59.7885 88.3977 61.4155 87.7562 62.9469 87.1002C63.665 86.7941 64.3739 86.4102 65.1874 85.8952C66.5371 85.0399 67.6914 84.0681 68.7139 83.208C68.9775 82.9845 69.2319 82.7707 69.4774 82.5666C71.2043 81.1428 72.8312 79.8017 75.4124 79.0096C77.6938 78.3051 80.4886 78.4168 83.079 79.3109C85.4057 80.1127 87.8052 81.5996 90.2093 83.7231C92.5588 85.798 94.9719 88.7621 97.5259 91.9011C102.588 98.1209 107.824 104.555 113.122 104.822C117.044 105.011 120.289 102.037 123.216 98.7866C123.788 98.1501 124.356 97.5135 124.915 96.8818C129.596 91.6193 134.018 86.6483 138.772 85.9632C144.325 85.1614 149.346 87.2703 153.282 92.0518C159.144 99.1754 161.003 110.565 162.53 122.597L162.825 124.905C163.907 133.287 164.934 141.203 162.944 147.996C161.748 152.073 158.785 154.643 155.645 157.364C153.559 159.177 151.396 161.048 149.76 163.429C149.024 164.503 148.46 165.523 148.042 166.548C146.034 171.534 146.897 177.875 147.806 184.595C148.624 190.621 149.465 196.85 148.169 202.317C147.315 205.913 145.829 208.804 143.757 210.913C141.048 213.678 136.913 215.194 132.096 215.194L132.082 215.208ZM80.5159 179.59C81.802 179.59 82.9563 179.761 84.0788 180.11C88.3869 181.456 91.9134 185.509 93.6358 187.807C93.9539 188.23 94.2584 188.653 94.5538 189.076C95.3491 190.208 96.0943 191.33 96.8078 192.404C97.8621 193.988 98.8574 195.485 99.8345 196.758C101.402 198.799 103.038 200.368 104.352 201.637C104.633 201.909 104.902 202.166 105.151 202.409C105.297 202.555 105.433 202.691 105.565 202.822C106.229 203.493 106.751 204.027 108.083 204.8C108.523 205.058 109.037 205.301 109.578 205.553C110.319 205.903 111.087 206.268 111.827 206.734C117.017 210.014 122.634 213.168 128.551 214.047C129.646 214.207 130.76 214.3 131.864 214.31C136.54 214.358 140.571 212.925 143.161 210.281C145.12 208.294 146.524 205.544 147.338 202.118C148.597 196.821 147.76 190.684 146.961 184.746C146.034 177.899 145.156 171.432 147.256 166.213C147.701 165.12 148.292 164.041 149.069 162.919C150.769 160.445 152.973 158.536 155.104 156.689C158.145 154.055 161.012 151.567 162.13 147.748C164.066 141.144 163.053 133.326 161.985 125.046L161.689 122.733C160.181 110.842 158.354 99.5933 152.646 92.6592C148.847 88.0478 144.22 86.0944 138.876 86.867C134.413 87.5084 130.092 92.3676 125.515 97.5135C124.952 98.1452 124.388 98.7818 123.811 99.4183C120.744 102.825 117.322 105.949 113.073 105.73C107.415 105.444 102.061 98.8644 96.8805 92.5037C94.3493 89.3938 91.9589 86.454 89.6639 84.4277C87.3417 82.3722 85.0376 80.9436 82.8109 80.1759C80.375 79.3352 77.7619 79.2332 75.6351 79.8843C73.2084 80.6278 71.6405 81.9203 69.9818 83.2906C69.7364 83.4947 69.4819 83.7037 69.2229 83.9272C68.1822 84.8018 67.0006 85.798 65.6055 86.6823C64.7556 87.2217 64.0104 87.6202 63.2514 87.9457C61.67 88.6212 59.9885 89.282 58.3979 89.5347C49.6862 90.9147 44.36 96.2647 43.792 104.21C43.542 107.669 45.7416 112.004 47.8684 116.197C49.6907 119.783 51.5721 123.496 51.8811 126.649C52.2856 130.731 49.8634 133.549 47.523 136.275C45.7734 138.316 44.1192 140.241 43.592 142.631C42.9467 145.561 44.0965 148.409 45.3098 151.422C46.2869 153.846 47.3003 156.354 47.5412 159.182C47.723 161.286 47.4003 163.589 47.0867 165.819C46.9277 166.947 46.7641 168.113 46.6732 169.211C46.5914 170.198 46.6005 171.165 46.7004 172.17C47.0413 175.562 47.8457 178.074 49.4817 180.839C50.636 182.798 53.1309 186.248 56.8483 187.375C61.2291 188.701 66.6871 187.36 70.7634 183.969C71.1406 183.653 71.5087 183.322 71.8814 182.987C72.8221 182.142 73.7946 181.267 74.9126 180.694C75.2125 180.543 75.5397 180.402 75.9032 180.271C77.153 179.824 78.3118 179.693 79.3798 179.615C79.766 179.586 80.1432 179.576 80.5068 179.576L80.5159 179.59Z" stroke="url(#paint13_linear_688_60416)" stroke-miterlimit="10"/>
<path d="M130.679 209.918C130.606 209.918 130.533 209.918 130.461 209.918C129.424 209.908 128.379 209.82 127.348 209.665C122.467 208.926 117.3 206.463 112.001 202.342C111.587 202.017 111.165 201.71 110.747 201.404C110.01 200.86 109.311 200.35 108.67 199.786C107.134 198.435 106.261 197.196 105.252 195.763C103.848 193.756 102.058 191.069 100.581 187.92C100.167 187.036 99.7626 186.107 99.349 185.15C98.5992 183.415 97.8266 181.622 96.8678 179.858C96.6496 179.455 96.4178 179.052 96.177 178.653C94.0138 175.101 91.0554 172.672 88.2605 172.152C86.9926 171.919 85.7065 172.03 84.1978 172.492C83.1662 172.813 82.1891 173.216 81.1984 173.736C80.9394 173.872 80.6758 174.018 80.4077 174.178C79.5806 174.679 78.7762 175.315 77.9991 175.932C77.5765 176.263 77.1584 176.598 76.7312 176.914C72.6139 179.961 67.8604 181.409 63.6749 180.879C60.2984 180.456 57.5262 178.42 55.7902 176.787C53.6816 174.805 52.2683 172.618 51.3457 169.907C51.0322 168.988 50.8186 168.128 50.6959 167.283C50.4459 165.538 50.3959 163.75 50.3505 162.02C50.3232 160.942 50.296 159.916 50.2233 158.91C50.1278 157.589 49.9506 156.282 49.7824 155.023C49.2689 151.218 48.7872 147.627 50.3823 143.759C51.3957 141.31 53.368 139.328 55.2767 137.413C58.0625 134.619 60.6892 131.981 60.4529 128.079C60.2711 125.056 58.2715 121.3 56.3401 117.665C54.1406 113.525 51.8638 109.249 52.0229 105.692C52.3364 98.5833 56.8218 92.9029 64.0248 90.5024C64.9428 90.1963 65.9244 89.793 66.8742 89.3994C67.256 89.2439 67.6377 89.0836 68.0149 88.9329C68.7011 88.6559 69.3555 88.3644 69.9872 88.0777C70.6643 87.7716 71.2506 87.4946 71.8186 87.2273C72.7775 86.7754 73.6818 86.3478 74.568 85.9931C76.3313 85.2837 78.3172 84.6082 80.903 84.4333C83.048 84.2924 85.393 84.686 87.5061 85.5509C89.5057 86.3575 91.5416 87.6549 93.5548 89.4043C95.6907 91.2605 97.913 93.899 100.262 96.6979C105.089 102.442 110.547 108.943 115.818 108.535C119.472 108.243 122.471 104.891 125.162 101.309C125.921 100.299 126.666 99.2733 127.411 98.2529C131.238 92.9806 134.855 88.0048 139.195 86.8337C144.667 85.3565 149.888 86.7754 154.296 90.9349C161.745 97.9662 164.503 110.415 165.512 119.624C166.253 126.431 166.816 136.451 163.153 144.843C161.331 149.022 157.391 151.67 153.583 154.236C151.02 155.961 148.366 157.749 146.366 159.984C145.48 160.976 144.794 161.947 144.258 162.963C141.585 168.075 142.667 174.693 143.817 181.705C144.694 187.065 145.603 192.609 144.735 197.575C144.126 201.079 142.944 203.844 141.226 205.797C138.886 208.465 135.146 209.927 130.683 209.927L130.679 209.918ZM86.9608 171.131C87.4516 171.131 87.9288 171.175 88.4059 171.263C91.428 171.821 94.5955 174.402 96.8814 178.158C97.1313 178.571 97.3722 178.984 97.5949 179.402C98.5719 181.204 99.3536 183.012 100.108 184.766C100.517 185.714 100.917 186.632 101.326 187.507C102.771 190.588 104.534 193.236 105.907 195.194C106.893 196.603 107.738 197.799 109.197 199.082C109.81 199.621 110.492 200.121 111.215 200.656C111.637 200.967 112.064 201.278 112.487 201.608C117.677 205.646 122.712 208.052 127.457 208.771C128.452 208.921 129.461 209.004 130.461 209.014C132.983 209.048 137.604 208.576 140.599 205.17C142.208 203.343 143.317 200.729 143.899 197.4C144.739 192.594 143.844 187.133 142.981 181.851C141.808 174.679 140.699 167.905 143.517 162.511C144.085 161.428 144.817 160.397 145.748 159.353C147.82 157.035 150.52 155.222 153.124 153.463C157 150.854 160.663 148.39 162.381 144.449C165.953 136.262 165.398 126.412 164.667 119.711C163.681 110.663 160.977 98.4375 153.733 91.5958C149.547 87.6452 144.589 86.2944 139.395 87.6938C135.337 88.7871 131.81 93.6464 128.07 98.7923C127.325 99.8176 126.575 100.848 125.816 101.863C123.003 105.605 119.854 109.108 115.877 109.424C110.233 109.886 104.834 103.481 99.6353 97.2908C97.3086 94.521 95.109 91.9068 93.0231 90.0943C91.0781 88.4081 89.1194 87.1593 87.2062 86.3867C85.1975 85.5655 82.9798 85.1913 80.953 85.3274C78.4808 85.4926 76.563 86.1486 74.8589 86.8337C73.9954 87.1787 73.1047 87.6015 72.1549 88.0485C71.5823 88.3207 70.9915 88.5976 70.378 88.8746C69.6691 89.1905 69.0056 89.4917 68.3103 89.7736C67.9331 89.9242 67.5514 90.0797 67.1742 90.24C66.2107 90.6385 65.2155 91.0467 64.2702 91.3625C57.4172 93.6464 53.1545 99.0206 52.8591 105.736C52.7136 109.031 54.9268 113.195 57.0672 117.223C59.0441 120.945 61.0936 124.794 61.2891 128.025C61.5526 132.355 58.6533 135.261 55.8493 138.074C54.0043 139.925 52.091 141.845 51.1458 144.129C49.6461 147.759 50.1142 151.228 50.6095 154.897C50.7822 156.175 50.9595 157.492 51.0594 158.842C51.1367 159.873 51.164 160.956 51.1912 161.996C51.2367 163.697 51.2821 165.461 51.5275 167.147C51.6411 167.944 51.8366 168.721 52.1365 169.596C53.0136 172.162 54.3496 174.227 56.3492 176.107C57.9898 177.652 60.6119 179.582 63.7749 179.98C67.7558 180.48 72.3049 179.091 76.254 176.165C76.6721 175.855 77.0857 175.529 77.4992 175.203C78.299 174.572 79.1216 173.916 79.9941 173.386C80.2804 173.216 80.5576 173.065 80.8303 172.92C81.8619 172.38 82.8844 171.953 83.966 171.622C85.0385 171.292 86.0156 171.126 86.9563 171.126L86.9608 171.131Z" stroke="url(#paint14_linear_688_60416)" stroke-miterlimit="10"/>
<path d="M129.261 204.63C129.197 204.63 129.134 204.63 129.07 204.63C115.609 204.474 105.08 191.058 102.003 178.511C101.789 177.642 101.599 176.762 101.412 175.887C100.908 173.54 100.385 171.111 99.3854 168.934C98.2311 166.422 95.7908 163.448 92.7005 163.331C90.3874 163.229 88.3106 164.779 86.3292 166.261L86.2428 166.324C81.9074 169.561 76.6767 172.948 70.7598 173.502C64.4066 174.099 58.1852 170.795 55.6085 165.469C52.4956 159.026 53.2363 152.748 58.0125 145.109C59.3804 142.927 61.4527 141.1 63.4568 139.336C66.8015 136.392 69.9645 133.607 69.8736 129.419C69.81 126.357 67.6514 122.475 65.5655 118.724C63.3568 114.754 61.0755 110.643 61.1073 107.256C61.1846 99.4228 67.1378 92.0854 74.9634 90.2001C80.7167 88.8103 89.1922 88.5285 96.9223 95.0787C98.8719 96.7308 100.912 99.0778 103.076 101.566C107.893 107.105 113.342 113.388 118.531 112.241C122.862 111.284 126.189 105.526 129.406 99.9574C132.433 94.724 135.559 89.3108 139.631 87.6878C147.08 84.7189 154.701 87.3671 160.545 94.9524C168.77 105.638 172.556 125.633 163.367 141.649C160.89 145.969 156.064 148.588 151.397 151.12C146.98 153.516 142.803 155.785 140.481 159.342C137.091 164.527 138.441 171.363 139.868 178.604C140.808 183.371 141.781 188.303 141.308 192.797C140.936 196.32 140.108 198.818 138.7 200.645C136.059 204.085 131.728 204.63 129.261 204.63ZM92.5142 162.427C92.5869 162.427 92.6551 162.427 92.7278 162.427C96.1907 162.554 98.8855 165.795 100.14 168.531C101.18 170.805 101.717 173.283 102.23 175.678C102.417 176.548 102.603 177.418 102.817 178.278C105.811 190.504 116.036 203.575 129.079 203.726C131.406 203.755 135.564 203.313 138.05 200.072C139.35 198.381 140.118 196.039 140.472 192.695C140.931 188.342 139.972 183.487 139.045 178.788C137.641 171.679 136.191 164.332 139.79 158.827C142.235 155.085 146.702 152.66 151.015 150.318C155.578 147.84 160.3 145.279 162.649 141.178C171.633 125.517 167.934 105.968 159.891 95.5209C154.292 88.2515 147.016 85.7004 139.922 88.5285C136.118 90.0446 133.069 95.3217 130.115 100.429C126.802 106.158 123.38 112.086 118.695 113.121C113.046 114.365 107.42 107.888 102.457 102.178C100.317 99.7144 98.2948 97.3917 96.3952 95.7833C88.9241 89.4566 80.7167 89.7336 75.1452 91.0796C67.6923 92.8775 62.0162 99.8359 61.9435 107.266C61.9117 110.4 64.1339 114.399 66.2835 118.262C68.4239 122.115 70.6371 126.1 70.7098 129.394C70.8098 134.02 67.3378 137.072 63.984 140.026C62.0253 141.751 60.003 143.535 58.7033 145.61C54.1179 152.942 53.3908 158.943 56.3447 165.056C59.1714 170.902 65.7654 173.064 70.6734 172.607C76.3949 172.073 81.5029 168.759 85.7475 165.586L85.8338 165.523C87.7789 164.07 89.9784 162.427 92.5051 162.427H92.5142Z" stroke="url(#paint15_linear_688_60416)" stroke-miterlimit="10"/>
<defs>
<linearGradient id="paint0_linear_688_60416" x1="-76.1317" y1="158.792" x2="202.277" y2="158.792" gradientUnits="userSpaceOnUse">
<stop offset="0.08" stop-color="#A08619"/>
<stop offset="0.58" stop-color="#155B77"/>
<stop offset="0.94" stop-color="#155B77"/>
</linearGradient>
<linearGradient id="paint1_linear_688_60416" x1="-66.8345" y1="157.106" x2="198.01" y2="157.106" gradientUnits="userSpaceOnUse">
<stop offset="0.08" stop-color="#A08619"/>
<stop offset="0.58" stop-color="#155B77"/>
<stop offset="0.94" stop-color="#155B77"/>
</linearGradient>
<linearGradient id="paint2_linear_688_60416" x1="-57.5999" y1="155.439" x2="193.857" y2="155.439" gradientUnits="userSpaceOnUse">
<stop offset="0.08" stop-color="#A08619"/>
<stop offset="0.58" stop-color="#155B77"/>
<stop offset="0.94" stop-color="#155B77"/>
</linearGradient>
<linearGradient id="paint3_linear_688_60416" x1="-48.3882" y1="153.784" x2="189.602" y2="153.784" gradientUnits="userSpaceOnUse">
<stop offset="0.08" stop-color="#A08619"/>
<stop offset="0.58" stop-color="#155B77"/>
<stop offset="0.94" stop-color="#155B77"/>
</linearGradient>
<linearGradient id="paint4_linear_688_60416" x1="-39.2039" y1="152.14" x2="185.391" y2="152.14" gradientUnits="userSpaceOnUse">
<stop offset="0.08" stop-color="#A08619"/>
<stop offset="0.58" stop-color="#155B77"/>
<stop offset="0.94" stop-color="#155B77"/>
</linearGradient>
<linearGradient id="paint5_linear_688_60416" x1="-30.025" y1="150.52" x2="181.198" y2="150.52" gradientUnits="userSpaceOnUse">
<stop offset="0.08" stop-color="#A08619"/>
<stop offset="0.58" stop-color="#155B77"/>
<stop offset="0.94" stop-color="#155B77"/>
</linearGradient>
<linearGradient id="paint6_linear_688_60416" x1="-20.8822" y1="148.92" x2="177.045" y2="148.92" gradientUnits="userSpaceOnUse">
<stop offset="0.08" stop-color="#A08619"/>
<stop offset="0.58" stop-color="#155B77"/>
<stop offset="0.94" stop-color="#155B77"/>
</linearGradient>
<linearGradient id="paint7_linear_688_60416" x1="-11.7408" y1="147.362" x2="172.855" y2="147.362" gradientUnits="userSpaceOnUse">
<stop offset="0.08" stop-color="#A08619"/>
<stop offset="0.58" stop-color="#155B77"/>
<stop offset="0.94" stop-color="#155B77"/>
</linearGradient>
<linearGradient id="paint8_linear_688_60416" x1="-2.62047" y1="145.814" x2="168.726" y2="145.814" gradientUnits="userSpaceOnUse">
<stop offset="0.08" stop-color="#A08619"/>
<stop offset="0.58" stop-color="#155B77"/>
<stop offset="0.94" stop-color="#155B77"/>
</linearGradient>
<linearGradient id="paint9_linear_688_60416" x1="6.49644" y1="145.054" x2="164.642" y2="145.054" gradientUnits="userSpaceOnUse">
<stop offset="0.08" stop-color="#A08619"/>
<stop offset="0.58" stop-color="#155B77"/>
<stop offset="0.94" stop-color="#155B77"/>
</linearGradient>
<linearGradient id="paint10_linear_688_60416" x1="15.6102" y1="145.508" x2="162.601" y2="145.508" gradientUnits="userSpaceOnUse">
<stop offset="0.08" stop-color="#A08619"/>
<stop offset="0.58" stop-color="#155B77"/>
<stop offset="0.94" stop-color="#155B77"/>
</linearGradient>
<linearGradient id="paint11_linear_688_60416" x1="24.7232" y1="145.95" x2="162.532" y2="145.95" gradientUnits="userSpaceOnUse">
<stop offset="0.08" stop-color="#A08619"/>
<stop offset="0.58" stop-color="#155B77"/>
<stop offset="0.94" stop-color="#155B77"/>
</linearGradient>
<linearGradient id="paint12_linear_688_60416" x1="33.8141" y1="146.377" x2="162.979" y2="146.377" gradientUnits="userSpaceOnUse">
<stop offset="0.08" stop-color="#A08619"/>
<stop offset="0.58" stop-color="#155B77"/>
<stop offset="0.94" stop-color="#155B77"/>
</linearGradient>
<linearGradient id="paint13_linear_688_60416" x1="42.5592" y1="146.755" x2="164.123" y2="146.755" gradientUnits="userSpaceOnUse">
<stop offset="0.08" stop-color="#A08619"/>
<stop offset="0.58" stop-color="#155B77"/>
<stop offset="0.94" stop-color="#155B77"/>
</linearGradient>
<linearGradient id="paint14_linear_688_60416" x1="49.2761" y1="147.052" x2="166.104" y2="147.052" gradientUnits="userSpaceOnUse">
<stop offset="0.08" stop-color="#A08619"/>
<stop offset="0.58" stop-color="#155B77"/>
<stop offset="0.94" stop-color="#155B77"/>
</linearGradient>
<linearGradient id="paint15_linear_688_60416" x1="53.7197" y1="145.456" x2="168.761" y2="145.456" gradientUnits="userSpaceOnUse">
<stop offset="0.08" stop-color="#A08619"/>
<stop offset="0.58" stop-color="#155B77"/>
<stop offset="0.94" stop-color="#155B77"/>
</linearGradient>
</defs>
</svg>
